<svg width="75" height="77" viewBox="0 0 75 77" fill="none" xmlns="http://www.w3.org/2000/svg">
<g filter="url(#filter0_d_161_9917)">
<path d="M73.7933 42.7603V31.8495H72.7019V26.3871H71.4953V23.535H70.2886V20.6856H69.0819V18.5873H67.8752V17.5015H66.4969V14.5791H65.0849V13.108H63.822V11.7888H62.7559V10.4696H61.3411V9.1504H59.9263V7.83121H58.5115V6.5092H55.7268V5.19H53.0743V3.87081H50.5907V2.55162H45.5333V1.23242H29.5792V2.55162H24.5218V3.87081H22.0381V5.19H19.3857V6.5092H16.6038V7.83121H15.189V9.1504H13.7742V10.4696H12.3593V11.7888H11.2933V13.108H10.0304V14.5791H8.61553V17.5015H7.23727V18.5873H6.03058V20.6856H4.82671V23.535H3.62003V26.3871H2.41335V31.8495H1.20667V42.7603H2.41335V48.2256H3.62003V51.0749H4.82671V53.9242H6.03058V56.0226H7.23727V57.1083H8.61553V60.0308H10.0304V61.5019H11.2933V62.8211H12.3593V64.1403H13.7742V65.4623H15.189V66.7815H16.6038V68.1007H19.3857V69.4199H22.0381V70.7391H24.5218V72.0611H29.5792V73.3803H45.5333V72.0611H50.5907V70.7391H53.0743V69.4199H55.7268V68.1007H58.5115V66.7815H59.9263V65.4623H61.3411V64.1403H62.7559V62.8211H63.822V61.5019H65.0849V60.0308H66.4969V57.1083H67.8752V56.0226H69.0819V53.9242H70.2886V51.0749H71.4953V48.2256H72.7019V42.7603H73.7933Z" fill="#F6B279"/>
<path d="M3.48218 30.0371H0.756592V36.7118H3.48218V30.0371Z" fill="white"/>
<path d="M3.48219 25.9277H1.6145V30.5154H3.48219V25.9277Z" fill="white"/>
<path d="M4.70007 23.1201H2.84082V26.0595H4.70007V23.1201Z" fill="white"/>
<path d="M6.13462 20.2539H4.08411V23.2214H6.13462V20.2539Z" fill="white"/>
<path d="M7.24005 17.9023H5.74365V20.5492H7.24005V17.9023Z" fill="white"/>
<path d="M8.57328 16.0693H6.49182V18.9102H8.57328V16.0693Z" fill="white"/>
<path d="M9.88964 14.3984H7.70129V17.4587H9.88964V14.3984Z" fill="white"/>
<path d="M11.268 13.04H8.64929V15.0287H11.268V13.04Z" fill="white"/>
<path d="M12.559 11.585H10.2356V13.3176H12.559V11.585Z" fill="white"/>
<path d="M16.8822 10.3418H11.4985V11.8916H16.8822V10.3418Z" fill="white"/>
<path d="M15.3746 9.10449H13.8107V13.0339H15.3746V9.10449Z" fill="white"/>
<path d="M18.3759 7.86426H15.0399V10.5533H18.3759V7.86426Z" fill="white"/>
<path d="M21.2505 6.28613H16.6656V8.48291H21.2505V6.28613Z" fill="white"/>
<path d="M23.7736 4.90527H18.9469V6.92766H23.7736V4.90527Z" fill="white"/>
<path d="M25.4077 3.58008H21.6667V5.4562H25.4077V3.58008Z" fill="white"/>
<path d="M19.6416 7.75488H17.577V9.43411H19.6416V7.75488Z" fill="white"/>
<path d="M30.2852 2.27246H24.5527V4.09514H30.2852V2.27246Z" fill="white"/>
<path d="M43.823 1.23145H29.5791V2.62377H43.823V1.23145Z" fill="white"/>
<path d="M68.826 31.8809H67.5461V41.7509H68.826V31.8809Z" fill="#C6672A"/>
<path d="M67.8471 27.4424H66.5673V32.376H67.8471V27.4424Z" fill="#C6672A"/>
<path d="M66.6742 24.9756H65.67V27.9374H66.6742V24.9756Z" fill="#C6672A"/>
<path d="M65.6587 22.6123H64.6433V25.5742H65.6587V22.6123Z" fill="#C6672A"/>
<path d="M64.6349 20.6777H63.6195V23.6396H64.6349V20.6777Z" fill="#C6672A"/>
<path d="M63.6729 19.6279H62.4353V21.1103H63.6729V19.6279Z" fill="#C6672A"/>
<path d="M62.455 17.3271H61.2174V19.898H62.455V17.3271Z" fill="#C6672A"/>
<path d="M61.3806 16.042H60.1429V17.3724H61.3806V16.042Z" fill="#C6672A"/>
<path d="M60.441 14.7705H59.2484V16.101H60.441V14.7705Z" fill="#C6672A"/>
<path d="M59.2428 13.792H58.0502V15.1224H59.2428V13.792Z" fill="#C6672A"/>
<path d="M58.0361 12.6523H56.8435V13.9828H58.0361V12.6523Z" fill="#C6672A"/>
<path d="M56.8323 11.4375H55.6396V12.7679H56.8323V11.4375Z" fill="#C6672A"/>
<path d="M55.6593 10.2959H53.274V11.6263H55.6593V10.2959Z" fill="#C6672A"/>
<path d="M53.3978 9.11133H51.0126V10.4418H53.3978V9.11133Z" fill="#C6672A"/>
<path d="M51.2742 8.01172H48.8889V9.34216H51.2742V8.01172Z" fill="#C6672A"/>
<path d="M48.8889 6.95898H44.5741V8.28943H48.8889V6.95898Z" fill="#C6672A"/>
<path d="M44.5742 5.82031H30.9772V7.15076H44.5742V5.82031Z" fill="#C6672A"/>
<path d="M6.64938 41.6553H7.9292L7.9292 31.7852H6.64938L6.64938 41.6553Z" fill="#C6672A"/>
<path d="M7.63107 32.2832H8.91089V27.3496H7.63107L7.63107 32.2832Z" fill="#C6672A"/>
<path d="M8.86581 28.0801H9.88123V25.1182H8.86581V28.0801Z" fill="#C6672A"/>
<path d="M9.88974 25.6143H10.9052V22.6524H9.88974V25.6143Z" fill="#C6672A"/>
<path d="M10.8404 23.5488H11.8558V20.587H10.8404V23.5488Z" fill="#C6672A"/>
<path d="M11.8024 21.0176H13.04V19.5352H11.8024V21.0176Z" fill="#C6672A"/>
<path d="M13.0203 19.8057H14.2579V17.3698H13.0203V19.8057Z" fill="#C6672A"/>
<path d="M14.1877 17.2793H15.5575V15.9489H14.1877V17.2793Z" fill="#C6672A"/>
<path d="M15.099 16.0078H16.3647V14.6774H15.099V16.0078Z" fill="#C6672A"/>
<path d="M16.3085 15.0264H17.5011V13.6959H16.3085V15.0264Z" fill="#C6672A"/>
<path d="M17.4392 13.8896H18.6318V12.5592H17.4392V13.8896Z" fill="#C6672A"/>
<path d="M18.6431 12.6719H19.8357V11.3414H18.6431V12.6719Z" fill="#C6672A"/>
<path d="M19.8779 11.5332H22.1985V10.2028H19.8779V11.5332Z" fill="#C6672A"/>
<path d="M22.0775 10.3486H24.4628V9.01819H22.0775V10.3486Z" fill="#C6672A"/>
<path d="M24.2012 9.24902H26.5864V7.91858H24.2012V9.24902Z" fill="#C6672A"/>
<path d="M26.5864 8.19727H30.9012V6.86682H26.5864V8.19727Z" fill="#C6672A"/>
<path d="M30.8984 7.05762L44.4954 7.05762V5.72717L30.8984 5.72717V7.05762Z" fill="#C6672A"/>
<path d="M45.5333 0H29.5792V1.31638H45.5333V0Z" fill="#483E62"/>
<path d="M29.5792 1.31641H24.5219V2.63279H29.5792V1.31641Z" fill="#483E62"/>
<path d="M24.5246 2.63574H20.6964V3.95212H24.5246V2.63574Z" fill="#483E62"/>
<path d="M22.041 3.95215H18.2128V5.26853H22.041V3.95215Z" fill="#483E62"/>
<path d="M19.3857 5.26855H16.556V6.58494H19.3857V5.26855Z" fill="#483E62"/>
<path d="M16.6038 6.58789H15.189V7.90427H16.6038V6.58789Z" fill="#483E62"/>
<path d="M15.189 7.90332H13.7742V9.2197H15.189V7.90332Z" fill="#483E62"/>
<path d="M13.7742 9.21973H12.3594V10.5361H13.7742V9.21973Z" fill="#483E62"/>
<path d="M12.3594 10.5391H10.9446V11.8554H12.3594V10.5391Z" fill="#483E62"/>
<path d="M11.2934 11.8555H9.87854V13.1719H11.2934V11.8555Z" fill="#483E62"/>
<path d="M10.0304 13.1719H8.6156V14.6401H10.0304V13.1719Z" fill="#483E62"/>
<path d="M8.61563 14.6406H7.20081V17.5575H8.61563V14.6406Z" fill="#483E62"/>
<path d="M7.23732 16.0977H6.03064V18.6404H7.23732V16.0977Z" fill="#483E62"/>
<path d="M6.03347 17.8896H4.82678V20.7334H6.03347V17.8896Z" fill="#483E62"/>
<path d="M4.82668 20.7354H3.62V23.5791H4.82668V20.7354Z" fill="#483E62"/>
<path d="M3.62001 23.5791H2.41333V26.4228H3.62001V23.5791Z" fill="#483E62"/>
<path d="M2.41335 26.4258H1.20667V31.8798H2.41335V26.4258Z" fill="#483E62"/>
<path d="M45.5361 2.63574L50.5935 2.63574V1.31936L45.5361 1.31936V2.63574Z" fill="#483E62"/>
<path d="M50.5934 3.95215L54.4216 3.95215V2.63577L50.5934 2.63577V3.95215Z" fill="#483E62"/>
<path d="M53.0744 5.26855L56.9026 5.26855V3.95217L53.0744 3.95217V5.26855Z" fill="#483E62"/>
<path d="M55.7269 6.58789H58.5565V5.27151H55.7269V6.58789Z" fill="#483E62"/>
<path d="M58.5086 7.9043H59.9235V6.58792H58.5086V7.9043Z" fill="#483E62"/>
<path d="M59.9236 9.2207H61.3384V7.90432H59.9236V9.2207Z" fill="#483E62"/>
<path d="M61.3383 10.54H62.7532V9.22366H61.3383V10.54Z" fill="#483E62"/>
<path d="M62.7531 11.8535H64.168V10.5371H62.7531V11.8535Z" fill="#483E62"/>
<path d="M63.822 13.1719H65.2368V11.8555H63.822V13.1719Z" fill="#483E62"/>
<path d="M65.0821 14.6406H66.4969V13.1724H65.0821V14.6406Z" fill="#483E62"/>
<path d="M66.4997 17.5576H67.9146V14.6408H66.4997V17.5576Z" fill="#483E62"/>
<path d="M67.878 18.6436H69.0847V16.1008H67.878V18.6436Z" fill="#483E62"/>
<path d="M69.0819 20.7363H70.2886V17.8926H69.0819V20.7363Z" fill="#483E62"/>
<path d="M70.2886 23.5791H71.4952V20.7354H70.2886V23.5791Z" fill="#483E62"/>
<path d="M71.4952 26.4258H72.7019V23.5821H71.4952V26.4258Z" fill="#483E62"/>
<path d="M72.702 31.877H73.9087V26.423H72.702V31.877Z" fill="#483E62"/>
<path d="M29.582 74.6484H45.5361V73.3321H29.582V74.6484Z" fill="#483E62"/>
<path d="M45.5361 73.3291H50.5935V72.0127H45.5361V73.3291Z" fill="#483E62"/>
<path d="M50.5936 72.0117H54.4218V70.6953H50.5936V72.0117Z" fill="#483E62"/>
<path d="M53.0744 70.6953H56.9026V69.3789H53.0744V70.6953Z" fill="#483E62"/>
<path d="M55.7269 69.377H58.5565V68.0606H55.7269V69.377Z" fill="#483E62"/>
<path d="M58.5086 68.0605H59.9235V66.7442H58.5086V68.0605Z" fill="#483E62"/>
<path d="M59.9236 66.7441H61.3384V65.4278H59.9236V66.7441Z" fill="#483E62"/>
<path d="M61.3383 65.4248H62.7532V64.1084H61.3383V65.4248Z" fill="#483E62"/>
<path d="M62.7531 64.1084H64.168V62.792H62.7531V64.1084Z" fill="#483E62"/>
<path d="M63.822 62.792H65.2368V61.4756H63.822V62.792Z" fill="#483E62"/>
<path d="M65.0821 61.4727H66.4969V60.0044H65.0821V61.4727Z" fill="#483E62"/>
<path d="M66.4997 60.0049H67.9146V57.088H66.4997V60.0049Z" fill="#483E62"/>
<path d="M67.878 58.5498H69.0847V56.0071H67.878V58.5498Z" fill="#483E62"/>
<path d="M69.0819 56.7559H70.2886V53.9121H69.0819V56.7559Z" fill="#483E62"/>
<path d="M70.2887 53.9121H71.4954V51.0684H70.2887V53.9121Z" fill="#483E62"/>
<path d="M71.4952 51.0654H72.7019V48.2217H71.4952V51.0654Z" fill="#483E62"/>
<path d="M72.702 48.2217H73.9087V42.7677H72.702V48.2217Z" fill="#483E62"/>
<path d="M29.5794 72.0117H24.522V73.3281H29.5794V72.0117Z" fill="#483E62"/>
<path d="M24.5247 70.6953H20.6965V72.0117H24.5247V70.6953Z" fill="#483E62"/>
<path d="M22.0411 69.376H18.2129V70.6924H22.0411V69.376Z" fill="#483E62"/>
<path d="M19.3858 68.0605H16.5562V69.3769H19.3858V68.0605Z" fill="#483E62"/>
<path d="M16.6039 66.7441H15.1891V68.0605H16.6039V66.7441Z" fill="#483E62"/>
<path d="M15.1891 65.4248H13.7743V66.7412H15.1891V65.4248Z" fill="#483E62"/>
<path d="M13.7743 64.1084H12.3595V65.4248H13.7743V64.1084Z" fill="#483E62"/>
<path d="M12.3594 62.792H10.9446V64.1084H12.3594V62.792Z" fill="#483E62"/>
<path d="M11.2934 61.4727H9.87854V62.789H11.2934V61.4727Z" fill="#483E62"/>
<path d="M10.0304 60.0068H8.6156V61.4751H10.0304V60.0068Z" fill="#483E62"/>
<path d="M8.61563 57.0898H7.20081V60.0067H8.61563V57.0898Z" fill="#483E62"/>
<path d="M7.23744 56.0049H6.03076V58.5476H7.23744V56.0049Z" fill="#483E62"/>
<path d="M6.03347 53.9121H4.82678V56.7558H6.03347V53.9121Z" fill="#483E62"/>
<path d="M4.8268 51.0654H3.62012V53.9092H4.8268V51.0654Z" fill="#483E62"/>
<path d="M3.62014 48.2217H2.41345V51.0654H3.62014V48.2217Z" fill="#483E62"/>
<path d="M2.41347 42.7676H1.20679V48.2216H2.41347V42.7676Z" fill="#483E62"/>
<path d="M1.20668 30.5605H0V44.1969H1.20668V30.5605Z" fill="#483E62"/>
<path d="M75 31.126H73.7933V44.7623H75V31.126Z" fill="#483E62"/>
<path d="M67.7262 41.4345H67.0033V40.6104H65.0653V43.1081H63.5464V46.9954H61.9797V48.3342H60.2076V49.3018H58.8715V50.9164H57.0404V54.843H55.9519V56.3141H54.3795V58.103H51.924V59.2957H50.706V60.4686H49.6344V60.9468H47.5417V61.7484H42.3802V63.2673H40.0146V64.9072H43.2015V63.8974H48.0367V62.5529H49.6344V63.6695H55.634V62.5275H56.8379V61.3856H58.0446V60.2436H59.2484V59.1016H60.1598V57.9596H61.2343V56.6882H62.441V54.3227H63.6448V53.4029H64.6434V51.4058H65.67V48.939H66.6995V46.475H67.7262V41.4345Z" fill="#AE4E31"/>
<path d="M28.0181 61.3235H22.7385V63.6974H29.5314V62.2179H30.8787V60.7412H28.0181V61.3235Z" fill="#AE4E31"/>
<path d="M44.5741 68.2382V66.8037H31.0165V68.2382H44.5741Z" fill="#C6672A"/>
<path d="M31.5144 67.105V65.8252H26.5808V67.105H31.5144Z" fill="#C6672A"/>
<path d="M27.073 65.9319V64.9277H24.1111V65.9319H27.073Z" fill="#C6672A"/>
<path d="M24.7103 64.9158V63.9004H21.7485V64.9158H24.7103Z" fill="#C6672A"/>
<path d="M22.775 63.8927V62.416H19.9172V63.8927H22.775Z" fill="#C6672A"/>
<path d="M19.8835 62.5765V61.3389H18.6459V62.5765H19.8835Z" fill="#C6672A"/>
<path d="M18.7303 61.4339V60.1963H17.4927V61.4339H18.7303Z" fill="#C6672A"/>
<path d="M17.5405 60.2445V59.0068H16.3029V60.2445H17.5405Z" fill="#C6672A"/>
<path d="M16.3029 59.1673V57.9297H15.189V59.1673H16.3029Z" fill="#C6672A"/>
<path d="M15.5181 58.014V56.6836H14.1876V58.014H15.5181Z" fill="#C6672A"/>
<path d="M14.2946 56.6973V55.1699H12.9641V56.6973H14.2946Z" fill="#C6672A"/>
<path d="M14.2946 55.4934V54.3008H12.9641V55.4934H14.2946Z" fill="#C6672A"/>
<path d="M13.0795 54.2834V53.0908H11.749V54.2834H13.0795Z" fill="#C6672A"/>
<path d="M12.2019 54.3233V51.5527H10.8715V54.3233H12.2019Z" fill="#C6672A"/>
<path d="M11.0177 51.6964V48.9258H9.68726V51.6964H11.0177Z" fill="#C6672A"/>
<path d="M10.1035 48.9702V46.585H8.77307V48.9702H10.1035Z" fill="#C6672A"/>
<path d="M9.05151 46.5882V42.2734H7.72107V46.5882H9.05151Z" fill="#C6672A"/>
<path d="M23.9762 9.25977H21.0368V9.98265H19.8807V10.3877L19.0397 10.4411V11.5409L17.5068 11.5184V15.0288H16.362V15.6617L15.9063 15.656V16.0076H15.4422L15.4506 16.8346H13.1132V17.369H12.1822V21.0172H11.7996L11.8531 23.5487H10.6211L10.6295 25.633H7.83923V38.7827H8.87715V41.5449H10.7223V38.7827H13.237V41.3874H14.4999V38.7827H17.6136V25.633H14.8402V24.1506H14.1792V22.2745H14.8543V24.4066H16.9611V21.8188H18.8456V17.5631H20.3167V14.8234H21.9791V12.7701H23.9762V9.25977Z" fill="white"/>
<path d="M70.9102 31.6582H69.1719V43.4775H70.9102V31.6582Z" fill="#F1EDAF"/>
<path d="M70.2943 27.5684H68.6572V32.0744H70.2943V27.5684Z" fill="#F1EDAF"/>
<path d="M70.2943 41.916H68.6572V46.4221H70.2943V41.916Z" fill="#F1EDAF"/>
<path d="M69.2985 44.4053H67.7262V48.9113H69.2985V44.4053Z" fill="#F1EDAF"/>
<path d="M68.3337 46.8975H66.7614V51.4035H68.3337V46.8975Z" fill="#F1EDAF"/>
<path d="M66.9695 49.3027H65.67V53.8088H66.9695V49.3027Z" fill="#F1EDAF"/>
<path d="M65.926 52.4893H64.6265V55.3949H65.926V52.4893Z" fill="#F1EDAF"/>
<path d="M69.1832 25.1064H67.7262V28.4255H69.1832V25.1064Z" fill="#F1EDAF"/>
<path d="M68.0243 22.6738H66.6742V25.9929H68.0243V22.6738Z" fill="#F1EDAF"/>
<path d="M66.8598 20.1904H65.6587V23.5095H66.8598V20.1904Z" fill="#F1EDAF"/>
<path d="M21.3855 63.6709H18.7302V65.9549H21.3855V63.6709Z" fill="#F1EDAF"/>
<path d="M26.8564 67.1533H25.0393V68.9704H26.8564V67.1533Z" fill="#F1EDAF"/>
<path d="M32.1415 68.2363H26.8563V70.0815H32.1415V68.2363Z" fill="#F1EDAF"/>
<path d="M50.0562 68.2363H44.0453V70.0815H50.0562V68.2363Z" fill="#F1EDAF"/>
<path d="M52.3261 67.1533H46.3152V68.5344H52.3261V67.1533Z" fill="#F1EDAF"/>
<path d="M47.083 69.2598H29.5228V71.24H47.083V69.2598Z" fill="#F1EDAF"/>
<path d="M44.5743 4.67969H30.9773V5.82168H44.5743V4.67969Z" fill="#483E62"/>
<path d="M30.9773 5.81836H26.6681V6.96035H30.9773V5.81836Z" fill="#483E62"/>
<path d="M26.6653 6.95996H23.4053V8.10195H26.6653V6.95996Z" fill="#483E62"/>
<path d="M24.5501 8.10254H21.29V9.24453H24.5501V8.10254Z" fill="#483E62"/>
<path d="M22.2914 9.24414H19.8809V10.3861H22.2914V9.24414Z" fill="#483E62"/>
<path d="M19.9203 10.3867H18.7136V11.5287H19.9203V10.3867Z" fill="#483E62"/>
<path d="M18.7135 11.5283H17.5068V12.6703H18.7135V11.5283Z" fill="#483E62"/>
<path d="M17.5097 12.6709H16.303V13.8129H17.5097V12.6709Z" fill="#483E62"/>
<path d="M16.303 13.8125H15.0963V14.9545H16.303V13.8125Z" fill="#483E62"/>
<path d="M15.3945 14.9541H14.1879V16.0961H15.3945V14.9541Z" fill="#483E62"/>
<path d="M14.32 16.0967H13.1133V17.3681H14.32V16.0967Z" fill="#483E62"/>
<path d="M13.1133 17.3672H11.9066V19.8959H13.1133V17.3672Z" fill="#483E62"/>
<path d="M11.9404 18.6309H10.9109V20.8333H11.9404V18.6309Z" fill="#483E62"/>
<path d="M10.9109 20.1836H9.88147V22.6504H10.9109V20.1836Z" fill="#483E62"/>
<path d="M9.88421 22.6504H8.85474V25.1172H9.88421V22.6504Z" fill="#483E62"/>
<path d="M8.8548 25.1172H7.82532V27.584H8.8548V25.1172Z" fill="#483E62"/>
<path d="M7.82806 27.5811H6.79858V32.3065H7.82806V27.5811Z" fill="#483E62"/>
<path d="M44.5741 6.96289L48.8833 6.96289V5.8209H44.5741V6.96289Z" fill="#483E62"/>
<path d="M48.8862 8.10547H52.1462V6.96348H48.8862V8.10547Z" fill="#483E62"/>
<path d="M51.0013 9.24414H54.2614V8.10215H51.0013V9.24414Z" fill="#483E62"/>
<path d="M53.2628 10.3867H55.6733V9.24473H53.2628V10.3867Z" fill="#483E62"/>
<path d="M55.6312 11.5283H56.8379V10.3863H55.6312V11.5283Z" fill="#483E62"/>
<path d="M56.8379 12.6699H58.0446V11.5279H56.8379V12.6699Z" fill="#483E62"/>
<path d="M58.0417 13.8125H59.2484V12.6705H58.0417V13.8125Z" fill="#483E62"/>
<path d="M59.2484 14.9512H60.4551V13.8092H59.2484V14.9512Z" fill="#483E62"/>
<path d="M60.157 16.0938H61.3636V14.9518H60.157V16.0938Z" fill="#483E62"/>
<path d="M61.2342 17.3652H62.4409V16.0939H61.2342V17.3652Z" fill="#483E62"/>
<path d="M62.4381 19.8936H63.6448V17.3649H62.4381V19.8936Z" fill="#483E62"/>
<path d="M63.6138 20.8359H64.6433V18.6335H63.6138V20.8359Z" fill="#483E62"/>
<path d="M64.6406 22.6504H65.67V20.1836H64.6406V22.6504Z" fill="#483E62"/>
<path d="M65.67 25.1172H66.6995V22.6504H65.67V25.1172Z" fill="#483E62"/>
<path d="M66.6967 27.5811H67.7262V25.1142H66.6967V27.5811Z" fill="#483E62"/>
<path d="M67.7261 32.3096H68.7556V27.5841H67.7261V32.3096Z" fill="#483E62"/>
<path d="M30.9774 69.3799H44.5743V68.2379H30.9774V69.3799Z" fill="#483E62"/>
<path d="M44.5742 68.2354H48.8834V67.0934H44.5742V68.2354Z" fill="#483E62"/>
<path d="M48.8863 67.0928H52.1464V65.9508H48.8863V67.0928Z" fill="#483E62"/>
<path d="M51.0015 65.9512H54.2615V64.8092H51.0015V65.9512Z" fill="#483E62"/>
<path d="M53.2629 64.8125H55.6735V63.6705H53.2629V64.8125Z" fill="#483E62"/>
<path d="M55.6313 63.6699H56.838V62.5279H55.6313V63.6699Z" fill="#483E62"/>
<path d="M56.838 62.5283H58.0447V61.3863H56.838V62.5283Z" fill="#483E62"/>
<path d="M58.0419 61.3857H59.2485V60.2437H58.0419V61.3857Z" fill="#483E62"/>
<path d="M59.2485 60.2441H60.4552V59.1022H59.2485V60.2441Z" fill="#483E62"/>
<path d="M60.1571 59.1045H61.3638V57.9625H60.1571V59.1045Z" fill="#483E62"/>
<path d="M61.2344 57.96H62.441V56.6886H61.2344V57.96Z" fill="#483E62"/>
<path d="M62.4382 56.6885H63.6449V54.1598H62.4382V56.6885Z" fill="#483E62"/>
<path d="M63.614 55.4258H64.6434V53.2234H63.614V55.4258Z" fill="#483E62"/>
<path d="M64.6407 53.873H65.6702V51.4062H64.6407V53.873Z" fill="#483E62"/>
<path d="M65.6701 51.4062H66.6996V48.9394H65.6701V51.4062Z" fill="#483E62"/>
<path d="M66.6968 48.9395H67.7263V46.4726H66.6968V48.9395Z" fill="#483E62"/>
<path d="M67.7263 46.4756H68.7557V41.7501H67.7263V46.4756Z" fill="#483E62"/>
<path d="M30.9773 67.0957H26.6681V68.2377H30.9773V67.0957Z" fill="#483E62"/>
<path d="M26.6653 65.9541H23.4053V67.0961H26.6653V65.9541Z" fill="#483E62"/>
<path d="M24.5501 64.8125H21.29V65.9545H24.5501V64.8125Z" fill="#483E62"/>
<path d="M22.2914 63.6699H19.8809V64.8119H22.2914V63.6699Z" fill="#483E62"/>
<path d="M19.9203 62.5283H18.7136V63.6703H19.9203V62.5283Z" fill="#483E62"/>
<path d="M18.7135 61.3857H17.5068V62.5277H18.7135V61.3857Z" fill="#483E62"/>
<path d="M17.5097 60.2441H16.303V61.3861H17.5097V60.2441Z" fill="#483E62"/>
<path d="M16.303 59.1025H15.0963V60.2445H16.303V59.1025Z" fill="#483E62"/>
<path d="M15.3945 57.96H14.1879V59.1019H15.3945V57.96Z" fill="#483E62"/>
<path d="M14.32 56.6885H13.1133V57.9599H14.32V56.6885Z" fill="#483E62"/>
<path d="M13.1133 54.1602H11.9066V56.6888H13.1133V54.1602Z" fill="#483E62"/>
<path d="M11.9404 53.2207H10.9109V55.4231H11.9404V53.2207Z" fill="#483E62"/>
<path d="M10.9109 51.4062H9.88147V53.8731H10.9109V51.4062Z" fill="#483E62"/>
<path d="M9.88421 48.9395H8.85474V51.4063H9.88421V48.9395Z" fill="#483E62"/>
<path d="M8.8548 46.4756H7.82532V48.9424H8.8548V46.4756Z" fill="#483E62"/>
<path d="M7.82806 41.7471H6.79858V46.4725H7.82806V41.7471Z" fill="#483E62"/>
<path d="M6.79852 31.168H5.76904V42.9873H6.79852V31.168Z" fill="#483E62"/>
<path d="M69.6867 31.6572H68.6572V43.4765H69.6867V31.6572Z" fill="#483E62"/>
<path d="M18.9498 49.1582H17.4421V53.7346H18.9498V49.1582Z" fill="white"/>
<path d="M20.3478 52.1991V50.6914H15.7714V52.1991H20.3478Z" fill="white"/>
<path d="M16.2832 42.1719H14.5618V49.4204H16.2832V42.1719Z" fill="white"/>
<path d="M18.8259 46.948V45.2266H11.5774V46.948H18.8259Z" fill="white"/>
<path d="M17.442 48.0509V43.6826H13.3016V48.0509H17.442Z" fill="white"/>
<path d="M58.5367 20.8145H56.8153V25.9872H58.5367V20.8145Z" fill="white"/>
<path d="M60.2638 24.3337V22.6123H55.0911V24.3337H60.2638Z" fill="white"/>
<path d="M62.0078 29.1318H60.2864V36.3804H62.0078V29.1318Z" fill="white"/>
<path d="M64.5505 33.9079V32.1865H57.302V33.9079H64.5505Z" fill="white"/>
<path d="M63.1638 35.0108V30.6426H59.0234V35.0108H63.1638Z" fill="white"/>
<path d="M53.3978 14.623H51.6764V23.4721H53.3978V14.623Z" fill="white"/>
<path d="M55.5074 19.8327V18.1113H49.4628V19.8327H55.5074Z" fill="white"/>
<path d="M54.1882 20.7298V17.2139H50.886V20.7298H54.1882Z" fill="white"/>
<path d="M32.4088 60.2471H28.8225V63.479H32.4088V60.2471Z" fill="#AE4E31"/>
<path d="M53.8647 61.4477V59.5378H55.9011V26.4961H17.1551V30.569H14.5983V47.6032H16.8569V57.7489H17.937V59.5097H20.0185V60.9133L22.0943 60.812L22.0606 61.4477H53.8647Z" fill="#FCFADD"/>
<path fill-rule="evenodd" clip-rule="evenodd" d="M54.6861 12.9359V11.1582H49.3559V12.303H47.9748V14.7895H46.2393V17.9342H36.0317V17.0088H30.2571V14.7501H28.3978V12.9359H26.7045V11.2792H23.0057V21.9593H20.9102V22.4993H18.7922V24.4458H17.1552V29.4919H20.2211V32.1894H23.0057V35.7391H35.9108V37.168H38.7967V34.0036H36.0317V31.5846H51.8621V33.3398H53.8169V35.109H56.4413V32.6057H56.4272V31.5846H56.5256V26.201H56.6297V12.9359H54.6861Z" fill="#F7B279"/>
<path fill-rule="evenodd" clip-rule="evenodd" d="M36.102 25.5684V26.9663H33.9643V25.3265H35.8854V22.4884H40.3493V25.5627H36.1048L36.0992 25.5684H36.102ZM27.8099 25.5318H26.0238V22.373H29.7114V23.5966H29.8351V27.2785H27.8127V25.529V25.5346L27.8099 25.5318Z" fill="#FCFADD"/>
<path d="M38.4422 54.1826H35.9332V56.1853H38.4422V54.1826Z" fill="#E77560"/>
<path fill-rule="evenodd" clip-rule="evenodd" d="M55.769 47.2857H58.053V34.4932H55.769V47.2857ZM34.0037 58.1599H36.147V54.1826H34.0037V58.1599ZM44.8779 61.1611V64.9134H38.3579V60.2498H40.4534V58.0558H44.3519V56.2078H48.332V54.0392H50.3038V52.118H54.7676V54.7171H53.2994V57.1614H50.8551V58.7365H47.3419V61.1611H44.8835H44.8779ZM40.369 54.1573V56.191H38.2257V52.1096H40.369V52.118H42.2873V50.1379H44.4307V52.149H42.3098V54.1601H40.369V54.1573ZM25.8888 52.1743H24.0549V50.2391H26.2601V48.5458H36.0823V50.481H33.8771V52.1743H32.0516V54.0251H25.8888V52.1743ZM20.0129 54.0954H17.7655V52.1602H20.0607V54.0645H22.0437V55.9997H20.0073V54.0954H20.0129Z" fill="#FBB37A"/>
<path d="M46.453 17.7686H29.2135V19.5631H46.453V17.7686Z" fill="#FFD490"/>
<path d="M48.3208 15.3887H46.4165V17.7852H48.3208V15.3887Z" fill="#FFD490"/>
<path d="M50.2447 13.29H48.0901V15.4953H50.2447V13.29Z" fill="#FFD490"/>
<path d="M52.0786 11.127H49.9465V13.4813H52.0786V11.127Z" fill="#FFD490"/>
<path d="M20.1676 35.2441H17.9624V37.0331H20.1676V35.2441Z" fill="#FFD490"/>
<path d="M20.2351 27.6191H17.8893V29.5375H20.2351V27.6191Z" fill="#FFD490"/>
<path d="M31.9167 31.5029H20.2633V34.1469H31.9167V31.5029Z" fill="#FFD490"/>
<path d="M31.9307 33.1572H22.0635V35.8012H31.9307V33.1572Z" fill="#FFD490"/>
<path d="M36.1358 35.1963H28.637V36.9824H36.1358V35.1963Z" fill="#FFD490"/>
<path d="M44.2872 36.9912H35.3173V38.7773H44.2872V36.9912Z" fill="#FFD490"/>
<path d="M46.4784 31.5342H42.2677V37.0585H46.4784V31.5342Z" fill="#FFD490"/>
<path fill-rule="evenodd" clip-rule="evenodd" d="M53.8732 32.918V39.2974H52.0393V43.1902H46.5178V45.1114H44.2141V46.8665H42.3352V43.6881H39.1596V46.8665H35.6295V49.1196H29.7058V39.0245H20.058V51.4064H22.0635V61.884H23.9903V62.424V62.8263H29.0364V64.0976H29.5821V65.3437H42.1411V61.8277H47.2913V59.7688H52.1096V58.2696H56.025V55.3527H56.776V52.1883H57.4933V32.918H53.8732Z" fill="#FFE3B8"/>
<path d="M50.0337 31.5459H45.9214V33.4895H50.0337V31.5459Z" fill="#FFD490"/>
<path d="M23.9958 11.5996H21.9537V16.6542H23.9958V11.5996Z" fill="#FFD490"/>
<path fill-rule="evenodd" clip-rule="evenodd" d="M21.8608 32.2456H26.2235V27.8857H21.8608V32.2456ZM40.8555 29.3596H41.449V33.922H35.9726V29.3596H37.6968V28.5721H40.8555V29.3596Z" fill="white"/>
<path fill-rule="evenodd" clip-rule="evenodd" d="M22.0297 23.7056H24.0042V20.499H22.0297V23.7056ZM29.6917 58.1537H24.0689V56.1566H34.0009V58.1537H31.8491V60.0017H29.6861V58.1537H29.6917ZM33.8968 24.6197V27.3369H31.8772V24.0234H33.0164V22.9715H33.8996V24.6197V24.6141L33.8968 24.6197ZM46.4643 63.0226V64.5894H40.5349V62.5445H42.4842V60.8427H44.4672V59.9989H46.5346V58.0553H50.3656V56.1116H52.0561V54.078H53.8647V48.8575H55.7774V46.9532H57.6732V43.426H55.7549V41.3333H57.6732V35.0917H55.7015V29.334H53.8507V26.9065H56.3793V27.1231H58.2105V31.1341H59.901V41.3277H60.4607V43.4204H59.901V46.9476H60.9923V49.8785H59.9178V54.7699H58.1626V57.0624H57.7548V58.6206H55.8646V60.3674H53.8675V61.3659H51.9745V62.5051H51.9042L51.8901 63.0255H46.4699L46.4643 63.0339V63.0226ZM38.5463 36.9988H42.307V33.9076H38.5463V36.9988ZM40.3324 27.1147H42.2817V25.3286H40.3324V27.1147Z" fill="#E77560"/>
<path d="M25.7454 15.5068H23.9987V19.9707H25.7454V15.5068Z" fill="#C76657"/>
<path d="M40.2537 44.9795H29.6213V46.9316H40.2537V44.9795Z" fill="#C76657"/>
<path d="M31.8885 45.6152H22.2322V48.698H31.8885V45.6152Z" fill="#C76657"/>
<path d="M31.866 48.1123H23.993V50.416H31.866V48.1123Z" fill="#C76657"/>
<path d="M38.4226 46.5371H36.0261V48.6692H38.4226V46.5371Z" fill="#C76657"/>
<path d="M53.8254 13.3662H52.0618V24.578H53.8254V13.3662Z" fill="#C76657"/>
<path d="M52.0955 15.4814H50.2334V25.7228H52.0955V15.4814Z" fill="#C76657"/>
<path d="M50.3965 17.6191H48.3151V23.7876H50.3965V17.6191Z" fill="#C76657"/>
<path d="M48.3742 19.5488H46.3546V22.882H48.3742V19.5488Z" fill="#C76657"/>
<path d="M27.8437 41.0215H22.0465V43.252H27.8437V41.0215Z" fill="#C76657"/>
<path d="M29.7227 39.3906H27.7903V41.4355H29.7227V39.3906Z" fill="#C76657"/>
<path d="M19.9088 40.1465H18.1171V41.7863H19.9088V40.1465Z" fill="#483E62"/>
<path d="M33.804 41.5H31.9645V43.4521H33.804V41.5Z" fill="#483E62"/>
<path d="M36.1104 40.1162H34.2849V41.787H36.1104V40.1162Z" fill="#483E62"/>
<path d="M55.8562 59.5381H53.8647V60.7448H55.8562V59.5381Z" fill="#483E62"/>
<path d="M51.9323 60.7441V61.9508V62.4262H47.6878H47.0858H46.4811V64.3136H47.6878V63.6329H51.9323V62.5106H53.1389V61.9508H53.8646V60.7441H53.1389H51.9323Z" fill="#483E62"/>
<path d="M22.0409 60.6795V61.8861H23.9282V63.0928H28.4062V64.2939H29.6129V63.0928V62.8087V61.8861H24.0211V60.6795H22.0943V59.4756H20.0579V60.6795H22.0409Z" fill="#483E62"/>
<path d="M46.4643 64.3076H29.6129V65.5143H46.4643V64.3076Z" fill="#483E62"/>
<path d="M18.0073 58.9557V59.4761H20.0578V58.9557V58.2694V57.749H18.0073V58.2694V58.9557Z" fill="#483E62"/>
<path d="M58.9024 30.3269V27.6041V26.4959V26.3974H57.015V13.5093V12.3898V12.3026H55.0404V11.3913V10.1846H53.8337H49.0745V10.539V11.3913V12.3026H47.3644V12.4179V13.5093V14.3925H45.5979V14.5022V15.5992V16.5865H30.8308V15.4304V14.5106V14.2237H28.9406V13.498V12.567V12.2913H27.1489V11.6669V11.0706V10.4602H22.1168V10.4687H20.9101V22.4989H19.996H19.7147H18.7921V24.4454H17.9708H17.5742H16.7669V30.3747H14.5983V31.5026V31.5814V46.762V47.0067V47.9687H16.8007V57.7487H18.0074V47.9687V47.603V46.762H15.8049V31.5814H16.7669H17.0116H17.9708V25.6521H18.7921H19.996V24.4454V23.7056H21.9537V23.7028H22.1168V11.6669H25.9422V12.2913H25.9338V13.498H25.9422H27.1489H27.734V14.2237V14.9944V15.4304H29.627V16.5865V17.7931H30.8308H45.8398V17.7847H46.8046V15.5992H48.571V15.4923V14.3925V13.5093H49.0745H49.5021H50.2812V11.3913H53.8337V12.3026V12.9045V13.5093H55.8083V26.3974H52.0251V27.6041H57.6957V30.3269V31.2185V31.5308H59.7153V53.7855H58.9586H58.4664H57.752V57.684H57.0628H55.9011H55.8561V59.5376H57.0628V58.8907H57.752V57.7712H58.9586V54.9922H60.922V54.6828V53.7855V31.5308V30.5154V30.3269H58.9024Z" fill="#483E62"/>
<path d="M42.2761 35.1965V34.1277H43.0018V33.4948H44.2591V29.931H43.0018V28.6821H42.2395V27.543H36.8418V28.0183H36.8361V29.1631H35.2047V30.2376H34.2681V33.7958H35.756V33.7902L35.7617 33.7958H35.756V35.1994H42.2761V35.1965ZM36.0879 30.2404L36.0936 30.2461H36.8643V29.7172H38.251V29.1406H40.459V30.6455H38.4141V33.7423H36.0907V30.2404H36.0879Z" fill="#483E62"/>
<path d="M29.6298 46.9957V48.6721H36.0598V46.9169H38.4253V44.9986H42.3717V43.0944H38.3944V44.9761H36.0288V46.8241H29.7648V46.7172L29.7704 46.7088H29.7788V44.9789H27.7677V43.9241H25.8803V41.4264H27.8465V39.5868H29.7254V34.5801H21.5346V35.2411H20.0832V39.5699H21.3405V41.4292H23.9226V43.9269H22.0606V44.9817H20.0579V43.0775H17.9905V45.1139H19.996V46.9929H29.6241L29.6298 46.9957ZM22.0465 36.9119V35.8683H27.779V36.9119H22.0465Z" fill="#483E62"/>
<path d="M25.5006 33.4691V32.299H26.4457V31.9643H27.8943V27.9645H26.4654V26.4766H22.9607V27.5595H21.3461V28.6649H20.8567V29.9278H20.2463V32.2203H21.588V33.4691H25.5034H25.5006ZM22.114 29.9278V28.7268H22.955V28.0714H26.1222V29.1768H24.0717V32.0965H22.114V29.9278Z" fill="#483E62"/>
</g>
<defs>
<filter id="filter0_d_161_9917" x="0" y="0" width="75" height="76.5847" filterUnits="userSpaceOnUse" color-interpolation-filters="sRGB">
<feFlood flood-opacity="0" result="BackgroundImageFix"/>
<feColorMatrix in="SourceAlpha" type="matrix" values="0 0 0 0 0 0 0 0 0 0 0 0 0 0 0 0 0 0 127 0" result="hardAlpha"/>
<feOffset dy="1.93624"/>
<feComposite in2="hardAlpha" operator="out"/>
<feColorMatrix type="matrix" values="0 0 0 0 0.27451 0 0 0 0 0.247059 0 0 0 0 0.376471 0 0 0 1 0"/>
<feBlend mode="normal" in2="BackgroundImageFix" result="effect1_dropShadow_161_9917"/>
<feBlend mode="normal" in="SourceGraphic" in2="effect1_dropShadow_161_9917" result="shape"/>
</filter>
</defs>
</svg>
