<svg width="66" height="72" viewBox="0 0 66 72" fill="none" xmlns="http://www.w3.org/2000/svg">
<path d="M29.9206 51.8398H26.9252V54.7198H29.9206V51.8398Z" fill="#E77560"/>
<path d="M29.9206 48.96H26.9252V51.84H29.9206V48.96Z" fill="#E77560"/>
<path d="M26.9253 48.96H23.9366V51.84H26.9253V48.96Z" fill="#E77560"/>
<path d="M23.9366 48.96H20.9412V51.84H23.9366V48.96Z" fill="#E77560"/>
<path d="M44.8778 31.6803V28.8003H41.8891V31.6803H38.8936V34.5603H35.9049H32.9095H29.9208V37.4403H26.9253H23.9366V40.3203H26.9253H29.9208H32.9095H35.9049V43.2003H38.8936H41.8891H44.8778H47.8732V40.3203V37.4403V34.5603V31.6803H44.8778Z" fill="#FEFFDC"/>
<path d="M17.9525 34.5601H14.957V37.4401V40.3201V43.2001H17.9525V40.3201H20.9412V37.4401H17.9525V34.5601Z" fill="#FEFFDC"/>
<path d="M35.9049 23.0402V20.1602H32.9095H29.9208V23.0402H32.9095H35.9049Z" fill="#FEFFDC"/>
<path d="M32.9095 28.7999H35.9049V25.9199H32.9095H29.9208V28.7999V31.6799H32.9095V28.7999Z" fill="#FEFFDC"/>
<path d="M20.9412 25.9199H17.9525V28.7999H20.9412V25.9199Z" fill="#FEFFDC"/>
<path d="M23.9366 28.8H26.9253V25.92V23.04H23.9366H20.9412V25.92H23.9366V28.8Z" fill="#FEFFDC"/>
<path d="M14.9571 25.9199H11.9684V28.7999H14.9571V25.9199Z" fill="#FFE3B8"/>
<path d="M5.98413 23.0402V25.9202H8.97281V23.0402V20.1602H5.98413V23.0402Z" fill="#FFE3B8"/>
<path d="M17.9525 31.6802H14.957V34.5602H17.9525V31.6802Z" fill="#FFE3B8"/>
<path d="M26.9253 28.8003H23.9366V31.6803H26.9253V28.8003Z" fill="#FFE3B8"/>
<path d="M29.9208 31.6802H26.9253V34.5602H29.9208V31.6802Z" fill="#FFE3B8"/>
<path d="M38.8936 34.5602V31.6802H35.9049H32.9094V34.5602H35.9049H38.8936Z" fill="#FFE3B8"/>
<path d="M23.9366 51.8403H20.9412V54.7203H23.9366H26.9253V51.8403H23.9366Z" fill="#FFE3B8"/>
<path d="M32.9094 43.2003V40.3203H29.9208H26.9253V43.2003H29.9208H32.9094Z" fill="#FFE3B8"/>
<path d="M47.8733 31.6802V34.5602V37.4402V40.3202V43.2002H44.8778H41.8891H38.8936H35.905H32.9095V46.0802H29.9208H26.9253V43.2002H23.9367H20.9412H17.9525V46.0802V48.9602V51.8402H20.9412V48.9602H23.9367H26.9253H29.9208V51.8402V54.7202H26.9253V57.6002H29.9208H32.9095H35.905H38.8936V54.7202H41.8891V51.8402H44.8778H47.8733V48.9602H50.8619V46.0802V43.2002V40.3202V37.4402V34.5602V31.6802H47.8733Z" fill="#FFE3B8"/>
<path d="M59.8414 25.9199V28.7999H59.8346H56.8459V31.6799H59.8346V34.5599H59.8414V37.4399V40.3199V43.1999V46.0799H62.8301V43.1999V40.3199V37.4399V34.5599V31.6799V28.7999V25.9199H59.8414Z" fill="#FFD490"/>
<path d="M56.846 31.6802H53.8573V34.5602H56.846V31.6802Z" fill="#FFD490"/>
<path d="M56.8459 48.9601V51.8401H59.8414V48.9601V46.0801H56.8459V48.9601Z" fill="#FFD490"/>
<path d="M53.8573 54.7198V57.5998H56.846V54.7198V51.8398H53.8573V54.7198Z" fill="#FFD490"/>
<path d="M53.8573 57.6001H50.8618V60.4801H53.8573V57.6001Z" fill="#FFD490"/>
<path d="M44.8777 60.48V63.36H47.8732H50.8618V60.48H47.8732H44.8777Z" fill="#FFD490"/>
<path d="M44.8777 63.3599H41.889V66.2399H44.8777V63.3599Z" fill="#FFD490"/>
<path d="M35.9048 66.2402H32.9094H29.9207H26.9252H23.9365V69.1202H26.9252H29.9207H32.9094H35.9048H38.8935H41.889V66.2402H38.8935H35.9048Z" fill="#FFD490"/>
<path d="M29.9206 60.48H26.9252V63.36H29.9206V60.48Z" fill="#FFD490"/>
<path d="M23.9366 63.3599H20.9412V66.2399H23.9366V63.3599Z" fill="#FFD490"/>
<path d="M17.9524 60.48H14.9569V63.36H17.9524H20.9411V60.48H17.9524Z" fill="#FFD490"/>
<path d="M23.9365 11.5198V8.63977H26.9252V5.75977H23.9365H20.9411V8.63977H17.9524V11.5198H20.9411H23.9365Z" fill="#FFD490"/>
<path d="M50.8617 17.2801H53.8572V14.4001V11.5201H50.8617V8.64014H47.873V11.5201V14.4001V17.2801V20.1601H50.8617V17.2801Z" fill="#FFD490"/>
<path d="M14.957 23.0399H17.9524V20.1599V17.2799V14.3999H14.957V17.2799H11.9683V20.1599H8.9728V23.0399V25.9199H5.98412H2.98865V28.7999V31.6799V34.5599H5.98412V31.6799H8.9728V28.7999H11.9683V25.9199H14.957V23.0399Z" fill="#FFD490"/>
<path d="M53.8573 34.5603V37.4403V40.3203V43.2003V46.0803V48.9603H50.8618V51.8403H47.8732V54.7203H44.8777V57.6003H41.889H38.8935V60.4803H35.9049H32.9094H29.9207V63.3603H26.9252V60.4803V57.6003H23.9366H20.9411V54.7203H17.9524V51.8403H14.9569V48.9603V46.0803V43.2003H11.9683V40.3203V37.4403V34.5603V31.6803V28.8003H8.9728V31.6803H5.98412V34.5603H2.98865V37.4403V40.3203V43.2003V46.0803H5.98412V48.9603V51.8403H8.9728V54.7203V57.6003H11.9683V60.4803H14.9569H17.9524H20.9411V63.3603H23.9366V66.2403H26.9252H29.9207H32.9094H35.9049H38.8935H41.889V63.3603H44.8777V60.4803H47.8732H50.8618V57.6003H53.8573V54.7203V51.8403H56.846V48.9603V46.0803H59.8415V43.2003V40.3203V37.4403V34.5603V31.6803H56.846V34.5603H53.8573Z" fill="#FFB379"/>
<path d="M11.9683 17.2801H14.9569V14.4001H17.9524V11.5201V8.64014H14.9569V11.5201H11.9683V14.4001H8.97278V17.2801V20.1601H11.9683V17.2801Z" fill="#FFB379"/>
<path d="M56.8459 20.1599V17.2799V14.3999H53.8572V17.2799H50.8617V20.1599H47.873V23.0399V25.9199H50.8617V28.7999H53.8572V31.6799H56.8459V28.7999H59.8413V25.9199V23.0399V20.1599H56.8459Z" fill="#FFB379"/>
<path d="M44.8777 11.5204H47.8731V8.64037H44.8777V5.76037H41.889V2.88037H38.8935H35.9048H32.9094H29.9207H26.9252H23.9365V5.76037H26.9252V8.64037H23.9365V11.5204H26.9252V14.4004H29.9139H29.9207H32.9094H35.898H35.9048H38.8935V11.5204H41.8822V14.4004H41.889V11.5204H44.8777Z" fill="#FFB379"/>
<path d="M47.8732 25.9199H44.8778V23.0399V20.1599V17.2799V14.3999H41.8891V17.2799H38.8936H35.9049H35.8981H32.9095H29.9208H29.914H26.9253H23.9366V14.3999H20.9412V17.2799V20.1599V23.0399H23.9366H26.9253V25.9199H29.9208V23.0399V20.1599H32.9095H35.9049V23.0399V25.9199H38.8936V28.7999V31.6799H41.8891V28.7999H44.8778V31.6799H47.8732H50.8619V28.7999H47.8732V25.9199Z" fill="#FFB379"/>
<path d="M41.8891 51.8398V54.7198H38.8937V57.5998H41.8891H44.8778V54.7198H47.8733V51.8398H44.8778H41.8891Z" fill="#C66656"/>
<path d="M44.8778 17.28V20.16V23.04V25.92H47.8733V23.04V20.16V17.28V14.4V11.52H44.8778H41.8892V14.4H44.8778V17.28Z" fill="#C66656"/>
<path d="M50.862 25.9199H47.8733V28.7999H50.862V25.9199Z" fill="#C66656"/>
<path d="M50.8619 28.7998V31.6798V34.5598V37.4398V40.3198V43.1998V46.0798V48.9598H53.8574V46.0798V43.1998V40.3198V37.4398V34.5598V31.6798V28.7998H50.8619Z" fill="#C66656"/>
<path d="M50.862 48.96H47.8733V51.84H50.862V48.96Z" fill="#C66656"/>
<path d="M32.9096 57.6001H29.9209H26.9254V60.4801H29.9209H32.9096H35.905H38.8937V57.6001H35.905H32.9096Z" fill="#C66656"/>
<path d="M23.9366 54.7202H20.9412V57.6002H23.9366H26.9253V54.7202H23.9366Z" fill="#C66656"/>
<path d="M20.9412 51.8398H17.9525V54.7198H20.9412V51.8398Z" fill="#C66656"/>
<path d="M17.9525 46.0802V43.2002H14.957V46.0802V48.9602V51.8402H17.9525V48.9602V46.0802Z" fill="#C66656"/>
<path d="M14.9571 37.4398V34.5598V31.6798V28.7998H11.9684V31.6798V34.5598V37.4398V40.3198V43.1998H14.9571V40.3198V37.4398Z" fill="#C66656"/>
<path d="M17.9525 25.92H20.9412V23.04V20.16V17.28V14.4H23.9367V17.28H26.9253H29.914H29.9208H32.9095H35.8982H35.905H38.8936H41.8891V14.4H41.8823V11.52H38.8936V14.4H35.905H35.8982H32.9095H29.9208H29.914H26.9253V11.52H23.9367H20.9412H17.9525V14.4V17.28V20.16V23.04H14.957V25.92V28.8H17.9525V25.92Z" fill="#C66656"/>
<path d="M56.8459 20.1599H59.8414V17.2799V14.3999H56.8459V17.2799V20.1599Z" fill="#473D61"/>
<path d="M56.8461 57.6001H53.8574V60.4801H56.8461V57.6001Z" fill="#473D61"/>
<path d="M56.8461 11.52H53.8574V14.4H56.8461V11.52Z" fill="#473D61"/>
<path d="M53.8574 60.48H50.8619V63.36H53.8574V60.48Z" fill="#473D61"/>
<path d="M53.8574 8.64014H50.8619V11.5201H53.8574V8.64014Z" fill="#473D61"/>
<path d="M47.8732 8.63977H50.8618V5.75977H47.8732H44.8777V8.63977H47.8732Z" fill="#473D61"/>
<path d="M44.8777 63.3599V66.2399H47.8732H50.8618V63.3599H47.8732H44.8777Z" fill="#473D61"/>
<path d="M44.8777 66.2402H41.889V69.1202H44.8777V66.2402Z" fill="#473D61"/>
<path d="M44.8777 2.88037H41.889V5.76037H44.8777V2.88037Z" fill="#473D61"/>
<path d="M29.9208 2.88H32.9095H35.9049H38.8936H41.8891V0H38.8936H35.9049H32.9095H29.9208H26.9253H23.9366V2.88H26.9253H29.9208Z" fill="#473D61"/>
<path d="M35.9049 69.1196H32.9095H29.9208H26.9253H23.9366V71.9996H26.9253H29.9208H32.9095H35.9049H38.8936H41.8891V69.1196H38.8936H35.9049Z" fill="#473D61"/>
<path d="M23.9366 66.2402H20.9412V69.1202H23.9366V66.2402Z" fill="#473D61"/>
<path d="M23.9366 2.88037H20.9412V5.76037H23.9366V2.88037Z" fill="#473D61"/>
<path d="M17.9525 63.3599H14.957V66.2399H17.9525H20.9412V63.3599H17.9525Z" fill="#473D61"/>
<path d="M20.9412 8.63977V5.75977H17.9525H17.9457H14.957V8.63977H17.9525H20.9412Z" fill="#473D61"/>
<path d="M14.9569 60.48H11.9683V63.36H14.9569V60.48Z" fill="#473D61"/>
<path d="M14.9569 8.64014H11.9683V11.5201H14.9569V8.64014Z" fill="#473D61"/>
<path d="M11.9683 57.6001H8.97278V60.4801H11.9683V57.6001Z" fill="#473D61"/>
<path d="M11.9683 11.52H8.97278V14.4H11.9683V11.52Z" fill="#473D61"/>
<path d="M8.97281 51.8398H5.98413V54.7198V57.5998H8.97281V54.7198V51.8398Z" fill="#473D61"/>
<path d="M8.97281 17.2799V14.3999H5.98413V17.2799V20.1599H8.97281V17.2799Z" fill="#473D61"/>
<path d="M5.98412 46.0801H2.98865V48.9601V51.8401H5.98412V48.9601V46.0801Z" fill="#473D61"/>
<path d="M5.98412 23.0402V20.1602H2.98865V23.0402V25.9202H5.98412V23.0402Z" fill="#473D61"/>
<path d="M2.98868 40.3199V37.4399V34.5599V31.6799V28.7999V25.9199H0V28.7999V31.6799V34.5599V37.4399V40.3199V43.1999V46.0799H2.98868V43.1999V40.3199Z" fill="#473D61"/>
<path d="M62.8302 25.9199V28.7999V31.6799V34.5599V37.4399V40.3199V43.1999V46.0799H65.8257V43.1999V40.3199V37.4399V34.5599V31.6799V28.7999V25.9199H62.8302Z" fill="#473D61"/>
<path d="M59.8416 48.9601V51.8401H62.8302V48.9601V46.0801H59.8416V48.9601Z" fill="#473D61"/>
<path d="M59.8416 25.9202H62.8302V23.0402V20.1602H59.8416V23.0402V25.9202Z" fill="#473D61"/>
<path d="M35.9049 40.3198H32.9094V43.1998H35.9049V40.3198Z" fill="#473D61"/>
<path d="M29.9208 46.0802H32.9094V43.2002H29.9208H26.9253V46.0802H29.9208Z" fill="#473D61"/>
<path d="M23.9367 28.7999V25.9199H20.9412V28.7999H17.9525H14.957V31.6799H17.9525V34.5599V37.4399H20.9412V40.3199H17.9525V43.1999H20.9412H23.9367H26.9253V40.3199H23.9367V37.4399H26.9253V34.5599V31.6799H23.9367V28.7999Z" fill="#473D61"/>
<path d="M32.9095 31.6802H29.9208V34.5602H32.9095V31.6802Z" fill="#473D61"/>
<path d="M29.9208 25.9199H26.9253V28.7999V31.6799H29.9208V28.7999V25.9199Z" fill="#473D61"/>
<path d="M35.9049 25.92V23.04H32.9095H29.9208V25.92H32.9095H35.9049Z" fill="#473D61"/>
<path d="M35.9049 28.7999H32.9094V31.6799H35.9049H38.8936V28.7999V25.9199H35.9049V28.7999Z" fill="#473D61"/>
<path d="M56.8459 54.7198V57.5998H59.8414V54.7198V51.8398H56.8459V54.7198Z" fill="#473D61"/>
</svg>
