<svg width="66" height="72" viewBox="0 0 66 72" fill="none" xmlns="http://www.w3.org/2000/svg">
<path d="M65.8273 54.7202H62.8345V57.6001H65.8273V54.7202Z" fill="#473D61"/>
<path d="M65.8273 51.8403H62.8345V54.7203H65.8273V51.8403Z" fill="#473D61"/>
<path d="M65.8273 48.9595H62.8345V51.8401H65.8273V48.9595Z" fill="#473D61"/>
<path d="M65.8273 46.0806H62.8345V48.9605H65.8273V46.0806Z" fill="#473D61"/>
<path d="M65.8273 43.1997H62.8345V46.0796H65.8273V43.1997Z" fill="#473D61"/>
<path d="M62.8356 60.48H59.8435V63.3599H62.8356V60.48Z" fill="#473D61"/>
<path d="M62.8356 57.5996H59.8435V60.4802H62.8356V57.5996Z" fill="#473D61"/>
<path d="M62.8356 54.7202H59.8435V57.6001H62.8356V54.7202Z" fill="#FFE3B8"/>
<path d="M62.8356 51.8403H59.8435V54.7203H62.8356V51.8403Z" fill="#FFE3B8"/>
<path d="M62.8356 48.9595H59.8435V51.8401H62.8356V48.9595Z" fill="#FFE3B8"/>
<path d="M62.8356 46.0806H59.8435V48.9605H62.8356V46.0806Z" fill="#FFE3B8"/>
<path d="M62.8356 43.1997H59.8435V46.0796H62.8356V43.1997Z" fill="#FFE3B8"/>
<path d="M62.8356 40.3203H59.8435V43.2002H62.8356V40.3203Z" fill="#473D61"/>
<path d="M62.8356 37.4404H59.8435V40.321H62.8356V37.4404Z" fill="#473D61"/>
<path d="M62.8356 34.5605H59.8435V37.4405H62.8356V34.5605Z" fill="#473D61"/>
<path d="M62.8356 25.9209H59.8435V28.8008H62.8356V25.9209Z" fill="#473D61"/>
<path d="M62.8356 23.0405H59.8435V25.9204H62.8356V23.0405Z" fill="#473D61"/>
<path d="M62.8356 20.1597H59.8435V23.0403H62.8356V20.1597Z" fill="#473D61"/>
<path d="M62.8356 17.2803H59.8435V20.1602H62.8356V17.2803Z" fill="#473D61"/>
<path d="M62.8356 14.4004H59.8435V17.2803H62.8356V14.4004Z" fill="#473D61"/>
<path d="M62.8356 11.5205H59.8435V14.4004H62.8356V11.5205Z" fill="#473D61"/>
<path d="M62.8356 8.64014H59.8435V11.5208H62.8356V8.64014Z" fill="#473D61"/>
<path d="M59.8433 63.3599H56.8512V66.2398H59.8433V63.3599Z" fill="#473D61"/>
<path d="M59.8433 60.48H56.8512V63.3599H59.8433V60.48Z" fill="#FFE3B8"/>
<path d="M59.8433 57.5996H56.8512V60.4802H59.8433V57.5996Z" fill="#FFE3B8"/>
<path d="M59.8433 54.7202H56.8512V57.6001H59.8433V54.7202Z" fill="#FFE3B8"/>
<path d="M59.8433 51.8389H56.8512V54.7188H59.8433V51.8389Z" fill="#FFE3B8"/>
<path d="M59.8433 48.9595H56.8512V51.8401H59.8433V48.9595Z" fill="#FEFFDC"/>
<path d="M59.8433 46.0806H56.8512V48.9605H59.8433V46.0806Z" fill="#FEFFDC"/>
<path d="M59.8433 43.1997H56.8512V46.0796H59.8433V43.1997Z" fill="#FFB379"/>
<path d="M59.8433 40.3203H56.8512V43.2002H59.8433V40.3203Z" fill="#FFB379"/>
<path d="M59.8433 37.4404H56.8512V40.321H59.8433V37.4404Z" fill="#FFB379"/>
<path d="M59.8433 34.5605H56.8512V37.4405H59.8433V34.5605Z" fill="#FFB379"/>
<path d="M59.8433 31.6807H56.8512V34.5606H59.8433V31.6807Z" fill="#473D61"/>
<path d="M59.8433 28.7993H56.8512V31.6799H59.8433V28.7993Z" fill="#473D61"/>
<path d="M59.8433 25.9209H56.8512V28.8008H59.8433V25.9209Z" fill="#FFB379"/>
<path d="M59.8433 23.0405H56.8512V25.9204H59.8433V23.0405Z" fill="#FFB379"/>
<path d="M59.8433 20.1597H56.8512V23.0403H59.8433V20.1597Z" fill="#FFB379"/>
<path d="M59.8433 17.2803H56.8512V20.1602H59.8433V17.2803Z" fill="#FFB379"/>
<path d="M59.8433 14.4004H56.8512V17.2803H59.8433V14.4004Z" fill="#FFB379"/>
<path d="M59.8433 11.5205H56.8512V14.4004H59.8433V11.5205Z" fill="#FFB379"/>
<path d="M59.8433 8.64014H56.8512V11.5208H59.8433V8.64014Z" fill="#FFB379"/>
<path d="M59.8433 5.76074H56.8512V8.64067H59.8433V5.76074Z" fill="#473D61"/>
<path d="M59.8433 2.88135H56.8512V5.76127H59.8433V2.88135Z" fill="#473D61"/>
<path d="M56.8505 66.2407H53.8577V69.1213H56.8505V66.2407Z" fill="#473D61"/>
<path d="M56.8505 63.3599H53.8577V66.2398H56.8505V63.3599Z" fill="#FFE3B8"/>
<path d="M56.8505 60.48H53.8577V63.3599H56.8505V60.48Z" fill="#FFE3B8"/>
<path d="M56.8505 57.5996H53.8577V60.4802H56.8505V57.5996Z" fill="#FEFFDC"/>
<path d="M56.8505 54.7202H53.8577V57.6001H56.8505V54.7202Z" fill="#FEFFDC"/>
<path d="M56.8505 51.8389H53.8577V54.7188H56.8505V51.8389Z" fill="#FEFFDC"/>
<path d="M56.8505 48.9595H53.8577V51.8401H56.8505V48.9595Z" fill="#FEFFDC"/>
<path d="M56.8505 46.0806H53.8577V48.9605H56.8505V46.0806Z" fill="#FFB379"/>
<path d="M56.8505 43.1997H53.8577V46.0796H56.8505V43.1997Z" fill="#FFB379"/>
<path d="M56.8505 40.3203H53.8577V43.2002H56.8505V40.3203Z" fill="#FFB379"/>
<path d="M56.8505 37.4404H53.8577V40.321H56.8505V37.4404Z" fill="#FFB379"/>
<path d="M56.8505 34.5605H53.8577V37.4405H56.8505V34.5605Z" fill="#FFD490"/>
<path d="M56.8505 31.6807H53.8577V34.5606H56.8505V31.6807Z" fill="#FFD490"/>
<path d="M56.8505 28.7993H53.8577V31.6799H56.8505V28.7993Z" fill="#FFD490"/>
<path d="M56.8505 25.9209H53.8577V28.8008H56.8505V25.9209Z" fill="#E77560"/>
<path d="M56.8505 23.0405H53.8577V25.9204H56.8505V23.0405Z" fill="#E77560"/>
<path d="M56.8505 20.1597H53.8577V23.0403H56.8505V20.1597Z" fill="#C66656"/>
<path d="M56.8505 17.2803H53.8577V20.1602H56.8505V17.2803Z" fill="#C66656"/>
<path d="M56.8505 14.4004H53.8577V17.2803H56.8505V14.4004Z" fill="#C66656"/>
<path d="M56.8505 11.5205H53.8577V14.4004H56.8505V11.5205Z" fill="#FFD490"/>
<path d="M56.8505 8.64014H53.8577V11.5208H56.8505V8.64014Z" fill="#FFD490"/>
<path d="M56.8505 5.76074H53.8577V8.64067H56.8505V5.76074Z" fill="#FFB379"/>
<path d="M56.8505 2.88135H53.8577V5.76127H56.8505V2.88135Z" fill="#FFB379"/>
<path d="M56.8505 0.000488281H53.8577V2.88111H56.8505V0.000488281Z" fill="#473D61"/>
<path d="M53.8581 69.1201H50.866V72H53.8581V69.1201Z" fill="#473D61"/>
<path d="M53.8581 66.2407H50.866V69.1213H53.8581V66.2407Z" fill="#FFE3B8"/>
<path d="M53.8581 63.3599H50.866V66.2398H53.8581V63.3599Z" fill="#FFE3B8"/>
<path d="M53.8581 60.48H50.866V63.3599H53.8581V60.48Z" fill="#FEFFDC"/>
<path d="M53.8581 57.5996H50.866V60.4802H53.8581V57.5996Z" fill="#FEFFDC"/>
<path d="M53.8581 54.7202H50.866V57.6001H53.8581V54.7202Z" fill="#FEFFDC"/>
<path d="M53.8581 51.8389H50.866V54.7188H53.8581V51.8389Z" fill="#FEFFDC"/>
<path d="M53.8581 48.9595H50.866V51.8401H53.8581V48.9595Z" fill="#FEFFDC"/>
<path d="M53.8581 46.0806H50.866V48.9605H53.8581V46.0806Z" fill="#FFB379"/>
<path d="M53.8581 43.1997H50.866V46.0796H53.8581V43.1997Z" fill="#FFB379"/>
<path d="M53.8581 40.3203H50.866V43.2002H53.8581V40.3203Z" fill="#FFB379"/>
<path d="M53.8581 37.4404H50.866V40.321H53.8581V37.4404Z" fill="#FFD490"/>
<path d="M53.8581 34.5605H50.866V37.4405H53.8581V34.5605Z" fill="#FFD490"/>
<path d="M53.8581 31.6807H50.866V34.5606H53.8581V31.6807Z" fill="#FFD490"/>
<path d="M53.8581 28.7993H50.866V31.6799H53.8581V28.7993Z" fill="#FFD490"/>
<path d="M53.8581 25.9209H50.866V28.8008H53.8581V25.9209Z" fill="#FFD490"/>
<path d="M53.8581 23.0405H50.866V25.9204H53.8581V23.0405Z" fill="#FFD490"/>
<path d="M53.8581 20.1597H50.866V23.0403H53.8581V20.1597Z" fill="#E77560"/>
<path d="M53.8581 17.2803H50.866V20.1602H53.8581V17.2803Z" fill="#C66656"/>
<path d="M53.8581 14.4004H50.866V17.2803H53.8581V14.4004Z" fill="#C66656"/>
<path d="M53.8581 11.5205H50.866V14.4004H53.8581V11.5205Z" fill="#C66656"/>
<path d="M53.8581 8.64014H50.866V11.5208H53.8581V8.64014Z" fill="#FFD490"/>
<path d="M53.8581 5.76074H50.866V8.64067H53.8581V5.76074Z" fill="#FFD490"/>
<path d="M53.8581 2.88135H50.866V5.76127H53.8581V2.88135Z" fill="#473D61"/>
<path d="M50.8671 69.1201H47.875V72H50.8671V69.1201Z" fill="#473D61"/>
<path d="M50.8671 66.2407H47.875V69.1213H50.8671V66.2407Z" fill="#FFE3B8"/>
<path d="M50.8671 63.3599H47.875V66.2398H50.8671V63.3599Z" fill="#FEFFDC"/>
<path d="M50.8671 60.48H47.875V63.3599H50.8671V60.48Z" fill="#FEFFDC"/>
<path d="M50.8671 57.5996H47.875V60.4802H50.8671V57.5996Z" fill="#FEFFDC"/>
<path d="M50.8671 54.7202H47.875V57.6001H50.8671V54.7202Z" fill="#FEFFDC"/>
<path d="M50.8671 51.8389H47.875V54.7188H50.8671V51.8389Z" fill="#473D61"/>
<path d="M50.8671 48.9595H47.875V51.8401H50.8671V48.9595Z" fill="#FEFFDC"/>
<path d="M50.8671 46.0806H47.875V48.9605H50.8671V46.0806Z" fill="#FFB379"/>
<path d="M50.8671 43.1997H47.875V46.0796H50.8671V43.1997Z" fill="#FFB379"/>
<path d="M50.8671 40.3203H47.875V43.2002H50.8671V40.3203Z" fill="#FFD490"/>
<path d="M50.8671 37.4404H47.875V40.321H50.8671V37.4404Z" fill="#FFD490"/>
<path d="M50.8671 34.5605H47.875V37.4405H50.8671V34.5605Z" fill="#FFD490"/>
<path d="M50.8671 31.6807H47.875V34.5606H50.8671V31.6807Z" fill="#473D61"/>
<path d="M50.8671 28.7993H47.875V31.6799H50.8671V28.7993Z" fill="#FFD490"/>
<path d="M50.8671 25.9209H47.875V28.8008H50.8671V25.9209Z" fill="#FFD490"/>
<path d="M50.8671 23.0405H47.875V25.9204H50.8671V23.0405Z" fill="#FFD490"/>
<path d="M50.8671 20.1597H47.875V23.0403H50.8671V20.1597Z" fill="#FFD490"/>
<path d="M50.8671 17.2803H47.875V20.1602H50.8671V17.2803Z" fill="#E77560"/>
<path d="M50.8671 14.4004H47.875V17.2803H50.8671V14.4004Z" fill="#C66656"/>
<path d="M50.8671 11.5205H47.875V14.4004H50.8671V11.5205Z" fill="#FFD490"/>
<path d="M50.8671 8.64014H47.875V11.5208H50.8671V8.64014Z" fill="#FFD490"/>
<path d="M50.8671 5.76074H47.875V8.64067H50.8671V5.76074Z" fill="#473D61"/>
<path d="M47.8749 69.1201H44.8821V72H47.8749V69.1201Z" fill="#473D61"/>
<path d="M47.8749 66.2407H44.8821V69.1213H47.8749V66.2407Z" fill="#FFE3B8"/>
<path d="M47.8749 63.3599H44.8821V66.2398H47.8749V63.3599Z" fill="#FEFFDC"/>
<path d="M47.8749 60.48H44.8821V63.3599H47.8749V60.48Z" fill="#FEFFDC"/>
<path d="M47.8749 57.5996H44.8821V60.4802H47.8749V57.5996Z" fill="#FEFFDC"/>
<path d="M47.8749 54.7202H44.8821V57.6001H47.8749V54.7202Z" fill="#473D61"/>
<path d="M47.8749 51.8389H44.8821V54.7188H47.8749V51.8389Z" fill="#FEFFDC"/>
<path d="M47.8749 48.9595H44.8821V51.8401H47.8749V48.9595Z" fill="#FEFFDC"/>
<path d="M47.8749 46.0806H44.8821V48.9605H47.8749V46.0806Z" fill="#FFB379"/>
<path d="M47.8749 43.1997H44.8821V46.0796H47.8749V43.1997Z" fill="#FFB379"/>
<path d="M47.8749 40.3203H44.8821V43.2002H47.8749V40.3203Z" fill="#FFD490"/>
<path d="M47.8749 37.4404H44.8821V40.321H47.8749V37.4404Z" fill="#FFD490"/>
<path d="M47.8749 34.5605H44.8821V37.4405H47.8749V34.5605Z" fill="#FFD490"/>
<path d="M47.8749 31.6807H44.8821V34.5606H47.8749V31.6807Z" fill="#473D61"/>
<path d="M47.8749 28.7993H44.8821V31.6799H47.8749V28.7993Z" fill="#FFD490"/>
<path d="M47.8749 25.9209H44.8821V28.8008H47.8749V25.9209Z" fill="#FEFFDC"/>
<path d="M47.8749 23.0405H44.8821V25.9204H47.8749V23.0405Z" fill="#FFD490"/>
<path d="M47.8749 20.1597H44.8821V23.0403H47.8749V20.1597Z" fill="#FFD490"/>
<path d="M47.8749 17.2803H44.8821V20.1602H47.8749V17.2803Z" fill="#E77560"/>
<path d="M47.8749 14.4004H44.8821V17.2803H47.8749V14.4004Z" fill="#FFD490"/>
<path d="M47.8749 11.5205H44.8821V14.4004H47.8749V11.5205Z" fill="#FFD490"/>
<path d="M47.8749 8.64014H44.8821V11.5208H47.8749V8.64014Z" fill="#473D61"/>
<path d="M44.882 69.1201H41.8899V72H44.882V69.1201Z" fill="#473D61"/>
<path d="M44.882 66.2407H41.8899V69.1213H44.882V66.2407Z" fill="#FFE3B8"/>
<path d="M44.882 63.3599H41.8899V66.2398H44.882V63.3599Z" fill="#FEFFDC"/>
<path d="M44.882 60.48H41.8899V63.3599H44.882V60.48Z" fill="#473D61"/>
<path d="M44.882 57.5996H41.8899V60.4802H44.882V57.5996Z" fill="#473D61"/>
<path d="M44.882 54.7202H41.8899V57.6001H44.882V54.7202Z" fill="#473D61"/>
<path d="M44.882 51.8389H41.8899V54.7188H44.882V51.8389Z" fill="#FEFFDC"/>
<path d="M44.882 48.9595H41.8899V51.8401H44.882V48.9595Z" fill="#FEFFDC"/>
<path d="M44.882 46.0806H41.8899V48.9605H44.882V46.0806Z" fill="#FFB379"/>
<path d="M44.882 43.1997H41.8899V46.0796H44.882V43.1997Z" fill="#FFB379"/>
<path d="M44.882 40.3203H41.8899V43.2002H44.882V40.3203Z" fill="#FFD490"/>
<path d="M44.882 37.4404H41.8899V40.321H44.882V37.4404Z" fill="#FFD490"/>
<path d="M44.882 34.5605H41.8899V37.4405H44.882V34.5605Z" fill="#FFD490"/>
<path d="M44.882 31.6807H41.8899V34.5606H44.882V31.6807Z" fill="#473D61"/>
<path d="M44.882 28.7993H41.8899V31.6799H44.882V28.7993Z" fill="#FFD490"/>
<path d="M44.882 25.9209H41.8899V28.8008H44.882V25.9209Z" fill="#FEFFDC"/>
<path d="M44.882 23.0405H41.8899V25.9204H44.882V23.0405Z" fill="#FFD490"/>
<path d="M44.882 20.1597H41.8899V23.0403H44.882V20.1597Z" fill="#FFD490"/>
<path d="M44.882 17.2803H41.8899V20.1602H44.882V17.2803Z" fill="#E77560"/>
<path d="M44.882 14.4004H41.8899V17.2803H44.882V14.4004Z" fill="#FFD490"/>
<path d="M44.882 11.5205H41.8899V14.4004H44.882V11.5205Z" fill="#473D61"/>
<path d="M41.8897 69.1201H38.8976V72H41.8897V69.1201Z" fill="#473D61"/>
<path d="M41.8897 66.2407H38.8976V69.1213H41.8897V66.2407Z" fill="#FEFFDC"/>
<path d="M41.8897 63.3599H38.8976V66.2398H41.8897V63.3599Z" fill="#C66656"/>
<path d="M41.8897 60.48H38.8976V63.3599H41.8897V60.48Z" fill="#E77560"/>
<path d="M41.8897 57.5996H38.8976V60.4802H41.8897V57.5996Z" fill="#473D61"/>
<path d="M41.8897 54.7202H38.8976V57.6001H41.8897V54.7202Z" fill="#473D61"/>
<path d="M41.8897 51.8389H38.8976V54.7188H41.8897V51.8389Z" fill="#FEFFDC"/>
<path d="M41.8897 48.9595H38.8976V51.8401H41.8897V48.9595Z" fill="#FEFFDC"/>
<path d="M41.8897 46.0806H38.8976V48.9605H41.8897V46.0806Z" fill="#473D61"/>
<path d="M41.8897 43.1997H38.8976V46.0796H41.8897V43.1997Z" fill="#FFB379"/>
<path d="M41.8897 40.3203H38.8976V43.2002H41.8897V40.3203Z" fill="#FFB379"/>
<path d="M41.8897 37.4404H38.8976V40.321H41.8897V37.4404Z" fill="#FFD490"/>
<path d="M41.8897 34.5605H38.8976V37.4405H41.8897V34.5605Z" fill="#473D61"/>
<path d="M41.8897 31.6807H38.8976V34.5606H41.8897V31.6807Z" fill="#FFD490"/>
<path d="M41.8897 28.7993H38.8976V31.6799H41.8897V28.7993Z" fill="#FFD490"/>
<path d="M41.8897 25.9209H38.8976V28.8008H41.8897V25.9209Z" fill="#FFD490"/>
<path d="M41.8897 23.0405H38.8976V25.9204H41.8897V23.0405Z" fill="#FFD490"/>
<path d="M41.8897 20.1597H38.8976V23.0403H41.8897V20.1597Z" fill="#FFD490"/>
<path d="M41.8897 17.2803H38.8976V20.1602H41.8897V17.2803Z" fill="#E77560"/>
<path d="M41.8897 14.4004H38.8976V17.2803H41.8897V14.4004Z" fill="#473D61"/>
<path d="M38.8981 69.1201H35.906V72H38.8981V69.1201Z" fill="#473D61"/>
<path d="M38.8981 66.2407H35.906V69.1213H38.8981V66.2407Z" fill="#FEFFDC"/>
<path d="M38.8981 63.3599H35.906V66.2398H38.8981V63.3599Z" fill="#C66656"/>
<path d="M38.8981 60.48H35.906V63.3599H38.8981V60.48Z" fill="#E77560"/>
<path d="M38.8981 57.5996H35.906V60.4802H38.8981V57.5996Z" fill="#E77560"/>
<path d="M38.8981 54.7202H35.906V57.6001H38.8981V54.7202Z" fill="#473D61"/>
<path d="M38.8981 51.8389H35.906V54.7188H38.8981V51.8389Z" fill="#FEFFDC"/>
<path d="M38.8981 48.9595H35.906V51.8401H38.8981V48.9595Z" fill="#473D61"/>
<path d="M38.8981 46.0806H35.906V48.9605H38.8981V46.0806Z" fill="#473D61"/>
<path d="M38.8981 43.1997H35.906V46.0796H38.8981V43.1997Z" fill="#473D61"/>
<path d="M38.8981 40.3203H35.906V43.2002H38.8981V40.3203Z" fill="#FFB379"/>
<path d="M38.8981 37.4404H35.906V40.321H38.8981V37.4404Z" fill="#FFD490"/>
<path d="M38.8981 34.5605H35.906V37.4405H38.8981V34.5605Z" fill="#FFD490"/>
<path d="M38.8981 31.6807H35.906V34.5606H38.8981V31.6807Z" fill="#FFD490"/>
<path d="M38.8981 28.7993H35.906V31.6799H38.8981V28.7993Z" fill="#FFD490"/>
<path d="M38.8981 25.9209H35.906V28.8008H38.8981V25.9209Z" fill="#FFD490"/>
<path d="M38.8981 23.0405H35.906V25.9204H38.8981V23.0405Z" fill="#FFD490"/>
<path d="M38.8981 20.1597H35.906V23.0403H38.8981V20.1597Z" fill="#FFD490"/>
<path d="M38.8981 17.2803H35.906V20.1602H38.8981V17.2803Z" fill="#473D61"/>
<path d="M35.9058 69.1201H32.913V72H35.9058V69.1201Z" fill="#473D61"/>
<path d="M35.9058 66.2407H32.913V69.1213H35.9058V66.2407Z" fill="#FEFFDC"/>
<path d="M35.9058 63.3599H32.913V66.2398H35.9058V63.3599Z" fill="#C66656"/>
<path d="M35.9058 60.48H32.913V63.3599H35.9058V60.48Z" fill="#E77560"/>
<path d="M35.9058 57.5996H32.913V60.4802H35.9058V57.5996Z" fill="#E77560"/>
<path d="M35.9058 54.7202H32.913V57.6001H35.9058V54.7202Z" fill="#473D61"/>
<path d="M35.9058 51.8389H32.913V54.7188H35.9058V51.8389Z" fill="#473D61"/>
<path d="M35.9058 48.9595H32.913V51.8401H35.9058V48.9595Z" fill="#473D61"/>
<path d="M35.9058 46.0806H32.913V48.9605H35.9058V46.0806Z" fill="#473D61"/>
<path d="M35.9058 43.1997H32.913V46.0796H35.9058V43.1997Z" fill="#473D61"/>
<path d="M35.9058 40.3203H32.913V43.2002H35.9058V40.3203Z" fill="#FFB379"/>
<path d="M35.9058 37.4404H32.913V40.321H35.9058V37.4404Z" fill="#FFD490"/>
<path d="M35.9058 34.5605H32.913V37.4405H35.9058V34.5605Z" fill="#FFD490"/>
<path d="M35.9058 31.6807H32.913V34.5606H35.9058V31.6807Z" fill="#FFD490"/>
<path d="M35.9058 28.7993H32.913V31.6799H35.9058V28.7993Z" fill="#FFD490"/>
<path d="M35.9058 25.9209H32.913V28.8008H35.9058V25.9209Z" fill="#FFD490"/>
<path d="M35.9058 23.0405H32.913V25.9204H35.9058V23.0405Z" fill="#FFD490"/>
<path d="M35.9058 20.1597H32.913V23.0403H35.9058V20.1597Z" fill="#FFD490"/>
<path d="M35.9058 17.2803H32.913V20.1602H35.9058V17.2803Z" fill="#473D61"/>
<path d="M32.9135 69.1201H29.9214V72H32.9135V69.1201Z" fill="#473D61"/>
<path d="M32.9135 66.2407H29.9214V69.1213H32.9135V66.2407Z" fill="#FEFFDC"/>
<path d="M32.9135 63.3599H29.9214V66.2398H32.9135V63.3599Z" fill="#C66656"/>
<path d="M32.9135 60.48H29.9214V63.3599H32.9135V60.48Z" fill="#E77560"/>
<path d="M32.9135 57.5996H29.9214V60.4802H32.9135V57.5996Z" fill="#E77560"/>
<path d="M32.9135 54.7202H29.9214V57.6001H32.9135V54.7202Z" fill="#473D61"/>
<path d="M32.9135 51.8389H29.9214V54.7188H32.9135V51.8389Z" fill="#FEFFDC"/>
<path d="M32.9135 48.9595H29.9214V51.8401H32.9135V48.9595Z" fill="#473D61"/>
<path d="M32.9135 46.0806H29.9214V48.9605H32.9135V46.0806Z" fill="#473D61"/>
<path d="M32.9135 43.1997H29.9214V46.0796H32.9135V43.1997Z" fill="#473D61"/>
<path d="M32.9135 40.3203H29.9214V43.2002H32.9135V40.3203Z" fill="#FFB379"/>
<path d="M32.9135 37.4404H29.9214V40.321H32.9135V37.4404Z" fill="#FFD490"/>
<path d="M32.9135 34.5605H29.9214V37.4405H32.9135V34.5605Z" fill="#FFD490"/>
<path d="M32.9135 31.6807H29.9214V34.5606H32.9135V31.6807Z" fill="#FFD490"/>
<path d="M32.9135 28.7993H29.9214V31.6799H32.9135V28.7993Z" fill="#FFD490"/>
<path d="M32.9135 25.9209H29.9214V28.8008H32.9135V25.9209Z" fill="#FFD490"/>
<path d="M32.9135 23.0405H29.9214V25.9204H32.9135V23.0405Z" fill="#FFD490"/>
<path d="M32.9135 20.1597H29.9214V23.0403H32.9135V20.1597Z" fill="#FFD490"/>
<path d="M32.9135 17.2803H29.9214V20.1602H32.9135V17.2803Z" fill="#473D61"/>
<path d="M29.9219 69.1201H26.9298V72H29.9219V69.1201Z" fill="#473D61"/>
<path d="M29.9219 66.2407H26.9298V69.1213H29.9219V66.2407Z" fill="#FEFFDC"/>
<path d="M29.9219 63.3599H26.9298V66.2398H29.9219V63.3599Z" fill="#C66656"/>
<path d="M29.9219 60.48H26.9298V63.3599H29.9219V60.48Z" fill="#E77560"/>
<path d="M29.9219 57.5996H26.9298V60.4802H29.9219V57.5996Z" fill="#473D61"/>
<path d="M29.9219 54.7202H26.9298V57.6001H29.9219V54.7202Z" fill="#473D61"/>
<path d="M29.9219 51.8389H26.9298V54.7188H29.9219V51.8389Z" fill="#FEFFDC"/>
<path d="M29.9219 48.9595H26.9298V51.8401H29.9219V48.9595Z" fill="#FEFFDC"/>
<path d="M29.9219 46.0806H26.9298V48.9605H29.9219V46.0806Z" fill="#473D61"/>
<path d="M29.9219 43.1997H26.9298V46.0796H29.9219V43.1997Z" fill="#FFB379"/>
<path d="M29.9219 40.3203H26.9298V43.2002H29.9219V40.3203Z" fill="#FFB379"/>
<path d="M29.9219 37.4404H26.9298V40.321H29.9219V37.4404Z" fill="#FFD490"/>
<path d="M29.9219 34.5605H26.9298V37.4405H29.9219V34.5605Z" fill="#473D61"/>
<path d="M29.9219 31.6807H26.9298V34.5606H29.9219V31.6807Z" fill="#FFD490"/>
<path d="M29.9219 28.7993H26.9298V31.6799H29.9219V28.7993Z" fill="#FFD490"/>
<path d="M29.9219 25.9209H26.9298V28.8008H29.9219V25.9209Z" fill="#FFD490"/>
<path d="M29.9219 23.0405H26.9298V25.9204H29.9219V23.0405Z" fill="#FFD490"/>
<path d="M29.9219 20.1597H26.9298V23.0403H29.9219V20.1597Z" fill="#FFD490"/>
<path d="M29.9219 17.2803H26.9298V20.1602H29.9219V17.2803Z" fill="#473D61"/>
<path d="M26.9297 69.1201H23.9369V72H26.9297V69.1201Z" fill="#473D61"/>
<path d="M26.9297 66.2397H23.9369V69.1204H26.9297V66.2397Z" fill="#FEFFDC"/>
<path d="M26.9297 63.3599H23.9369V66.2398H26.9297V63.3599Z" fill="#FEFFDC"/>
<path d="M26.9297 60.48H23.9369V63.3599H26.9297V60.48Z" fill="#473D61"/>
<path d="M26.9297 57.5996H23.9369V60.4802H26.9297V57.5996Z" fill="#473D61"/>
<path d="M26.9297 54.7202H23.9369V57.6001H26.9297V54.7202Z" fill="#473D61"/>
<path d="M26.9297 51.8389H23.9369V54.7188H26.9297V51.8389Z" fill="#FEFFDC"/>
<path d="M26.9297 48.9595H23.9369V51.8401H26.9297V48.9595Z" fill="#FEFFDC"/>
<path d="M26.9297 46.0806H23.9369V48.9605H26.9297V46.0806Z" fill="#FFB379"/>
<path d="M26.9297 43.1997H23.9369V46.0796H26.9297V43.1997Z" fill="#FFB379"/>
<path d="M26.9297 40.3203H23.9369V43.2002H26.9297V40.3203Z" fill="#FFD490"/>
<path d="M26.9297 37.4404H23.9369V40.321H26.9297V37.4404Z" fill="#FFD490"/>
<path d="M26.9297 34.5605H23.9369V37.4405H26.9297V34.5605Z" fill="#FFD490"/>
<path d="M26.9297 31.6807H23.9369V34.5606H26.9297V31.6807Z" fill="#473D61"/>
<path d="M26.9297 28.7993H23.9369V31.6799H26.9297V28.7993Z" fill="#FFD490"/>
<path d="M26.9297 25.9209H23.9369V28.8008H26.9297V25.9209Z" fill="#FEFFDC"/>
<path d="M26.9297 23.0405H23.9369V25.9204H26.9297V23.0405Z" fill="#FFD490"/>
<path d="M26.9297 20.1597H23.9369V23.0403H26.9297V20.1597Z" fill="#FFD490"/>
<path d="M26.9297 17.2803H23.9369V20.1602H26.9297V17.2803Z" fill="#E77560"/>
<path d="M26.9297 14.4004H23.9369V17.2803H26.9297V14.4004Z" fill="#473D61"/>
<path d="M23.9374 69.1201H20.9453V72H23.9374V69.1201Z" fill="#473D61"/>
<path d="M23.9374 66.2397H20.9453V69.1204H23.9374V66.2397Z" fill="#FEFFDC"/>
<path d="M23.9374 63.3599H20.9453V66.2398H23.9374V63.3599Z" fill="#FEFFDC"/>
<path d="M23.9374 60.48H20.9453V63.3599H23.9374V60.48Z" fill="#FEFFDC"/>
<path d="M23.9374 57.5996H20.9453V60.4802H23.9374V57.5996Z" fill="#FEFFDC"/>
<path d="M23.9374 54.7202H20.9453V57.6001H23.9374V54.7202Z" fill="#473D61"/>
<path d="M23.9374 51.8389H20.9453V54.7188H23.9374V51.8389Z" fill="#FEFFDC"/>
<path d="M23.9374 48.9595H20.9453V51.8401H23.9374V48.9595Z" fill="#FEFFDC"/>
<path d="M23.9374 46.0806H20.9453V48.9605H23.9374V46.0806Z" fill="#FFB379"/>
<path d="M23.9374 43.1997H20.9453V46.0796H23.9374V43.1997Z" fill="#FFB379"/>
<path d="M23.9374 40.3203H20.9453V43.2002H23.9374V40.3203Z" fill="#FFD490"/>
<path d="M23.9374 37.4404H20.9453V40.321H23.9374V37.4404Z" fill="#FFD490"/>
<path d="M23.9374 34.5605H20.9453V37.4405H23.9374V34.5605Z" fill="#FFD490"/>
<path d="M23.9374 31.6807H20.9453V34.5606H23.9374V31.6807Z" fill="#473D61"/>
<path d="M23.9374 28.7993H20.9453V31.6799H23.9374V28.7993Z" fill="#FFD490"/>
<path d="M23.9374 25.9209H20.9453V28.8008H23.9374V25.9209Z" fill="#FEFFDC"/>
<path d="M23.9374 23.0405H20.9453V25.9204H23.9374V23.0405Z" fill="#FFD490"/>
<path d="M23.9374 20.1597H20.9453V23.0403H23.9374V20.1597Z" fill="#FFD490"/>
<path d="M23.9374 17.2803H20.9453V20.1602H23.9374V17.2803Z" fill="#E77560"/>
<path d="M23.9374 14.4004H20.9453V17.2803H23.9374V14.4004Z" fill="#FFD490"/>
<path d="M23.9374 11.5205H20.9453V14.4004H23.9374V11.5205Z" fill="#473D61"/>
<path d="M20.9444 69.1201H17.9523V72H20.9444V69.1201Z" fill="#473D61"/>
<path d="M20.9444 66.2397H17.9523V69.1204H20.9444V66.2397Z" fill="#FEFFDC"/>
<path d="M20.9444 63.3599H17.9523V66.2398H20.9444V63.3599Z" fill="#FEFFDC"/>
<path d="M20.9444 60.48H17.9523V63.3599H20.9444V60.48Z" fill="#FEFFDC"/>
<path d="M20.9444 57.5996H17.9523V60.4802H20.9444V57.5996Z" fill="#FEFFDC"/>
<path d="M20.9444 54.7202H17.9523V57.6001H20.9444V54.7202Z" fill="#FEFFDC"/>
<path d="M20.9444 51.8389H17.9523V54.7188H20.9444V51.8389Z" fill="#473D61"/>
<path d="M20.9444 48.9595H17.9523V51.8401H20.9444V48.9595Z" fill="#FEFFDC"/>
<path d="M20.9444 46.0806H17.9523V48.9605H20.9444V46.0806Z" fill="#FFB379"/>
<path d="M20.9444 43.1997H17.9523V46.0796H20.9444V43.1997Z" fill="#FFB379"/>
<path d="M20.9444 40.3203H17.9523V43.2002H20.9444V40.3203Z" fill="#FFD490"/>
<path d="M20.9444 37.4404H17.9523V40.321H20.9444V37.4404Z" fill="#FFD490"/>
<path d="M20.9444 34.5605H17.9523V37.4405H20.9444V34.5605Z" fill="#FFD490"/>
<path d="M20.9444 31.6807H17.9523V34.5606H20.9444V31.6807Z" fill="#473D61"/>
<path d="M20.9444 28.7993H17.9523V31.6799H20.9444V28.7993Z" fill="#FFD490"/>
<path d="M20.9444 25.9209H17.9523V28.8008H20.9444V25.9209Z" fill="#FFD490"/>
<path d="M20.9444 23.0405H17.9523V25.9204H20.9444V23.0405Z" fill="#FFD490"/>
<path d="M20.9444 20.1597H17.9523V23.0403H20.9444V20.1597Z" fill="#FFD490"/>
<path d="M20.9444 17.2803H17.9523V20.1602H20.9444V17.2803Z" fill="#E77560"/>
<path d="M20.9444 14.4004H17.9523V17.2803H20.9444V14.4004Z" fill="#FFD490"/>
<path d="M20.9444 11.5205H17.9523V14.4004H20.9444V11.5205Z" fill="#FFD490"/>
<path d="M20.9444 8.64014H17.9523V11.5208H20.9444V8.64014Z" fill="#473D61"/>
<path d="M17.9535 69.1201H14.9607V72H17.9535V69.1201Z" fill="#473D61"/>
<path d="M17.9535 66.2397H14.9607V69.1204H17.9535V66.2397Z" fill="#FFE3B8"/>
<path d="M17.9535 63.3599H14.9607V66.2398H17.9535V63.3599Z" fill="#FFE3B8"/>
<path d="M17.9535 60.48H14.9607V63.3599H17.9535V60.48Z" fill="#FEFFDC"/>
<path d="M17.9535 57.5996H14.9607V60.4802H17.9535V57.5996Z" fill="#FEFFDC"/>
<path d="M17.9535 54.7202H14.9607V57.6001H17.9535V54.7202Z" fill="#FEFFDC"/>
<path d="M17.9535 51.8389H14.9607V54.7188H17.9535V51.8389Z" fill="#FEFFDC"/>
<path d="M17.9535 48.9595H14.9607V51.8401H17.9535V48.9595Z" fill="#FEFFDC"/>
<path d="M17.9535 46.0806H14.9607V48.9605H17.9535V46.0806Z" fill="#FFB379"/>
<path d="M17.9535 43.1997H14.9607V46.0796H17.9535V43.1997Z" fill="#FFB379"/>
<path d="M17.9535 40.3203H14.9607V43.2002H17.9535V40.3203Z" fill="#FFD490"/>
<path d="M17.9535 37.4404H14.9607V40.321H17.9535V37.4404Z" fill="#FFD490"/>
<path d="M17.9535 34.5605H14.9607V37.4405H17.9535V34.5605Z" fill="#FFD490"/>
<path d="M17.9535 31.6807H14.9607V34.5606H17.9535V31.6807Z" fill="#473D61"/>
<path d="M17.9535 28.7993H14.9607V31.6799H17.9535V28.7993Z" fill="#FFD490"/>
<path d="M17.9535 25.9209H14.9607V28.8008H17.9535V25.9209Z" fill="#FFD490"/>
<path d="M17.9535 23.0405H14.9607V25.9204H17.9535V23.0405Z" fill="#FFD490"/>
<path d="M17.9535 20.1597H14.9607V23.0403H17.9535V20.1597Z" fill="#FFD490"/>
<path d="M17.9535 17.2803H14.9607V20.1602H17.9535V17.2803Z" fill="#E77560"/>
<path d="M17.9535 14.4004H14.9607V17.2803H17.9535V14.4004Z" fill="#C66656"/>
<path d="M17.9535 11.5205H14.9607V14.4004H17.9535V11.5205Z" fill="#FFD490"/>
<path d="M17.9535 8.64014H14.9607V11.5208H17.9535V8.64014Z" fill="#FFD490"/>
<path d="M17.9535 5.76074H14.9607V8.64067H17.9535V5.76074Z" fill="#473D61"/>
<path d="M14.9605 69.1201H11.9684V72H14.9605V69.1201Z" fill="#473D61"/>
<path d="M14.9605 66.2397H11.9684V69.1204H14.9605V66.2397Z" fill="#FFE3B8"/>
<path d="M14.9605 63.3599H11.9684V66.2398H14.9605V63.3599Z" fill="#FFE3B8"/>
<path d="M14.9605 60.48H11.9684V63.3599H14.9605V60.48Z" fill="#FFE3B8"/>
<path d="M14.9605 57.5996H11.9684V60.4802H14.9605V57.5996Z" fill="#FEFFDC"/>
<path d="M14.9605 54.7202H11.9684V57.6001H14.9605V54.7202Z" fill="#FEFFDC"/>
<path d="M14.9605 51.8389H11.9684V54.7188H14.9605V51.8389Z" fill="#FEFFDC"/>
<path d="M14.9605 48.9595H11.9684V51.8401H14.9605V48.9595Z" fill="#FEFFDC"/>
<path d="M14.9605 46.0806H11.9684V48.9605H14.9605V46.0806Z" fill="#FFB379"/>
<path d="M14.9605 43.1997H11.9684V46.0796H14.9605V43.1997Z" fill="#FFB379"/>
<path d="M14.9605 40.3203H11.9684V43.2002H14.9605V40.3203Z" fill="#FFB379"/>
<path d="M14.9605 37.4404H11.9684V40.321H14.9605V37.4404Z" fill="#FFD490"/>
<path d="M14.9605 34.5605H11.9684V37.4405H14.9605V34.5605Z" fill="#FFD490"/>
<path d="M14.9605 31.6807H11.9684V34.5606H14.9605V31.6807Z" fill="#FFD490"/>
<path d="M14.9605 28.7993H11.9684V31.6799H14.9605V28.7993Z" fill="#FFD490"/>
<path d="M14.9605 25.9209H11.9684V28.8008H14.9605V25.9209Z" fill="#FFD490"/>
<path d="M14.9605 23.0405H11.9684V25.9204H14.9605V23.0405Z" fill="#FFD490"/>
<path d="M14.9605 20.1597H11.9684V23.0403H14.9605V20.1597Z" fill="#E77560"/>
<path d="M14.9605 17.2803H11.9684V20.1602H14.9605V17.2803Z" fill="#C66656"/>
<path d="M14.9605 14.4004H11.9684V17.2803H14.9605V14.4004Z" fill="#C66656"/>
<path d="M14.9605 11.5205H11.9684V14.4004H14.9605V11.5205Z" fill="#C66656"/>
<path d="M14.9605 8.64014H11.9684V11.5208H14.9605V8.64014Z" fill="#FFD490"/>
<path d="M14.9605 5.76074H11.9684V8.64067H14.9605V5.76074Z" fill="#FFD490"/>
<path d="M14.9605 2.88135H11.9684V5.76127H14.9605V2.88135Z" fill="#473D61"/>
<path d="M11.9683 66.2397H8.9762V69.1204H11.9683V66.2397Z" fill="#473D61"/>
<path d="M11.9683 63.3599H8.9762V66.2398H11.9683V63.3599Z" fill="#FFE3B8"/>
<path d="M11.9683 60.48H8.9762V63.3599H11.9683V60.48Z" fill="#FFE3B8"/>
<path d="M11.9683 57.5996H8.9762V60.4802H11.9683V57.5996Z" fill="#FFE3B8"/>
<path d="M11.9683 54.7202H8.9762V57.6001H11.9683V54.7202Z" fill="#FEFFDC"/>
<path d="M11.9683 51.8389H8.9762V54.7188H11.9683V51.8389Z" fill="#FEFFDC"/>
<path d="M11.9683 48.9595H8.9762V51.8401H11.9683V48.9595Z" fill="#FEFFDC"/>
<path d="M11.9683 46.0806H8.9762V48.9605H11.9683V46.0806Z" fill="#FFB379"/>
<path d="M11.9683 43.1997H8.9762V46.0796H11.9683V43.1997Z" fill="#FFB379"/>
<path d="M11.9683 40.3203H8.9762V43.2002H11.9683V40.3203Z" fill="#FFB379"/>
<path d="M11.9683 37.4404H8.9762V40.321H11.9683V37.4404Z" fill="#FFB379"/>
<path d="M11.9683 34.5605H8.9762V37.4405H11.9683V34.5605Z" fill="#FFD490"/>
<path d="M11.9683 31.6807H8.9762V34.5606H11.9683V31.6807Z" fill="#FFD490"/>
<path d="M11.9683 28.7993H8.9762V31.6799H11.9683V28.7993Z" fill="#FFD490"/>
<path d="M11.9683 25.9209H8.9762V28.8008H11.9683V25.9209Z" fill="#E77560"/>
<path d="M11.9683 23.0405H8.9762V25.9204H11.9683V23.0405Z" fill="#E77560"/>
<path d="M11.9683 20.1597H8.9762V23.0403H11.9683V20.1597Z" fill="#C66656"/>
<path d="M11.9683 17.2803H8.9762V20.1602H11.9683V17.2803Z" fill="#C66656"/>
<path d="M11.9683 14.4004H8.9762V17.2803H11.9683V14.4004Z" fill="#C66656"/>
<path d="M11.9683 11.5205H8.9762V14.4004H11.9683V11.5205Z" fill="#FFD490"/>
<path d="M11.9683 8.64014H8.9762V11.5208H11.9683V8.64014Z" fill="#FFD490"/>
<path d="M11.9683 5.76074H8.9762V8.64067H11.9683V5.76074Z" fill="#FFB379"/>
<path d="M11.9683 2.88135H8.9762V5.76127H11.9683V2.88135Z" fill="#FFB379"/>
<path d="M11.9683 0H8.9762V2.88062H11.9683V0Z" fill="#473D61"/>
<path d="M8.97599 63.3599H5.98389V66.2398H8.97599V63.3599Z" fill="#473D61"/>
<path d="M8.97599 60.48H5.98389V63.3599H8.97599V60.48Z" fill="#FFE3B8"/>
<path d="M8.97599 57.5996H5.98389V60.4802H8.97599V57.5996Z" fill="#FFE3B8"/>
<path d="M8.97599 54.7202H5.98389V57.6001H8.97599V54.7202Z" fill="#FFE3B8"/>
<path d="M8.97734 51.8389H5.98523V54.7188H8.97734V51.8389Z" fill="#FEFFDC"/>
<path d="M8.97734 48.9595H5.98523V51.8401H8.97734V48.9595Z" fill="#FEFFDC"/>
<path d="M8.97734 46.0806H5.98523V48.9605H8.97734V46.0806Z" fill="#FEFFDC"/>
<path d="M8.97734 43.1997H5.98523V46.0796H8.97734V43.1997Z" fill="#FFB379"/>
<path d="M8.97734 40.3203H5.98523V43.2002H8.97734V40.3203Z" fill="#FFB379"/>
<path d="M8.97734 37.4404H5.98523V40.321H8.97734V37.4404Z" fill="#FFB379"/>
<path d="M8.97734 34.5605H5.98523V37.4405H8.97734V34.5605Z" fill="#FFB379"/>
<path d="M8.97734 31.6807H5.98523V34.5606H8.97734V31.6807Z" fill="#473D61"/>
<path d="M8.97734 28.7993H5.98523V31.6799H8.97734V28.7993Z" fill="#473D61"/>
<path d="M8.97734 25.9209H5.98523V28.8008H8.97734V25.9209Z" fill="#FFB379"/>
<path d="M8.97734 23.0405H5.98523V25.9204H8.97734V23.0405Z" fill="#FFB379"/>
<path d="M8.97734 20.1597H5.98523V23.0403H8.97734V20.1597Z" fill="#FFB379"/>
<path d="M8.97734 17.2803H5.98523V20.1602H8.97734V17.2803Z" fill="#FFB379"/>
<path d="M8.97734 14.4004H5.98523V17.2803H8.97734V14.4004Z" fill="#FFB379"/>
<path d="M8.97734 11.5205H5.98523V14.4004H8.97734V11.5205Z" fill="#FFB379"/>
<path d="M8.97734 8.64014H5.98523V11.5208H8.97734V8.64014Z" fill="#FFB379"/>
<path d="M8.97734 5.76074H5.98523V8.64067H8.97734V5.76074Z" fill="#473D61"/>
<path d="M8.97734 2.88135H5.98523V5.76127H8.97734V2.88135Z" fill="#473D61"/>
<path d="M5.98441 60.48H2.99158V63.3599H5.98441V60.48Z" fill="#473D61"/>
<path d="M5.98441 57.5996H2.99158V60.4802H5.98441V57.5996Z" fill="#473D61"/>
<path d="M5.98441 54.7202H2.99158V57.6001H5.98441V54.7202Z" fill="#FFE3B8"/>
<path d="M5.98441 51.8389H2.99158V54.7188H5.98441V51.8389Z" fill="#FFE3B8"/>
<path d="M5.98441 48.9595H2.99158V51.8401H5.98441V48.9595Z" fill="#FFE3B8"/>
<path d="M5.98441 46.0806H2.99158V48.9605H5.98441V46.0806Z" fill="#FFE3B8"/>
<path d="M5.98441 43.1997H2.99158V46.0796H5.98441V43.1997Z" fill="#FFE3B8"/>
<path d="M5.98441 40.3203H2.99158V43.2002H5.98441V40.3203Z" fill="#473D61"/>
<path d="M5.98441 37.4404H2.99158V40.321H5.98441V37.4404Z" fill="#473D61"/>
<path d="M5.98441 34.5605H2.99158V37.4405H5.98441V34.5605Z" fill="#473D61"/>
<path d="M5.98441 25.9209H2.99158V28.8008H5.98441V25.9209Z" fill="#473D61"/>
<path d="M5.98441 23.0405H2.99158V25.9204H5.98441V23.0405Z" fill="#473D61"/>
<path d="M5.98441 20.1597H2.99158V23.0403H5.98441V20.1597Z" fill="#473D61"/>
<path d="M5.98441 17.2803H2.99158V20.1602H5.98441V17.2803Z" fill="#473D61"/>
<path d="M5.98441 14.4004H2.99158V17.2803H5.98441V14.4004Z" fill="#473D61"/>
<path d="M5.98441 11.5205H2.99158V14.4004H5.98441V11.5205Z" fill="#473D61"/>
<path d="M5.98441 8.64014H2.99158V11.5208H5.98441V8.64014Z" fill="#473D61"/>
<path d="M2.99211 54.7202H0V57.6001H2.99211V54.7202Z" fill="#473D61"/>
<path d="M2.99211 51.8389H0V54.7188H2.99211V51.8389Z" fill="#473D61"/>
<path d="M2.99211 48.9595H0V51.8401H2.99211V48.9595Z" fill="#473D61"/>
<path d="M2.99211 46.0806H0V48.9605H2.99211V46.0806Z" fill="#473D61"/>
<path d="M2.99211 43.1997H0V46.0796H2.99211V43.1997Z" fill="#473D61"/>
</svg>
