<svg width="73" height="72" viewBox="0 0 73 72" fill="none" xmlns="http://www.w3.org/2000/svg">
<path d="M72.2983 38.3979H67.1357V43.2048H72.2983V38.3979Z" fill="#4C4766"/>
<path d="M72.2983 33.6025H67.1357V38.3979H72.2983V33.6025Z" fill="#4C4766"/>
<path d="M72.2983 28.8071H67.1357V33.6025H72.2983V28.8071Z" fill="#4C4766"/>
<path d="M72.2983 24H67.1357V28.8069H72.2983V24Z" fill="#4C4766"/>
<path d="M67.1357 48.0005H61.9731V52.8074H67.1357V48.0005Z" fill="#4C4766"/>
<path d="M67.1357 43.2046H61.9731V48H67.1357V43.2046Z" fill="#4C4766"/>
<path d="M67.1357 38.3979H61.9731V43.2048H67.1357V38.3979Z" fill="#B96B5C"/>
<path d="M67.1357 33.6025H61.9731V38.3979H67.1357V33.6025Z" fill="#B96B5C"/>
<path d="M67.1357 28.8071H61.9731V33.6025H67.1357V28.8071Z" fill="#B96B5C"/>
<path d="M67.1357 24H61.9731V28.8069H67.1357V24Z" fill="#B96B5C"/>
<path d="M67.1357 19.2051H61.9731V24.0005H67.1357V19.2051Z" fill="#4C4766"/>
<path d="M67.1357 14.3979H61.9731V19.2048H67.1357V14.3979Z" fill="#4C4766"/>
<path d="M67.1357 9.60254H61.9731V14.3979H67.1357V9.60254Z" fill="#4C4766"/>
<path d="M61.9732 52.8071H56.8107V57.6025H61.9732V52.8071Z" fill="#4C4766"/>
<path d="M61.9732 48.0005H56.8107V52.8074H61.9732V48.0005Z" fill="#B96B5C"/>
<path d="M61.9732 43.2046H56.8107V48H61.9732V43.2046Z" fill="#B96B5C"/>
<path d="M61.9732 38.3979H56.8107V43.2048H61.9732V38.3979Z" fill="#B96B5C"/>
<path d="M61.9732 33.6025H56.8107V38.3979H61.9732V33.6025Z" fill="#F7D598"/>
<path d="M61.9732 28.8071H56.8107V33.6025H61.9732V28.8071Z" fill="#F7D598"/>
<path d="M61.9732 24H56.8107V28.8069H61.9732V24Z" fill="#F7D598"/>
<path d="M61.9732 19.2051H56.8107V24.0005H61.9732V19.2051Z" fill="#F7D598"/>
<path d="M61.9732 14.3979H56.8107V19.2048H61.9732V14.3979Z" fill="#F7D598"/>
<path d="M61.9732 9.60254H56.8107V14.3979H61.9732V9.60254Z" fill="#F7D598"/>
<path d="M61.9732 4.80713H56.8107V9.60253H61.9732V4.80713Z" fill="#4C4766"/>
<path d="M56.8107 57.6021H51.6482V62.3975H56.8107V57.6021Z" fill="#4C4766"/>
<path d="M56.8107 52.8071H51.6482V57.6025H56.8107V52.8071Z" fill="#B96B5C"/>
<path d="M56.8107 48.0005H51.6482V52.8074H56.8107V48.0005Z" fill="#B96B5C"/>
<path d="M56.8107 43.2046H51.6482V48H56.8107V43.2046Z" fill="#B96B5C"/>
<path d="M56.8107 38.3979H51.6482V43.2048H56.8107V38.3979Z" fill="#F7D598"/>
<path d="M56.8107 33.6025H51.6482V38.3979H56.8107V33.6025Z" fill="#ECB481"/>
<path d="M56.8107 28.8071H51.6482V33.6025H56.8107V28.8071Z" fill="#ECB481"/>
<path d="M56.8107 24H51.6482V28.8069H56.8107V24Z" fill="#ECB481"/>
<path d="M56.8107 19.2051H51.6482V24.0005H56.8107V19.2051Z" fill="#ECB481"/>
<path d="M56.8107 14.3979H51.6482V19.2048H56.8107V14.3979Z" fill="#B96B5C"/>
<path d="M56.8107 9.60254H51.6482V14.3979H56.8107V9.60254Z" fill="#F7D598"/>
<path d="M56.8107 4.80713H51.6482V9.60253H56.8107V4.80713Z" fill="#F7D598"/>
<path d="M56.8107 0H51.6482V4.80688H56.8107V0Z" fill="#4C4766"/>
<path d="M51.6481 62.3984H46.4856V67.2053H51.6481V62.3984Z" fill="#4C4766"/>
<path d="M51.6481 57.6021H46.4856V62.3975H51.6481V57.6021Z" fill="#B96B5C"/>
<path d="M51.6481 52.8071H46.4856V57.6025H51.6481V52.8071Z" fill="#B96B5C"/>
<path d="M51.6481 48.0005H46.4856V52.8074H51.6481V48.0005Z" fill="#ECB481"/>
<path d="M51.6481 43.2046H46.4856V48H51.6481V43.2046Z" fill="#F7D598"/>
<path d="M51.6481 38.3979H46.4856V43.2048H51.6481V38.3979Z" fill="#ECB481"/>
<path d="M51.6481 33.6025H46.4856V38.3979H51.6481V33.6025Z" fill="#ECB481"/>
<path d="M51.6481 28.8071H46.4856V33.6025H51.6481V28.8071Z" fill="#ECB481"/>
<path d="M51.6481 24H46.4856V28.8069H51.6481V24Z" fill="#ECB481"/>
<path d="M51.6481 19.2051H46.4856V24.0005H51.6481V19.2051Z" fill="#ECB481"/>
<path d="M51.6481 14.3979H46.4856V19.2048H51.6481V14.3979Z" fill="#ECB481"/>
<path d="M51.6481 9.60254H46.4856V14.3979H51.6481V9.60254Z" fill="#B96B5C"/>
<path d="M51.6481 4.80713H46.4856V9.60253H51.6481V4.80713Z" fill="#F7D598"/>
<path d="M51.6481 0H46.4856V4.80688H51.6481V0Z" fill="#4C4766"/>
<path d="M46.4859 62.3984H41.3119V67.2053H46.4859V62.3984Z" fill="#4C4766"/>
<path d="M46.4859 57.6021H41.3119V62.3975H46.4859V57.6021Z" fill="#B96B5C"/>
<path d="M46.4859 52.8071H41.3119V57.6025H46.4859V52.8071Z" fill="#B96B5C"/>
<path d="M46.4859 48.0005H41.3119V52.8074H46.4859V48.0005Z" fill="#F7D598"/>
<path d="M46.4859 43.2046H41.3119V48H46.4859V43.2046Z" fill="#ECB481"/>
<path d="M46.4859 38.3979H41.3119V43.2048H46.4859V38.3979Z" fill="#B96B5C"/>
<path d="M46.4859 33.6025H41.3119V38.3979H46.4859V33.6025Z" fill="#F2E1C4"/>
<path d="M46.4859 28.8071H41.3119V33.6025H46.4859V28.8071Z" fill="#ECB481"/>
<path d="M46.4859 24H41.3119V28.8069H46.4859V24Z" fill="#B96B5C"/>
<path d="M46.4859 19.2051H41.3119V24.0005H46.4859V19.2051Z" fill="#F2E1C4"/>
<path d="M46.4859 14.3979H41.3119V19.2048H46.4859V14.3979Z" fill="#F7D598"/>
<path d="M46.4859 9.60254H41.3119V14.3979H46.4859V9.60254Z" fill="#B96B5C"/>
<path d="M46.4859 4.80713H41.3119V9.60253H46.4859V4.80713Z" fill="#F7D598"/>
<path d="M46.4859 0H41.3119V4.80688H46.4859V0Z" fill="#4C4766"/>
<path d="M41.3119 67.2046H36.1494V72H41.3119V67.2046Z" fill="#4C4766"/>
<path d="M41.3119 62.3984H36.1494V67.2053H41.3119V62.3984Z" fill="#B96B5C"/>
<path d="M41.3119 57.6021H36.1494V62.3975H41.3119V57.6021Z" fill="#B96B5C"/>
<path d="M41.3119 52.8071H36.1494V57.6025H41.3119V52.8071Z" fill="#ECB481"/>
<path d="M41.3119 48.0005H36.1494V52.8074H41.3119V48.0005Z" fill="#F7D598"/>
<path d="M41.3119 43.2046H36.1494V48H41.3119V43.2046Z" fill="#ECB481"/>
<path d="M41.3119 38.3979H36.1494V43.2048H41.3119V38.3979Z" fill="#ECB481"/>
<path d="M41.3119 33.6025H36.1494V38.3979H41.3119V33.6025Z" fill="#B96B5C"/>
<path d="M41.3119 28.8071H36.1494V33.6025H41.3119V28.8071Z" fill="#F2E1C4"/>
<path d="M41.3119 24H36.1494V28.8069H41.3119V24Z" fill="#F2E1C4"/>
<path d="M41.3119 19.2051H36.1494V24.0005H41.3119V19.2051Z" fill="#F2E1C4"/>
<path d="M41.3119 14.3979H36.1494V19.2048H41.3119V14.3979Z" fill="#F7D598"/>
<path d="M41.3119 9.60254H36.1494V14.3979H41.3119V9.60254Z" fill="#B96B5C"/>
<path d="M41.3119 4.80713H36.1494V9.60253H41.3119V4.80713Z" fill="#F7D598"/>
<path d="M41.3119 0H36.1494V4.80688H41.3119V0Z" fill="#4C4766"/>
<path d="M36.1493 67.2046H30.9868V72H36.1493V67.2046Z" fill="#4C4766"/>
<path d="M36.1493 62.3984H30.9868V67.2053H36.1493V62.3984Z" fill="#B96B5C"/>
<path d="M36.1493 57.6021H30.9868V62.3975H36.1493V57.6021Z" fill="#B96B5C"/>
<path d="M36.1493 52.8071H30.9868V57.6025H36.1493V52.8071Z" fill="#ECB481"/>
<path d="M36.1493 48.0005H30.9868V52.8074H36.1493V48.0005Z" fill="#F7D598"/>
<path d="M36.1493 43.2046H30.9868V48H36.1493V43.2046Z" fill="#ECB481"/>
<path d="M36.1493 38.3979H30.9868V43.2048H36.1493V38.3979Z" fill="#B96B5C"/>
<path d="M36.1493 33.6025H30.9868V38.3979H36.1493V33.6025Z" fill="#F2E1C4"/>
<path d="M36.1493 28.8071H30.9868V33.6025H36.1493V28.8071Z" fill="#F2E1C4"/>
<path d="M36.1493 24H30.9868V28.8069H36.1493V24Z" fill="#F2E1C4"/>
<path d="M36.1493 19.2051H30.9868V24.0005H36.1493V19.2051Z" fill="#B96B5C"/>
<path d="M36.1493 14.3979H30.9868V19.2048H36.1493V14.3979Z" fill="#F7D598"/>
<path d="M36.1493 9.60254H30.9868V14.3979H36.1493V9.60254Z" fill="#B96B5C"/>
<path d="M36.1493 4.80713H30.9868V9.60253H36.1493V4.80713Z" fill="#F7D598"/>
<path d="M36.1493 0H30.9868V4.80688H36.1493V0Z" fill="#4C4766"/>
<path d="M30.9869 67.2046H25.8243V72H30.9869V67.2046Z" fill="#4C4766"/>
<path d="M30.9869 62.3984H25.8243V67.2053H30.9869V62.3984Z" fill="#B96B5C"/>
<path d="M30.9869 57.6021H25.8243V62.3975H30.9869V57.6021Z" fill="#B96B5C"/>
<path d="M30.9869 52.8071H25.8243V57.6025H30.9869V52.8071Z" fill="#ECB481"/>
<path d="M30.9869 48.0005H25.8243V52.8074H30.9869V48.0005Z" fill="#ECB481"/>
<path d="M30.9869 43.2046H25.8243V48H30.9869V43.2046Z" fill="#ECB481"/>
<path d="M30.9869 38.3979H25.8243V43.2048H30.9869V38.3979Z" fill="#B96B5C"/>
<path d="M30.9869 33.6025H25.8243V38.3979H30.9869V33.6025Z" fill="#F2E1C4"/>
<path d="M30.9869 28.8071H25.8243V33.6025H30.9869V28.8071Z" fill="#B96B5C"/>
<path d="M30.9869 24H25.8243V28.8069H30.9869V24Z" fill="#F7D598"/>
<path d="M30.9869 19.2051H25.8243V24.0005H30.9869V19.2051Z" fill="#F7D598"/>
<path d="M30.9869 14.3979H25.8243V19.2048H30.9869V14.3979Z" fill="#B96B5C"/>
<path d="M30.9869 9.60254H25.8243V14.3979H30.9869V9.60254Z" fill="#F7D598"/>
<path d="M30.9869 4.80713H25.8243V9.60253H30.9869V4.80713Z" fill="#4C4766"/>
<path d="M25.8244 62.3984H20.6619V67.2053H25.8244V62.3984Z" fill="#4C4766"/>
<path d="M25.8244 57.6021H20.6619V62.3975H25.8244V57.6021Z" fill="#B96B5C"/>
<path d="M25.8244 52.8071H20.6619V57.6025H25.8244V52.8071Z" fill="#ECB481"/>
<path d="M25.8244 48.0005H20.6619V52.8074H25.8244V48.0005Z" fill="#ECB481"/>
<path d="M25.8244 43.2046H20.6619V48H25.8244V43.2046Z" fill="#B96B5C"/>
<path d="M25.8244 38.3979H20.6619V43.2048H25.8244V38.3979Z" fill="#F7D598"/>
<path d="M25.8244 33.6025H20.6619V38.3979H25.8244V33.6025Z" fill="#F7D598"/>
<path d="M25.8244 28.8071H20.6619V33.6025H25.8244V28.8071Z" fill="#F7D598"/>
<path d="M25.8244 24H20.6619V28.8069H25.8244V24Z" fill="#F7D598"/>
<path d="M25.8244 19.2051H20.6619V24.0005H25.8244V19.2051Z" fill="#B96B5C"/>
<path d="M25.8244 14.3979H20.6619V19.2048H25.8244V14.3979Z" fill="#F7D598"/>
<path d="M25.8244 9.60254H20.6619V14.3979H25.8244V9.60254Z" fill="#4C4766"/>
<path d="M20.6618 62.3984H15.4993V67.2053H20.6618V62.3984Z" fill="#4C4766"/>
<path d="M20.6618 57.6021H15.4993V62.3975H20.6618V57.6021Z" fill="#B96B5C"/>
<path d="M20.6618 52.8071H15.4993V57.6025H20.6618V52.8071Z" fill="#ECB481"/>
<path d="M20.6618 48.0005H15.4993V52.8074H20.6618V48.0005Z" fill="#ECB481"/>
<path d="M20.6618 43.2046H15.4993V48H20.6618V43.2046Z" fill="#F7D598"/>
<path d="M20.6618 38.3979H15.4993V43.2048H20.6618V38.3979Z" fill="#F7D598"/>
<path d="M20.6618 33.6025H15.4993V38.3979H20.6618V33.6025Z" fill="#F7D598"/>
<path d="M20.6618 28.8071H15.4993V33.6025H20.6618V28.8071Z" fill="#B96B5C"/>
<path d="M20.6618 24H15.4993V28.8069H20.6618V24Z" fill="#B96B5C"/>
<path d="M20.6618 19.2051H15.4993V24.0005H20.6618V19.2051Z" fill="#F7D598"/>
<path d="M20.6618 14.3979H15.4993V19.2048H20.6618V14.3979Z" fill="#F7D598"/>
<path d="M20.6618 9.60254H15.4993V14.3979H20.6618V9.60254Z" fill="#4C4766"/>
<path d="M15.4993 57.6021H10.3368V62.3975H15.4993V57.6021Z" fill="#4C4766"/>
<path d="M15.4993 52.8071H10.3368V57.6025H15.4993V52.8071Z" fill="#4C4766"/>
<path d="M15.4993 48.0005H10.3368V52.8074H15.4993V48.0005Z" fill="#F7D598"/>
<path d="M15.4993 43.2046H10.3368V48H15.4993V43.2046Z" fill="#F7D598"/>
<path d="M15.4993 38.3979H10.3368V43.2048H15.4993V38.3979Z" fill="#B96B5C"/>
<path d="M15.4993 33.6025H10.3368V38.3979H15.4993V33.6025Z" fill="#B96B5C"/>
<path d="M15.4993 28.8071H10.3368V33.6025H15.4993V28.8071Z" fill="#F7D598"/>
<path d="M15.4993 24H10.3368V28.8069H15.4993V24Z" fill="#F7D598"/>
<path d="M15.4993 19.2051H10.3368V24.0005H15.4993V19.2051Z" fill="#F7D598"/>
<path d="M15.4993 14.3979H10.3368V19.2048H15.4993V14.3979Z" fill="#4C4766"/>
<path d="M10.3364 48.0005H5.16248V52.8074H10.3364V48.0005Z" fill="#4C4766"/>
<path d="M10.3364 43.2046H5.16248V48H10.3364V43.2046Z" fill="#4C4766"/>
<path d="M10.3364 38.3979H5.16248V43.2048H10.3364V38.3979Z" fill="#F7D598"/>
<path d="M10.3364 33.6025H5.16248V38.3979H10.3364V33.6025Z" fill="#F7D598"/>
<path d="M10.3364 28.8071H5.16248V33.6025H10.3364V28.8071Z" fill="#F7D598"/>
<path d="M10.3364 24H5.16248V28.8069H10.3364V24Z" fill="#4C4766"/>
<path d="M10.3364 19.2051H5.16248V24.0005H10.3364V19.2051Z" fill="#4C4766"/>
<path d="M5.16252 38.3979H0V43.2048H5.16252V38.3979Z" fill="#4C4766"/>
<path d="M5.16252 33.6025H0V38.3979H5.16252V33.6025Z" fill="#4C4766"/>
<path d="M5.16252 28.8071H0V33.6025H5.16252V28.8071Z" fill="#4C4766"/>
</svg>
