<svg width="48" height="72" viewBox="0 0 48 72" fill="none" xmlns="http://www.w3.org/2000/svg">
<path d="M44.8778 37.4404H41.8892V40.3204H44.8778V37.4404Z" fill="#473D61"/>
<path d="M44.8778 34.5596H41.8892V37.4396H44.8778V34.5596Z" fill="#473D61"/>
<path d="M44.8778 28.8003H41.8892V31.6803H44.8778V28.8003Z" fill="#473D61"/>
<path d="M44.8778 25.9204H41.8892V28.8004H44.8778V25.9204Z" fill="#473D61"/>
<path d="M44.8778 23.0396H41.8892V25.9196H44.8778V23.0396Z" fill="#473D61"/>
<path d="M44.8778 20.1602H41.8892V23.0402H44.8778V20.1602Z" fill="#473D61"/>
<path d="M44.8778 17.2803H41.8892V20.1603H44.8778V17.2803Z" fill="#473D61"/>
<path d="M41.889 37.4404H38.8936V40.3204H41.889V37.4404Z" fill="#FFB379"/>
<path d="M41.889 34.5596H38.8936V37.4396H41.889V34.5596Z" fill="#FFB379"/>
<path d="M41.889 31.6802H38.8936V34.5602H41.889V31.6802Z" fill="#473D61"/>
<path d="M41.889 28.8003H38.8936V31.6803H41.889V28.8003Z" fill="#FFB379"/>
<path d="M41.889 25.9204H38.8936V28.8004H41.889V25.9204Z" fill="#FFB379"/>
<path d="M41.889 23.0396H38.8936V25.9196H41.889V23.0396Z" fill="#FFB379"/>
<path d="M41.889 20.1602H38.8936V23.0402H41.889V20.1602Z" fill="#FFB379"/>
<path d="M41.889 17.2803H38.8936V20.1603H41.889V17.2803Z" fill="#FFB379"/>
<path d="M41.889 14.3999H38.8936V17.2799H41.889V14.3999Z" fill="#473D61"/>
<path d="M38.8935 37.4404H35.9048V40.3204H38.8935V37.4404Z" fill="#FEFFDC"/>
<path d="M38.8935 34.5596H35.9048V37.4396H38.8935V34.5596Z" fill="#FFE3B8"/>
<path d="M38.8935 31.6802H35.9048V34.5602H38.8935V31.6802Z" fill="#FFE3B8"/>
<path d="M38.8935 28.8003H35.9048V31.6803H38.8935V28.8003Z" fill="#FEFFDC"/>
<path d="M38.8935 25.9204H35.9048V28.8004H38.8935V25.9204Z" fill="#FEFFDC"/>
<path d="M38.8935 23.0396H35.9048V25.9196H38.8935V23.0396Z" fill="#FEFFDC"/>
<path d="M38.8935 20.1602H35.9048V23.0402H38.8935V20.1602Z" fill="#FEFFDC"/>
<path d="M38.8935 17.2803H35.9048V20.1603H38.8935V17.2803Z" fill="#FFB379"/>
<path d="M38.8935 14.3999H35.9048V17.2799H38.8935V14.3999Z" fill="#FFB379"/>
<path d="M38.8935 11.52H35.9048V14.4H38.8935V11.52Z" fill="#473D61"/>
<path d="M38.8935 8.64062H35.9048V11.5206H38.8935V8.64062Z" fill="#473D61"/>
<path d="M38.8935 5.75977H35.9048V8.63977H38.8935V5.75977Z" fill="#473D61"/>
<path d="M38.8935 2.87988H35.9048V5.75989H38.8935V2.87988Z" fill="#473D61"/>
<path d="M35.9049 37.4404H32.9094V40.3204H35.9049V37.4404Z" fill="#FEFFDC"/>
<path d="M35.9049 34.5596H32.9094V37.4396H35.9049V34.5596Z" fill="#FFE3B8"/>
<path d="M35.9049 31.6802H32.9094V34.5602H35.9049V31.6802Z" fill="#FEFFDC"/>
<path d="M35.9049 28.8003H32.9094V31.6803H35.9049V28.8003Z" fill="#FEFFDC"/>
<path d="M35.9049 25.9204H32.9094V28.8004H35.9049V25.9204Z" fill="#FEFFDC"/>
<path d="M35.9049 23.0396H32.9094V25.9196H35.9049V23.0396Z" fill="#FEFFDC"/>
<path d="M35.9049 20.1602H32.9094V23.0402H35.9049V20.1602Z" fill="#473D61"/>
<path d="M35.9049 17.2803H32.9094V20.1603H35.9049V17.2803Z" fill="#473D61"/>
<path d="M35.9049 14.3999H32.9094V17.2799H35.9049V14.3999Z" fill="#FFB379"/>
<path d="M35.9049 11.52H32.9094V14.4H35.9049V11.52Z" fill="#C66656"/>
<path d="M35.9049 8.64062H32.9094V11.5206H35.9049V8.64062Z" fill="#E77560"/>
<path d="M35.9049 5.75977H32.9094V8.63977H35.9049V5.75977Z" fill="#E77560"/>
<path d="M35.9049 2.87988H32.9094V5.75989H35.9049V2.87988Z" fill="#E77560"/>
<path d="M35.9049 0H32.9094V2.88H35.9049V0Z" fill="#473D61"/>
<path d="M32.9095 37.4404H29.9208V40.3204H32.9095V37.4404Z" fill="#FEFFDC"/>
<path d="M32.9095 34.5596H29.9208V37.4396H32.9095V34.5596Z" fill="#FEFFDC"/>
<path d="M32.9095 31.6802H29.9208V34.5602H32.9095V31.6802Z" fill="#FEFFDC"/>
<path d="M32.9095 28.8003H29.9208V31.6803H32.9095V28.8003Z" fill="#FEFFDC"/>
<path d="M32.9095 25.9204H29.9208V28.8004H32.9095V25.9204Z" fill="#473D61"/>
<path d="M32.9095 23.0396H29.9208V25.9196H32.9095V23.0396Z" fill="#FEFFDC"/>
<path d="M32.9095 20.1602H29.9208V23.0402H32.9095V20.1602Z" fill="#473D61"/>
<path d="M32.9095 17.2803H29.9208V20.1603H32.9095V17.2803Z" fill="white"/>
<path d="M32.9095 14.3999H29.9208V17.2799H32.9095V14.3999Z" fill="#FFB379"/>
<path d="M32.9095 11.52H29.9208V14.4H32.9095V11.52Z" fill="#C66656"/>
<path d="M32.9095 8.64062H29.9208V11.5206H32.9095V8.64062Z" fill="#C66656"/>
<path d="M32.9095 5.75977H29.9208V8.63977H32.9095V5.75977Z" fill="#C66656"/>
<path d="M32.9095 2.87988H29.9208V5.75989H32.9095V2.87988Z" fill="#C66656"/>
<path d="M32.9095 0H29.9208V2.88H32.9095V0Z" fill="#473D61"/>
<path d="M29.9209 37.4404H26.9254V40.3204H29.9209V37.4404Z" fill="#FEFFDC"/>
<path d="M29.9209 34.5596H26.9254V37.4396H29.9209V34.5596Z" fill="#FEFFDC"/>
<path d="M29.9209 31.6802H26.9254V34.5602H29.9209V31.6802Z" fill="#FEFFDC"/>
<path d="M29.9209 28.8003H26.9254V31.6803H29.9209V28.8003Z" fill="#473D61"/>
<path d="M29.9209 25.9204H26.9254V28.8004H29.9209V25.9204Z" fill="#FEFFDC"/>
<path d="M29.9209 23.0396H26.9254V25.9196H29.9209V23.0396Z" fill="#FEFFDC"/>
<path d="M29.9209 20.1602H26.9254V23.0402H29.9209V20.1602Z" fill="#FEFFDC"/>
<path d="M29.9209 17.2803V20.1603H26.9254V17.2803H29.9141H29.9209Z" fill="#FFE3B8"/>
<path d="M29.9206 14.3999H29.9138V17.2799H29.9206V14.3999Z" fill="#FFB379"/>
<path d="M29.9206 11.52H29.9138V14.4H29.9206V11.52Z" fill="#FFB379"/>
<path d="M29.9209 8.64062V11.5206H29.9141H26.9254V8.64062H29.9209Z" fill="#FFB379"/>
<path d="M29.9209 5.75977H26.9254V8.63977H29.9209V5.75977Z" fill="#FFB379"/>
<path d="M29.9209 2.87988H26.9254V5.75989H29.9209V2.87988Z" fill="#473D61"/>
<path d="M29.9141 14.3999H26.9254V17.2799H29.9141V14.3999Z" fill="#FFB379"/>
<path d="M29.9141 11.52H26.9254V14.4H29.9141V11.52Z" fill="#FFB379"/>
<path d="M26.9253 37.4404H23.9366V40.3204H26.9253V37.4404Z" fill="#FEFFDC"/>
<path d="M26.9253 34.5596H23.9366V37.4396H26.9253V34.5596Z" fill="#FEFFDC"/>
<path d="M26.9253 31.6802H23.9366V34.5602H26.9253V31.6802Z" fill="#FEFFDC"/>
<path d="M26.9253 28.8003H23.9366V31.6803H26.9253V28.8003Z" fill="#473D61"/>
<path d="M26.9253 25.9204H23.9366V28.8004H26.9253V25.9204Z" fill="#FEFFDC"/>
<path d="M26.9253 23.0396H23.9366V25.9196H26.9253V23.0396Z" fill="#473D61"/>
<path d="M26.9253 20.1602H23.9366V23.0402H26.9253V20.1602Z" fill="#473D61"/>
<path d="M26.9253 17.2803H23.9366V20.1603H26.9253V17.2803Z" fill="#FFE3B8"/>
<path d="M26.9252 14.3999V17.2799H23.9365H23.9297V14.3999H23.9365H26.9252Z" fill="#FFB379"/>
<path d="M26.9253 11.52H23.9366V14.4H26.9253V11.52Z" fill="#FFB379"/>
<path d="M26.9253 8.64062H23.9366V11.5206H26.9253V8.64062Z" fill="#FFB379"/>
<path d="M26.9253 5.75977H23.9366V8.63977H26.9253V5.75977Z" fill="#473D61"/>
<path d="M23.9366 37.4404H20.9412V40.3204H23.9366V37.4404Z" fill="#FEFFDC"/>
<path d="M23.9366 34.5596H20.9412V37.4396H23.9366V34.5596Z" fill="#FEFFDC"/>
<path d="M23.9366 31.6802H20.9412V34.5602H23.9366V31.6802Z" fill="#FEFFDC"/>
<path d="M23.9366 28.8003H20.9412V31.6803H23.9366V28.8003Z" fill="#473D61"/>
<path d="M23.9366 25.9204H20.9412V28.8004H23.9366V25.9204Z" fill="#FEFFDC"/>
<path d="M23.9366 23.0396H20.9412V25.9196H23.9366V23.0396Z" fill="#473D61"/>
<path d="M23.9366 20.1602H20.9412V23.0402H23.9366V20.1602Z" fill="#473D61"/>
<path d="M23.9366 17.2803V20.1603H20.9412V17.2803H23.9298H23.9366Z" fill="#FFE3B8"/>
<path d="M23.9365 11.52H23.9297V14.4H23.9365V11.52Z" fill="#FFB379"/>
<path d="M23.9366 8.64062V11.5206H23.9298H20.9412V8.64062H23.9366Z" fill="#FFB379"/>
<path d="M23.9366 5.75977H20.9412V8.63977H23.9366V5.75977Z" fill="#473D61"/>
<path d="M23.9298 14.3999H20.9412V17.2799H23.9298V14.3999Z" fill="#FFB379"/>
<path d="M23.9298 11.52H20.9412V14.4H23.9298V11.52Z" fill="#FFB379"/>
<path d="M20.9411 37.4404H17.9524V40.3204H20.9411V37.4404Z" fill="#FEFFDC"/>
<path d="M20.9411 34.5596H17.9524V37.4396H20.9411V34.5596Z" fill="#FEFFDC"/>
<path d="M20.9411 31.6802H17.9524V34.5602H20.9411V31.6802Z" fill="#FEFFDC"/>
<path d="M20.9411 28.8003H17.9524V31.6803H20.9411V28.8003Z" fill="#473D61"/>
<path d="M20.9411 25.9204H17.9524V28.8004H20.9411V25.9204Z" fill="#FEFFDC"/>
<path d="M20.9411 23.0396H17.9524V25.9196H20.9411V23.0396Z" fill="#FEFFDC"/>
<path d="M20.9411 20.1602H17.9524V23.0402H20.9411V20.1602Z" fill="#FEFFDC"/>
<path d="M20.9411 17.2803H17.9524V20.1603H20.9411V17.2803Z" fill="#FFE3B8"/>
<path d="M20.9411 14.3999H17.9524V17.2799H20.9411V14.3999Z" fill="#FFB379"/>
<path d="M20.9411 11.52H17.9524V14.4H20.9411V11.52Z" fill="#FFB379"/>
<path d="M20.9411 8.64062H17.9524V11.5206H20.9411V8.64062Z" fill="#FFB379"/>
<path d="M20.9411 5.75977H17.9524V8.63977H20.9411V5.75977Z" fill="#FFB379"/>
<path d="M20.9411 2.87988H17.9524V5.75989H20.9411V2.87988Z" fill="#473D61"/>
<path d="M17.9524 37.4404H14.9569V40.3204H17.9524V37.4404Z" fill="#FEFFDC"/>
<path d="M17.9524 34.5596H14.9569V37.4396H17.9524V34.5596Z" fill="#FEFFDC"/>
<path d="M17.9524 31.6802H14.9569V34.5602H17.9524V31.6802Z" fill="#FEFFDC"/>
<path d="M17.9524 28.8003H14.9569V31.6803H17.9524V28.8003Z" fill="#FEFFDC"/>
<path d="M17.9524 25.9204H14.9569V28.8004H17.9524V25.9204Z" fill="#473D61"/>
<path d="M17.9524 23.0396H14.9569V25.9196H17.9524V23.0396Z" fill="#FEFFDC"/>
<path d="M17.9524 20.1602H14.9569V23.0402H17.9524V20.1602Z" fill="#473D61"/>
<path d="M17.9524 17.2803V20.1603H14.9569V17.2803H17.9456H17.9524Z" fill="#473D61"/>
<path d="M17.9525 14.3999H17.9457V17.2799H17.9525V14.3999Z" fill="#FFB379"/>
<path d="M17.9524 11.52V14.4H17.9456H14.9569V11.52H17.9524Z" fill="#C66656"/>
<path d="M17.9524 8.64062H14.9569V11.5206H17.9524V8.64062Z" fill="#C66656"/>
<path d="M17.9524 5.75977H14.9569V8.63977H17.9524V5.75977Z" fill="#C66656"/>
<path d="M17.9524 2.87988H14.9569V5.75989H17.9524V2.87988Z" fill="#C66656"/>
<path d="M17.9524 0H14.9569V2.88H17.9524V0Z" fill="#473D61"/>
<path d="M17.9456 14.3999H14.9569V17.2799H17.9456V14.3999Z" fill="#FFB379"/>
<path d="M14.9568 37.4404H11.9681V40.3204H14.9568V37.4404Z" fill="#FEFFDC"/>
<path d="M14.9568 34.5596H11.9681V37.4396H14.9568V34.5596Z" fill="#FFE3B8"/>
<path d="M14.9568 31.6802H11.9681V34.5602H14.9568V31.6802Z" fill="#FEFFDC"/>
<path d="M14.9568 28.8003H11.9681V31.6803H14.9568V28.8003Z" fill="#FEFFDC"/>
<path d="M14.9568 25.9204H11.9681V28.8004H14.9568V25.9204Z" fill="#FEFFDC"/>
<path d="M14.9568 23.0396H11.9681V25.9196H14.9568V23.0396Z" fill="#FEFFDC"/>
<path d="M14.9568 20.1602H11.9681V23.0402H14.9568V20.1602Z" fill="#473D61"/>
<path d="M14.9568 17.2803H11.9681V20.1603H14.9568V17.2803Z" fill="white"/>
<path d="M14.9568 14.3999H11.9681V17.2799H14.9568V14.3999Z" fill="#FFB379"/>
<path d="M14.9568 11.52H11.9681V14.4H14.9568V11.52Z" fill="#C66656"/>
<path d="M14.9568 8.64062H11.9681V11.5206H14.9568V8.64062Z" fill="#E77560"/>
<path d="M14.9568 5.75977H11.9681V8.63977H14.9568V5.75977Z" fill="#E77560"/>
<path d="M14.9568 2.87988H11.9681V5.75989H14.9568V2.87988Z" fill="#E77560"/>
<path d="M14.9568 0H11.9681V2.88H14.9568V0Z" fill="#473D61"/>
<path d="M11.9683 37.4404H8.97278V40.3204H11.9683V37.4404Z" fill="#FEFFDC"/>
<path d="M11.9683 34.5596H8.97278V37.4396H11.9683V34.5596Z" fill="#FFE3B8"/>
<path d="M11.9683 31.6802H8.97278V34.5602H11.9683V31.6802Z" fill="#FFE3B8"/>
<path d="M11.9683 28.8003H8.97278V31.6803H11.9683V28.8003Z" fill="#FEFFDC"/>
<path d="M11.9683 25.9204H8.97278V28.8004H11.9683V25.9204Z" fill="#FEFFDC"/>
<path d="M11.9683 23.0396H8.97278V25.9196H11.9683V23.0396Z" fill="#FEFFDC"/>
<path d="M11.9683 20.1602H8.97278V23.0402H11.9683V20.1602Z" fill="#FEFFDC"/>
<path d="M11.9683 17.2803H8.97278V20.1603H11.9683V17.2803Z" fill="#FFB379"/>
<path d="M11.9683 14.3999H8.97278V17.2799H11.9683V14.3999Z" fill="#FFB379"/>
<path d="M11.9683 11.52H8.97278V14.4H11.9683V11.52Z" fill="#473D61"/>
<path d="M11.9683 8.64062H8.97278V11.5206H11.9683V8.64062Z" fill="#473D61"/>
<path d="M11.9683 5.75977V8.63977H8.97278V5.75977H11.9615H11.9683Z" fill="#473D61"/>
<path d="M11.9615 2.87988H8.97278V5.75989H11.9615V2.87988Z" fill="#473D61"/>
<path d="M8.97281 37.4404H5.98413V40.3204H8.97281V37.4404Z" fill="#FFB379"/>
<path d="M8.97281 34.5596H5.98413V37.4396H8.97281V34.5596Z" fill="#FFB379"/>
<path d="M8.97281 31.6802H5.98413V34.5602H8.97281V31.6802Z" fill="#473D61"/>
<path d="M8.97281 28.8003H5.98413V31.6803H8.97281V28.8003Z" fill="#FFB379"/>
<path d="M8.97281 25.9204H5.98413V28.8004H8.97281V25.9204Z" fill="#FFB379"/>
<path d="M8.97281 23.0396H5.98413V25.9196H8.97281V23.0396Z" fill="#FFB379"/>
<path d="M8.97281 20.1602H5.98413V23.0402H8.97281V20.1602Z" fill="#FFB379"/>
<path d="M8.97281 17.2803H5.98413V20.1603H8.97281V17.2803Z" fill="#FFB379"/>
<path d="M8.97281 14.3999H5.98413V17.2799H8.97281V14.3999Z" fill="#473D61"/>
<path d="M5.984 37.4404H2.98853V40.3204H5.984V37.4404Z" fill="#473D61"/>
<path d="M5.984 34.5596H2.98853V37.4396H5.984V34.5596Z" fill="#473D61"/>
<path d="M5.984 28.8003H2.98853V31.6803H5.984V28.8003Z" fill="#473D61"/>
<path d="M5.984 25.9204H2.98853V28.8004H5.984V25.9204Z" fill="#473D61"/>
<path d="M5.984 23.0396H2.98853V25.9196H5.984V23.0396Z" fill="#473D61"/>
<path d="M5.984 20.1602H2.98853V23.0402H5.984V20.1602Z" fill="#473D61"/>
<path d="M5.984 17.2803H2.98853V20.1603H5.984V17.2803Z" fill="#473D61"/>
<path d="M47.8732 57.6006H44.8777V60.4806H47.8732V57.6006Z" fill="#473D61"/>
<path d="M47.8732 54.7207H44.8777V57.6007H47.8732V54.7207Z" fill="#473D61"/>
<path d="M47.8732 51.8408H44.8777V54.7208H47.8732V51.8408Z" fill="#473D61"/>
<path d="M47.8732 48.96H44.8777V51.84H47.8732V48.96Z" fill="#473D61"/>
<path d="M47.8732 46.0801H44.8777V48.9601H47.8732V46.0801Z" fill="#473D61"/>
<path d="M47.8732 43.2007H44.8777V46.0807H47.8732V43.2007Z" fill="#473D61"/>
<path d="M47.8732 40.3203H44.8777V43.2003H47.8732V40.3203Z" fill="#473D61"/>
<path d="M44.8778 60.4805H41.8892V63.3605H44.8778V60.4805Z" fill="#473D61"/>
<path d="M44.8778 57.6006H41.8892V60.4806H44.8778V57.6006Z" fill="#473D61"/>
<path d="M44.8778 54.7207H41.8892V57.6007H44.8778V54.7207Z" fill="#FFB379"/>
<path d="M44.8778 51.8408H41.8892V54.7208H44.8778V51.8408Z" fill="#FFB379"/>
<path d="M44.8778 48.96H41.8892V51.84H44.8778V48.96Z" fill="#FFB379"/>
<path d="M44.8778 46.0801H41.8892V48.9601H44.8778V46.0801Z" fill="#FFB379"/>
<path d="M44.8778 43.2007H41.8892V46.0807H44.8778V43.2007Z" fill="#FFB379"/>
<path d="M44.8778 40.3203H41.8892V43.2003H44.8778V40.3203Z" fill="#FFB379"/>
<path d="M41.8892 63.3604H38.8937V66.2404H41.8892V63.3604Z" fill="#473D61"/>
<path d="M41.8892 60.4805H38.8937V63.3605H41.8892V60.4805Z" fill="#FFB379"/>
<path d="M41.8892 57.6006H38.8937V60.4806H41.8892V57.6006Z" fill="#FFB379"/>
<path d="M41.8892 54.7207H38.8937V57.6007H41.8892V54.7207Z" fill="#FFB379"/>
<path d="M41.8892 51.8408H38.8937V54.7208H41.8892V51.8408Z" fill="#FEFFDC"/>
<path d="M41.8892 48.96H38.8937V51.84H41.8892V48.96Z" fill="#FEFFDC"/>
<path d="M41.8892 46.0801H38.8937V48.9601H41.8892V46.0801Z" fill="#FEFFDC"/>
<path d="M41.8892 43.2007H38.8937V46.0807H41.8892V43.2007Z" fill="#FEFFDC"/>
<path d="M41.8892 40.3203H38.8937V43.2003H41.8892V40.3203Z" fill="#FFB379"/>
<path d="M38.8937 66.2402H35.905V69.1202H38.8937V66.2402Z" fill="#473D61"/>
<path d="M38.8937 63.3604H35.905V66.2404H38.8937V63.3604Z" fill="#FFB379"/>
<path d="M38.8937 60.4805H35.905V63.3605H38.8937V60.4805Z" fill="#FEFFDC"/>
<path d="M38.8937 57.6006H35.905V60.4806H38.8937V57.6006Z" fill="#FEFFDC"/>
<path d="M38.8937 54.7207H35.905V57.6007H38.8937V54.7207Z" fill="#FEFFDC"/>
<path d="M38.8937 51.8408H35.905V54.7208H38.8937V51.8408Z" fill="#FEFFDC"/>
<path d="M38.8937 48.96H35.905V51.84H38.8937V48.96Z" fill="#FFE3B8"/>
<path d="M38.8937 46.0801H35.905V48.9601H38.8937V46.0801Z" fill="#FEFFDC"/>
<path d="M38.8937 43.2007H35.905V46.0807H38.8937V43.2007Z" fill="#FEFFDC"/>
<path d="M38.8937 40.3203H35.905V43.2003H38.8937V40.3203Z" fill="#FFE3B8"/>
<path d="M35.9049 69.1196H32.9094V71.9996H35.9049V69.1196Z" fill="#473D61"/>
<path d="M35.9049 66.2402H32.9094V69.1202H35.9049V66.2402Z" fill="#FFB379"/>
<path d="M35.9049 63.3604H32.9094V66.2404H35.9049V63.3604Z" fill="#FEFFDC"/>
<path d="M35.9049 60.4805H32.9094V63.3605H35.9049V60.4805Z" fill="#FEFFDC"/>
<path d="M35.9049 57.6006H32.9094V60.4806H35.9049V57.6006Z" fill="#FEFFDC"/>
<path d="M35.9049 54.7207H32.9094V57.6007H35.9049V54.7207Z" fill="#FEFFDC"/>
<path d="M35.9049 51.8408H32.9094V54.7208H35.9049V51.8408Z" fill="#FEFFDC"/>
<path d="M35.9049 48.96H32.9094V51.84H35.9049V48.96Z" fill="#FFE3B8"/>
<path d="M35.9049 46.0801H32.9094V48.9601H35.9049V46.0801Z" fill="#FEFFDC"/>
<path d="M35.9049 43.2007H32.9094V46.0807H35.9049V43.2007Z" fill="#FEFFDC"/>
<path d="M35.9049 40.3203H32.9094V43.2003H35.9049V40.3203Z" fill="#FFE3B8"/>
<path d="M32.9096 69.1196H29.9209V71.9996H32.9096V69.1196Z" fill="#473D61"/>
<path d="M32.9096 66.2402H29.9209V69.1202H32.9096V66.2402Z" fill="#FFB379"/>
<path d="M32.9096 63.3604H29.9209V66.2404H32.9096V63.3604Z" fill="#FEFFDC"/>
<path d="M32.9096 60.4805H29.9209V63.3605H32.9096V60.4805Z" fill="#FEFFDC"/>
<path d="M32.9096 57.6006H29.9209V60.4806H32.9096V57.6006Z" fill="#FEFFDC"/>
<path d="M32.9096 54.7207H29.9209V57.6007H32.9096V54.7207Z" fill="#FEFFDC"/>
<path d="M32.9096 51.8408H29.9209V54.7208H32.9096V51.8408Z" fill="#FEFFDC"/>
<path d="M32.9096 48.96H29.9209V51.84H32.9096V48.96Z" fill="#FEFFDC"/>
<path d="M32.9096 46.0801H29.9209V48.9601H32.9096V46.0801Z" fill="#FFE3B8"/>
<path d="M32.9096 43.2007H29.9209V46.0807H32.9096V43.2007Z" fill="#FFE3B8"/>
<path d="M32.9096 40.3203H29.9209V43.2003H32.9096V40.3203Z" fill="#FEFFDC"/>
<path d="M29.9209 69.1196H26.9254V71.9996H29.9209V69.1196Z" fill="#473D61"/>
<path d="M29.9209 66.2402H26.9254V69.1202H29.9209V66.2402Z" fill="#FFB379"/>
<path d="M29.9209 63.3604H26.9254V66.2404H29.9209V63.3604Z" fill="#FEFFDC"/>
<path d="M29.9209 60.4805H26.9254V63.3605H29.9209V60.4805Z" fill="#FEFFDC"/>
<path d="M29.9209 57.6006H26.9254V60.4806H29.9209V57.6006Z" fill="#FEFFDC"/>
<path d="M29.9209 54.7207H26.9254V57.6007H29.9209V54.7207Z" fill="#FEFFDC"/>
<path d="M29.9209 51.8408H26.9254V54.7208H29.9209V51.8408Z" fill="#FEFFDC"/>
<path d="M29.9209 48.96H26.9254V51.84H29.9209V48.96Z" fill="#FEFFDC"/>
<path d="M29.9209 46.0801H26.9254V48.9601H29.9209V46.0801Z" fill="#FEFFDC"/>
<path d="M29.9209 43.2007H26.9254V46.0807H29.9209V43.2007Z" fill="#FEFFDC"/>
<path d="M29.9209 40.3203H26.9254V43.2003H29.9209V40.3203Z" fill="#FEFFDC"/>
<path d="M26.9253 69.1196H23.9366V71.9996H26.9253V69.1196Z" fill="#473D61"/>
<path d="M26.9253 66.2402H23.9366V69.1202H26.9253V66.2402Z" fill="#FFB379"/>
<path d="M26.9253 63.3604H23.9366V66.2404H26.9253V63.3604Z" fill="#FEFFDC"/>
<path d="M26.9253 60.4805H23.9366V63.3605H26.9253V60.4805Z" fill="#FEFFDC"/>
<path d="M26.9253 57.6006H23.9366V60.4806H26.9253V57.6006Z" fill="#FEFFDC"/>
<path d="M26.9253 54.7207H23.9366V57.6007H26.9253V54.7207Z" fill="#FEFFDC"/>
<path d="M26.9253 51.8408H23.9366V54.7208H26.9253V51.8408Z" fill="#FEFFDC"/>
<path d="M26.9253 48.96H23.9366V51.84H26.9253V48.96Z" fill="#FEFFDC"/>
<path d="M26.9253 46.0801H23.9366V48.9601H26.9253V46.0801Z" fill="#FEFFDC"/>
<path d="M26.9253 43.2007H23.9366V46.0807H26.9253V43.2007Z" fill="#FEFFDC"/>
<path d="M26.9253 40.3203H23.9366V43.2003H26.9253V40.3203Z" fill="#FEFFDC"/>
<path d="M23.9366 69.1196H20.9412V71.9996H23.9366V69.1196Z" fill="#473D61"/>
<path d="M23.9366 66.2402H20.9412V69.1202H23.9366V66.2402Z" fill="#FFB379"/>
<path d="M23.9366 63.3604H20.9412V66.2404H23.9366V63.3604Z" fill="#FEFFDC"/>
<path d="M23.9366 60.4805H20.9412V63.3605H23.9366V60.4805Z" fill="#FEFFDC"/>
<path d="M23.9366 57.6006H20.9412V60.4806H23.9366V57.6006Z" fill="#FEFFDC"/>
<path d="M23.9366 54.7207H20.9412V57.6007H23.9366V54.7207Z" fill="#FEFFDC"/>
<path d="M23.9366 51.8408H20.9412V54.7208H23.9366V51.8408Z" fill="#FEFFDC"/>
<path d="M23.9366 48.96H20.9412V51.84H23.9366V48.96Z" fill="#FEFFDC"/>
<path d="M23.9366 46.0801H20.9412V48.9601H23.9366V46.0801Z" fill="#FEFFDC"/>
<path d="M23.9366 43.2007H20.9412V46.0807H23.9366V43.2007Z" fill="#FEFFDC"/>
<path d="M23.9366 40.3203H20.9412V43.2003H23.9366V40.3203Z" fill="#FEFFDC"/>
<path d="M20.9412 69.1196H17.9525V71.9996H20.9412V69.1196Z" fill="#473D61"/>
<path d="M20.9412 66.2402H17.9525V69.1202H20.9412V66.2402Z" fill="#FFB379"/>
<path d="M20.9412 63.3604H17.9525V66.2404H20.9412V63.3604Z" fill="#FEFFDC"/>
<path d="M20.9412 60.4805H17.9525V63.3605H20.9412V60.4805Z" fill="#FEFFDC"/>
<path d="M20.9412 57.6006H17.9525V60.4806H20.9412V57.6006Z" fill="#FEFFDC"/>
<path d="M20.9412 54.7207H17.9525V57.6007H20.9412V54.7207Z" fill="#FEFFDC"/>
<path d="M20.9412 51.8408H17.9525V54.7208H20.9412V51.8408Z" fill="#FEFFDC"/>
<path d="M20.9412 48.96H17.9525V51.84H20.9412V48.96Z" fill="#FEFFDC"/>
<path d="M20.9412 46.0801H17.9525V48.9601H20.9412V46.0801Z" fill="#FEFFDC"/>
<path d="M20.9412 43.2007H17.9525V46.0807H20.9412V43.2007Z" fill="#FEFFDC"/>
<path d="M20.9412 40.3203H17.9525V43.2003H20.9412V40.3203Z" fill="#FEFFDC"/>
<path d="M17.9524 69.1196H14.9569V71.9996H17.9524V69.1196Z" fill="#473D61"/>
<path d="M17.9524 66.2402H14.9569V69.1202H17.9524V66.2402Z" fill="#FFB379"/>
<path d="M17.9524 63.3604H14.9569V66.2404H17.9524V63.3604Z" fill="#FEFFDC"/>
<path d="M17.9524 60.4805H14.9569V63.3605H17.9524V60.4805Z" fill="#FEFFDC"/>
<path d="M17.9524 57.6006H14.9569V60.4806H17.9524V57.6006Z" fill="#FEFFDC"/>
<path d="M17.9524 54.7207H14.9569V57.6007H17.9524V54.7207Z" fill="#FEFFDC"/>
<path d="M17.9524 51.8408H14.9569V54.7208H17.9524V51.8408Z" fill="#FEFFDC"/>
<path d="M17.9524 48.96H14.9569V51.84H17.9524V48.96Z" fill="#FEFFDC"/>
<path d="M17.9524 46.0801H14.9569V48.9601H17.9524V46.0801Z" fill="#FFE3B8"/>
<path d="M17.9524 43.2007H14.9569V46.0807H17.9524V43.2007Z" fill="#FFE3B8"/>
<path d="M17.9524 40.3203H14.9569V43.2003H17.9524V40.3203Z" fill="#FEFFDC"/>
<path d="M14.9568 69.1196H11.9681V71.9996H14.9568V69.1196Z" fill="#473D61"/>
<path d="M14.9568 66.2402H11.9681V69.1202H14.9568V66.2402Z" fill="#FFB379"/>
<path d="M14.9568 63.3604H11.9681V66.2404H14.9568V63.3604Z" fill="#FFB379"/>
<path d="M14.9568 60.4805H11.9681V63.3605H14.9568V60.4805Z" fill="#FEFFDC"/>
<path d="M14.9568 57.6006H11.9681V60.4806H14.9568V57.6006Z" fill="#FEFFDC"/>
<path d="M14.9568 54.7207H11.9681V57.6007H14.9568V54.7207Z" fill="#FEFFDC"/>
<path d="M14.9568 51.8408H11.9681V54.7208H14.9568V51.8408Z" fill="#FEFFDC"/>
<path d="M14.9568 48.96H11.9681V51.84H14.9568V48.96Z" fill="#FFE3B8"/>
<path d="M14.9568 46.0801H11.9681V48.9601H14.9568V46.0801Z" fill="#FEFFDC"/>
<path d="M14.9568 43.2007H11.9681V46.0807H14.9568V43.2007Z" fill="#FEFFDC"/>
<path d="M14.9568 40.3203H11.9681V43.2003H14.9568V40.3203Z" fill="#FFE3B8"/>
<path d="M11.9683 66.2402H8.97278V69.1202H11.9683V66.2402Z" fill="#473D61"/>
<path d="M11.9683 63.3604H8.97278V66.2404H11.9683V63.3604Z" fill="#FFB379"/>
<path d="M11.9683 60.4805H8.97278V63.3605H11.9683V60.4805Z" fill="#FFB379"/>
<path d="M11.9683 57.6006H8.97278V60.4806H11.9683V57.6006Z" fill="#FEFFDC"/>
<path d="M11.9683 54.7207H8.97278V57.6007H11.9683V54.7207Z" fill="#FEFFDC"/>
<path d="M11.9683 51.8408H8.97278V54.7208H11.9683V51.8408Z" fill="#FEFFDC"/>
<path d="M11.9683 48.96H8.97278V51.84H11.9683V48.96Z" fill="#FFE3B8"/>
<path d="M11.9683 46.0801H8.97278V48.9601H11.9683V46.0801Z" fill="#FEFFDC"/>
<path d="M11.9683 43.2007H8.97278V46.0807H11.9683V43.2007Z" fill="#FEFFDC"/>
<path d="M11.9683 40.3203H8.97278V43.2003H11.9683V40.3203Z" fill="#FFE3B8"/>
<path d="M8.97293 63.3604H5.98425V66.2404H8.97293V63.3604Z" fill="#473D61"/>
<path d="M8.97293 60.4805H5.98425V63.3605H8.97293V60.4805Z" fill="#FFB379"/>
<path d="M8.97293 57.6006H5.98425V60.4806H8.97293V57.6006Z" fill="#FFB379"/>
<path d="M8.97293 54.7207H5.98425V57.6007H8.97293V54.7207Z" fill="#FFB379"/>
<path d="M8.97293 51.8408H5.98425V54.7208H8.97293V51.8408Z" fill="#FEFFDC"/>
<path d="M8.97293 48.96H5.98425V51.84H8.97293V48.96Z" fill="#FEFFDC"/>
<path d="M8.97293 46.0801H5.98425V48.9601H8.97293V46.0801Z" fill="#FEFFDC"/>
<path d="M8.97293 43.2007H5.98425V46.0807H8.97293V43.2007Z" fill="#FEFFDC"/>
<path d="M8.97293 40.3203H5.98425V43.2003H8.97293V40.3203Z" fill="#FFB379"/>
<path d="M5.98424 60.4805H2.98877V63.3605H5.98424V60.4805Z" fill="#473D61"/>
<path d="M5.98424 57.6006H2.98877V60.4806H5.98424V57.6006Z" fill="#473D61"/>
<path d="M5.98424 54.7207H2.98877V57.6007H5.98424V54.7207Z" fill="#FFB379"/>
<path d="M5.98424 51.8408H2.98877V54.7208H5.98424V51.8408Z" fill="#FFB379"/>
<path d="M5.98424 48.96H2.98877V51.84H5.98424V48.96Z" fill="#FFB379"/>
<path d="M5.98424 46.0801H2.98877V48.9601H5.98424V46.0801Z" fill="#FFB379"/>
<path d="M5.98424 43.2007H2.98877V46.0807H5.98424V43.2007Z" fill="#FFB379"/>
<path d="M5.98424 40.3203H2.98877V43.2003H5.98424V40.3203Z" fill="#FFB379"/>
<path d="M2.98868 54.7207H0V57.6007H2.98868V54.7207Z" fill="#473D61"/>
<path d="M2.98868 51.8408H0V54.7208H2.98868V51.8408Z" fill="#473D61"/>
<path d="M2.98868 48.96H0V51.84H2.98868V48.96Z" fill="#473D61"/>
<path d="M2.98868 46.0801H0V48.9601H2.98868V46.0801Z" fill="#473D61"/>
<path d="M2.98868 43.2007H0V46.0807H2.98868V43.2007Z" fill="#473D61"/>
<path d="M2.98868 40.3203H0V43.2003H2.98868V40.3203Z" fill="#473D61"/>
</svg>
