<svg width="54" height="54" viewBox="0 0 54 54" fill="none" xmlns="http://www.w3.org/2000/svg">
<g clip-path="url(#clip0_635_1707)">
<path d="M42.0029 26.0047V28.0045V30.0061V31.9987H44.0045V30.0061V28.0045V26.0047V24.0031V22.0015H42.0029V24.0031V26.0047Z" fill="#E77560"/>
<path d="M41.3153 35.9999H42.0029V31.9985H41.3153V35.9999Z" fill="#E77560"/>
<path d="M40.0394 18.7652V21.2492H41.3156V22.0034H42.0032V18.002H40.0016V18.767H40.0376L40.0394 18.7652Z" fill="#E77560"/>
<path d="M38.8456 18.0001H40.003V15.9985H38.8456V18.0001Z" fill="#E77560"/>
<path d="M35.6329 41.5942V42.0028H36.0001V41.5942H35.6329Z" fill="#E77560"/>
<path d="M22.0016 44.0049H24.0032H26.0048H28.0046H29.9972H31.9988V43.4937H22.0016V44.0049Z" fill="#E77560"/>
<path d="M22.293 11.0682V12.006H31.6278V11.1744H31.9986V10.0044H22.0032V11.0682H22.293Z" fill="#E77560"/>
<path d="M18 41.9614V42.0028H20.7594V41.9614H18Z" fill="#E77560"/>
<path d="M16.0198 14.0078H15.9982V16.0004H16.0198V14.0078Z" fill="#E77560"/>
<path d="M14.6824 16.2991H15.9982V15.9985H13.9984V17.5303H14.6824V16.2991Z" fill="#E77560"/>
<path d="M13.4227 32.4017H12.0295V31.9985H12.0043V35.9999H13.4209V32.4017H13.4227Z" fill="#E77560"/>
<path d="M12.0059 22.0014H12.0311V21.2778H13.4027V18H12.0077V22.0014H12.0059Z" fill="#E77560"/>
<path d="M12.0061 28.0045V26.0047V24.0031V22.0015H10.0045V24.0031V26.0047V28.0045V30.0061V31.9987H12.0061V30.0061V28.0045Z" fill="#E77560"/>
<path d="M49.9987 33.9985H47.9971V36.0001V38.0017H49.9987V36.0001V33.9985Z" fill="#FFE3B8"/>
<path d="M51.9985 30.0061V28.0045V26.0047V24.0031V22.0015V20.0017H49.9987V18.0001V15.9985H47.9971V18.0001V20.0017V22.0015H49.9987V24.0031V26.0047V28.0045V30.0061V31.9987V33.9985H51.9985V31.9987V30.0061Z" fill="#FFE3B8"/>
<path d="M47.9971 38.0015H46.0045V40.0013V42.0029H47.9971V40.0013V38.0015Z" fill="#FFE3B8"/>
<path d="M46.0045 14.0075V15.9983H47.9971V14.0075V12.0059H46.0045V14.0075Z" fill="#FFE3B8"/>
<path d="M46.0064 42.0029H44.0048V44.0045H46.0064V42.0029Z" fill="#FFE3B8"/>
<path d="M46.0064 10.0044H44.0048V12.006H46.0064V10.0044Z" fill="#FFE3B8"/>
<path d="M44.0045 44.0049H42.0029V46.0065H44.0045V44.0049Z" fill="#FFE3B8"/>
<path d="M44.0045 8.00439H42.0029V10.006H44.0045V8.00439Z" fill="#FFE3B8"/>
<path d="M38.0018 6.00293V8.00453H40.0016H42.0032V6.00293H40.0016H38.0018Z" fill="#FFE3B8"/>
<path d="M40.0016 46.0044H38.0018V48.006H40.0016H42.0032V46.0044H40.0016Z" fill="#FFE3B8"/>
<path d="M33.9982 4.00146V6.00306H35.9998H38.0014V4.00146H35.9998H33.9982Z" fill="#FFE3B8"/>
<path d="M35.9998 48.0059H33.9982V49.9985H35.9998H38.0014V48.0059H35.9998Z" fill="#FFE3B8"/>
<path d="M31.9988 49.9985H29.9972H28.0046H26.0048H24.0032H22.0016H20.0018V51.9983H22.0016H24.0032H26.0048H28.0046H29.9972H31.9988H33.9986V49.9985H31.9988Z" fill="#FFE3B8"/>
<path d="M29.9971 4.00146H28.0045V6.00306H29.9971V4.00146Z" fill="#FFE3B8"/>
<path d="M28.0043 12.0059H22.2911V12.5621H31.6259V12.0059H28.0025H28.0043Z" fill="#FFE3B8"/>
<path d="M24.0032 4.00146H22.0016V6.00306H24.0032V4.00146Z" fill="#FFE3B8"/>
<path d="M22.0034 6.00293H20.0018V8.00453H22.0034V6.00293Z" fill="#FFE3B8"/>
<path d="M20.0014 49.9985V48.0059H17.9998H15.9982V49.9985H17.9998H20.0014Z" fill="#FFE3B8"/>
<path d="M16.0198 16.2991V15.9985H15.9982V16.2991H16.0198Z" fill="#FFE3B8"/>
<path d="M15.9984 12.0061H16.02V8.69413H16.7832V8.68873H19.9638V9.84613H19.9998V8.00293H15.9984V10.0045H13.9968V12.0061H15.9984Z" fill="#FFE3B8"/>
<path d="M15.9983 48.006V46.0044H13.9985H12.0059V48.006H13.9985H15.9983Z" fill="#FFE3B8"/>
<path d="M12.0311 22.0015H12.0059V31.9969H12.0311V22.0015Z" fill="#FFE3B8"/>
<path d="M13.9985 12.0059H12.0059V14.0075H13.9985V12.0059Z" fill="#FFE3B8"/>
<path d="M8.00476 20.0018H10.0046V18.0002H12.0062V15.9986V14.0078H10.0046V15.9986H8.00476V18.0002V20.0018Z" fill="#FFE3B8"/>
<path d="M8.00453 20.0015H6.00293V22.0031H8.00453V20.0015Z" fill="#FFE3B8"/>
<path d="M6.00319 22.0015H4.00159V24.0031H6.00319V22.0015Z" fill="#FFE3B8"/>
<path d="M49.9987 31.9985H47.9971V34.0001H49.9987V31.9985Z" fill="#F7B279"/>
<path d="M46.0045 24.0029V26.0045H44.0029V31.9985H42.0013V35.9999H44.0029V33.9983H46.0045V31.9967H47.9971V30.0041H49.9987V21.9995H47.9971V24.0011H46.0045V24.0029ZM43.6663 35.7227H43.6573V35.2583H43.6663V35.7227Z" fill="#F7B279"/>
<path d="M46.0042 36.0001H44.0044V38.0017H42.0028V40.0015H40.0012V42.0031H38.0014V44.0047H35.9998V46.0045H33.9982V48.0061H35.9998H38.0014V46.0045H40.0012H42.0028V44.0047H44.0044V42.0031H46.0042V40.0015V38.0017H47.9968V36.0001V33.9985H46.0042V36.0001Z" fill="#F7B279"/>
<path d="M46.0046 14.0075V12.0059H44.0048H42.0032V14.0075H40.0016V15.9983V17.9999H42.0032V20.0015V22.0013H44.0048V24.0029H46.0046V22.0013H47.9972V20.0015V17.9999V15.9983H46.0046V14.0075Z" fill="#F7B279"/>
<path d="M41.3155 36.8404H40.0735V37.9996H42.0031V35.998H41.3155V36.8386V36.8404Z" fill="#F7B279"/>
<path d="M41.3153 30.0059V31.9985H42.0029V30.0059H41.3153Z" fill="#F7B279"/>
<path d="M39.3463 38.5977V39.7137H38.1187V40.0017H40.0033V38.5977H39.3481H39.3463Z" fill="#F7B279"/>
<path d="M36.855 40.4764V41.5924H36V42.001H38.0016V40.4746H36.8568L36.855 40.4764Z" fill="#F7B279"/>
<path d="M34 48.0059H31.9984V49.9985H34V48.0059Z" fill="#F7B279"/>
<path d="M31.9986 48.0063V46.0047H34.0002V44.0031H36.0018V42.0015H35.6346V42.3021H32.9508V42.7323H32.1876V42.7287H32.0004H32.1786V43.4919H32.0004V44.0031H26.0064V46.0047H24.0048V48.0063H22.0032V49.9989H29.9988V48.0063H32.0004H31.9986Z" fill="#F7B279"/>
<path d="M25.6232 18.24L25.6273 18.2358L25.6232 18.24Z" fill="#F7B279"/>
<path d="M21.5927 25.4556L24.0029 25.4592V25.4556H21.5927Z" fill="#F7B279"/>
<path d="M21.5857 16.2197H21.5839V16.9937H21.6631H21.5857V16.2197Z" fill="#F7B279"/>
<path d="M22.0015 46.0046H24.0031V44.003H22.0015V43.4918H21.5227V43.3838H21.5029V42.7214H20.7595V42.0032H18.0001V41.9618H17.9281V41.1986H16.7347V40.5218L15.4567 40.5848V40.0034H13.9969V42.005H12.0043V46.0064H15.9967V48.008H21.9997V46.0064L22.0015 46.0046Z" fill="#F7B279"/>
<path d="M22.0016 8.00467V10.0063H31.997V11.1763H32.744V9.85507H33.8258V8.51587H37.5968V9.91447H38.846V10.0063H40.0034V8.00467H38.0018V6.00306H34.0004V4.00146H29.999V6.00306H28.0064V4.00146H26.0048V6.00306H24.0032V8.00467H22.0016Z" fill="#F7B279"/>
<path d="M36.8334 9.42494V9.27734H36.4788V9.42494H36.8334Z" fill="#F7B279"/>
<path d="M38.8456 18.765H40.003V18H38.8456V18.765Z" fill="#F7B279"/>
<path d="M41.3153 28.0045H42.0029V22.0015H41.3153V28.0045Z" fill="#F7B279"/>
<path d="M21.0979 11.0682H22.0033V10.0044H21.0979V11.0682Z" fill="#F7B279"/>
<path d="M22.0034 4.00146H20.0018V6.00306H22.0034V4.00146Z" fill="#F7B279"/>
<path d="M20.0014 8.00453V6.00293H17.9998H15.9982V8.00453H17.9998H20.0014Z" fill="#F7B279"/>
<path d="M16 12.0059H13.9984V14.0075H16V12.0059Z" fill="#F7B279"/>
<path d="M16 8.00439H13.9984V10.006H16V8.00439Z" fill="#F7B279"/>
<path d="M13.9985 14.0078H12.0059V16.0004H13.9985V14.0078Z" fill="#F7B279"/>
<path d="M13.9985 10.0044H12.0059V12.006H13.9985V10.0044Z" fill="#F7B279"/>
<path d="M10.0046 38.0017H12.0062V36.0001V33.9985V31.9987H10.0046V30.0061V28.0045V26.0047V24.0031V22.0015H8.00479V24.0031H6.00319V26.0047H4.00159V28.0045V30.0061V31.9987V33.9985H6.00319V36.0001V38.0017H8.00479V40.0015H10.0046V38.0017Z" fill="#F7B279"/>
<path d="M12.0061 20.0015H10.0045V22.0031H12.0061V20.0015Z" fill="#F7B279"/>
<path d="M12.0061 12.0059H10.0045V14.0075H12.0061V12.0059Z" fill="#F7B279"/>
<path d="M10.0064 14.0078H8.00476V16.0004H10.0064V14.0078Z" fill="#F7B279"/>
<path d="M8.00453 18.0001V15.9985H6.00293V18.0001V20.0017H8.00453V18.0001Z" fill="#F7B279"/>
<path d="M6.00319 20.0015H4.00159V22.0031H6.00319V20.0015Z" fill="#F7B279"/>
<path d="M47.9971 22.0015H46.0045V24.0031H47.9971V22.0015Z" fill="#FCFADD"/>
<path d="M46.0064 24.0029H44.0048V26.0045H46.0064V24.0029Z" fill="#FCFADD"/>
<path d="M42.0029 30.006V28.0044H41.3153V30.006H42.0029Z" fill="#FCFADD"/>
<path d="M38.8456 10.0044V15.9984H40.003V14.0058H42.0046V12.0042H44.0062V10.0026H42.0046V8.00098H40.003V10.0026H38.8456V10.0044Z" fill="#FCFADD"/>
<path d="M25.1693 25.4556H24.0029V25.4592L25.1279 25.461H25.1693V25.4556Z" fill="#FCFADD"/>
<path d="M21.6216 31.6045L21.618 31.6099V31.6765V31.6099L21.6216 31.6045Z" fill="#FCFADD"/>
<path d="M51.9982 20.0015V22.0013V24.0029V26.0045V28.0043V30.0059V31.9985V33.9983H53.9998V31.9985V30.0059V28.0043V26.0045V24.0029V22.0013V20.0015H51.9982Z" fill="#483E62"/>
<path d="M49.9984 36.0001V38.0017H51.9982V36.0001V33.9985H49.9984V36.0001Z" fill="#483E62"/>
<path d="M49.9984 20.0017H51.9982V18.0001V15.9985H49.9984V18.0001V20.0017Z" fill="#483E62"/>
<path d="M47.9971 40.0013V42.0029H49.9987V40.0013V38.0015H47.9971V40.0013Z" fill="#483E62"/>
<path d="M47.9971 15.9983H49.9987V14.0075V12.0059H47.9971V14.0075V15.9983Z" fill="#483E62"/>
<path d="M47.9971 42.0029H46.0045V44.0045H47.9971V42.0029Z" fill="#483E62"/>
<path d="M47.9971 10.0044H46.0045V12.006H47.9971V10.0044Z" fill="#483E62"/>
<path d="M46.0064 44.0049H44.0048V46.0065H46.0064V44.0049Z" fill="#483E62"/>
<path d="M46.0064 8.00439H44.0048V10.006H46.0064V8.00439Z" fill="#483E62"/>
<path d="M44.0045 46.0044H42.0029V48.006H44.0045V46.0044Z" fill="#483E62"/>
<path d="M44.0045 6.00293H42.0029V8.00453H44.0045V6.00293Z" fill="#483E62"/>
<path d="M38.0018 48.0059V49.9985H40.0016H42.0032V48.0059H40.0016H38.0018Z" fill="#483E62"/>
<path d="M40.0016 6.00306H42.0032V4.00146H40.0016H38.0018V6.00306H40.0016Z" fill="#483E62"/>
<path d="M33.9982 49.9985V51.9983H35.9998H38.0014V49.9985H35.9998H33.9982Z" fill="#483E62"/>
<path d="M35.9998 4.00126H38.0014V2.00146H35.9998H33.9982V4.00126H35.9998Z" fill="#483E62"/>
<path d="M29.9972 51.9985H28.0046H26.0048H24.0032H22.0016H20.0018V54.0001H22.0016H24.0032H26.0048H28.0046H29.9972H31.9988H33.9986V51.9985H31.9988H29.9972Z" fill="#483E62"/>
<path d="M24.0032 2.0016H26.0048H28.0046H29.9972H31.9988H33.9986V0H31.9988H29.9972H28.0046H26.0048H24.0032H22.0016H20.0018V2.0016H22.0016H24.0032Z" fill="#483E62"/>
<path d="M17.9998 49.9985H15.9982V51.9983H17.9998H20.0014V49.9985H17.9998Z" fill="#483E62"/>
<path d="M20.0014 4.00126V2.00146H17.9998H15.9982V4.00126H17.9998H20.0014Z" fill="#483E62"/>
<path d="M13.9985 48.0059H12.0059V49.9985H13.9985H15.9983V48.0059H13.9985Z" fill="#483E62"/>
<path d="M15.9983 6.00306V4.00146H13.9985H12.0059V6.00306H13.9985H15.9983Z" fill="#483E62"/>
<path d="M12.0061 46.0044H10.0045V48.006H12.0061V46.0044Z" fill="#483E62"/>
<path d="M12.0061 6.00293H10.0045V8.00453H12.0061V6.00293Z" fill="#483E62"/>
<path d="M8.00476 44.0049V46.0047H10.0046V44.0049H8.00476Z" fill="#483E62"/>
<path d="M10.0064 8.00439H8.00476V10.006H10.0064V8.00439Z" fill="#483E62"/>
<path d="M8.00453 42.0029H6.00293V44.0045H8.00453V42.0029Z" fill="#483E62"/>
<path d="M8.00453 10.0044H6.00293V12.006H8.00453V10.0044Z" fill="#483E62"/>
<path d="M6.00319 38.0015H4.00159V40.0013V42.0029H6.00319V40.0013V38.0015Z" fill="#483E62"/>
<path d="M6.00319 14.0075V12.0059H4.00159V14.0075V15.9983H6.00319V14.0075Z" fill="#483E62"/>
<path d="M4.00163 33.9985H2.00183V36.0001V38.0017H4.00163V36.0001V33.9985Z" fill="#483E62"/>
<path d="M4.00163 18.0001V15.9985H2.00183V18.0001V20.0017H4.00163V18.0001Z" fill="#483E62"/>
<path d="M2.0016 30.0059V28.0043V26.0045V24.0029V22.0013V20.0015H0V22.0013V24.0029V26.0045V28.0043V30.0059V31.9985V33.9983H2.0016V31.9985V30.0059Z" fill="#483E62"/>
<path d="M17.3446 12.6055H16.783V15.0355H17.3446V12.6055Z" fill="#F6B279"/>
<path d="M20.3635 24.752H16.7401V25.4126H20.3635V24.752Z" fill="#FCFADD"/>
<path d="M15.4818 40.4368V39.6754H14.1858V38.5828H15.4818V39.6754H16.749V34.5742H15.6636V35.0764H15.4818V36.2554H16.7346V37.4794H15.4476V36.2752H14.184V38.5846H14.139V39.697H15.4548V40.5844L16.7328 40.5214V40.4368H15.48H15.4818Z" fill="#FCFADD"/>
<path d="M15.4424 30.5965H14.1752V29.3095H15.482V26.7463H15.4982V25.4881H14.1572V24.3577H15.4982H16.4162V23.9401H16.751V23.6665H15.6134V22.4479H15.6026V22.4281H15.5864V20.7505H14.1644V22.0429H13.9394V26.5951H12.7964V28.7371H13.0988V29.6911H13.8314V30.6667H14.7062V31.7557H14.1896V33.1525H14.7854V34.1209H15.4856V31.7827C15.473 31.7827 15.4586 31.7827 15.446 31.7827V30.5947L15.4424 30.5965ZM14.2544 27.4555H15.3866V28.4923H14.2544V27.4555Z" fill="#FCFADD"/>
<path d="M35.4707 11.8635V11.3199H35.7137V10.5981H34.5887V10.6161H34.5653V11.8635H35.4707Z" fill="#F7B279"/>
<path d="M33.3488 13.2139H34.5584V11.8711H33.5072V11.9377H33.3488V13.2139Z" fill="#F7B279"/>
<path d="M33.3452 14.0074V13.3198H32.168V14.434H33.3452V14.0074Z" fill="#F7B279"/>
<path d="M25.6464 24.3286V25.4554H25.6428V25.4608H27.1692V24.3286H25.6464Z" fill="#F7B279"/>
<path d="M25.405 23.438V23.4422H25.4092L25.405 23.438Z" fill="#F7B279"/>
<path d="M21.5837 16.2197H19.2527V18.2159H20.3831L20.3849 18.2177V19.3211H21.6629V16.9937H21.5837V16.2197Z" fill="#FCFADD"/>
<path d="M28.3102 18.0884V16.292H25.4878V18.0866H24.2728V19.1234H25.6246V18.2396H25.6228L25.6264 18.236H28.2994V18.0884H28.3102Z" fill="#FCFADD"/>
<path d="M14.7813 36.0467H14.1855V36.2735H15.4491V37.4777H16.7361V36.2537H15.4833V35.0747H14.7813V36.0449V36.0467Z" fill="#FBB37A"/>
<path d="M22.9606 32.8609H22.9462V33.1291H25.3258V32.8447H22.9606V32.8609Z" fill="#FBB37A"/>
<path d="M28.4276 42.7304V41.6162H28.4492V40.9988H29.6606V40.5416H30.9134V40.0088H32.2202V38.7794H34.6412V37.55H35.7104V36.2648H36.8534V32.9654H38.063V31.7612H39.2618V29.531H38.0486V28.208H39.2618V24.2624H38.0162V22.8872H36.8606V26.9192H35.7014V29.3798H32.2112V30.5948H30.755V31.7036H29.567V30.5228H28.2512V31.745H27.0938V32.8448H25.5998L25.328 32.8466V33.1292H22.9484V33.9482H17.9714V32.861H16.859V31.7846C16.2578 31.7846 15.7592 31.7846 15.4838 31.7846V34.1228H15.6674V34.5746H16.7528V39.6758H16.7726V40.4372H17.9912V41.2004H21.5264V42.7232H21.5066V43.3856H21.5264V42.7304H28.4312H28.4276ZM24.2966 37.577V38.8388H22.9358V40.007H21.5678V38.8388H18.0164V37.577H24.2948H24.2966Z" fill="#FFE3B8"/>
<path d="M15.4817 29.3093V30.5117H16.7471V29.8457H17.9243V29.4191H16.7399V28.2671H16.2935V27.0917H15.4979V26.7461H15.4817V29.3093Z" fill="#FFE3B8"/>
<path d="M20.4047 29.4194H19.1627V29.8442H20.3561V30.5102H21.5279H21.5819V28.271H20.4047V29.4194Z" fill="#FFE3B8"/>
<path d="M38.113 40.2391H38.1184V39.7153H38.113V40.2391Z" fill="#E77560"/>
<path d="M17.9769 17.062V15.0352H16.7835V17.0602H16.7277H17.9751L17.9769 17.062Z" fill="#E77560"/>
<path d="M24.2299 18.7181C24.2299 18.2789 24.2299 17.7551 24.2299 17.6543C24.2299 17.3141 24.2299 16.9955 24.2299 16.7507V16.6625C24.2299 16.6409 24.2299 16.6175 24.2299 16.5977H23.6719V17.2619H22.9519V19.3571H24.2281C24.2281 19.1897 24.2281 18.9665 24.2281 18.7181H24.2299Z" fill="#E77560"/>
<path d="M29.5307 18.0884H28.2977V19.217H29.5307V18.0884Z" fill="#E77560"/>
<path d="M29.5271 23.6502V24.327H27.1691V25.4592V25.4646H29.5469V23.6484H29.5271V23.6502Z" fill="#E77560"/>
<path d="M18.0181 38.8403H21.5695V40.0085H22.9357V38.8403H24.2965V37.5767H18.0181V38.8403Z" fill="#E77560"/>
<path d="M19.0765 11.8784H17.9731V14.7008H19.0765V11.8784Z" fill="#C76657"/>
<path d="M27.0937 31.736H25.5979V32.843H27.0919V31.7432H28.2493V30.521H27.0937V31.7342V31.736Z" fill="#C76657"/>
<path d="M21.5281 30.5098H21.6271V31.6042H21.6217L21.6181 31.6096V31.678H25.5781V30.5116H21.5281V30.5098Z" fill="#C76657"/>
<path d="M22.9607 32.8609V32.8447H21.5333V31.7845C21.2075 31.7845 20.5685 31.7827 19.8179 31.7827C19.2113 31.7827 18.5471 31.7827 17.9999 31.7827C17.4527 31.7827 17.0243 31.7827 16.8983 31.7827C16.8839 31.7827 16.8713 31.7827 16.8569 31.7827V32.8591H17.9693V33.9463H22.9463V32.8591H22.9607V32.8609Z" fill="#C76657"/>
<path d="M36.5578 16.9144H35.4688V15.181H34.9684V14.614H34.0684V13.525H34.9684V12.958H35.4688V11.8618H34.5562V13.2136H33.343C33.343 13.2136 33.343 13.2514 33.343 13.318V14.4322H32.1028V16.54H33.343V17.1124H34.5562V18.3364H35.7334V17.6128H36.8278V15.181H36.5578V16.9144Z" fill="#C76657"/>
<path d="M35.7136 10.5984V11.3202H36.5578V12.9582H36.8278V10.5264H35.7136C35.7136 10.5264 35.7136 10.5534 35.7136 10.6002V10.5984Z" fill="#C76657"/>
<path d="M20.4065 28.2653H19.1627V29.4191H20.4047V28.2707H21.5927V27.1025H20.4065V28.2653Z" fill="#C76657"/>
<path d="M17.9242 29.4191V28.2671H16.738V29.4191H17.9242Z" fill="#C76657"/>
<path d="M13.9373 22.041H12.7943V26.5932H13.9373V22.041Z" fill="white"/>
<path d="M17.9584 9.45166H16.783V10.1483H17.9584V9.45166Z" fill="white"/>
<path d="M14.7813 33.1523H14.1855V36.0449H14.7813V35.0747H15.6651V34.1225H14.7813V33.1541V33.1523Z" fill="white"/>
<path d="M14.7025 30.6664H13.8277V29.6908H13.0951V28.7368H12.7927V31.6384H14.1841V31.7554H14.7007V30.6664H14.7025Z" fill="white"/>
<path d="M36.5579 11.3203H35.4689V12.9583H34.9685V13.5253H34.0685V14.6143H34.9685V15.1813H35.4689V16.9147H36.5579V15.1813H37.0583V14.6143H37.8917V13.5253H37.0583V12.9583H36.5579V11.3203Z" fill="white"/>
<path d="M18.0196 20.5216H19.3156V19.8232H17.314V20.2372H16.783V22.3666H18.0214V20.5216H18.0196Z" fill="white"/>
<path d="M27.0864 23.4073V21.4489H28.3788V20.4985H26.9838V20.8621H26.1072V21.1969H25.6194L25.6176 21.1951V23.4073H27.0864Z" fill="white"/>
<path d="M43.6663 35.2583H43.6573V35.7227H43.6663V35.2583Z" fill="#F1EDAF"/>
<path d="M15.3865 27.4556H14.2543V28.4924H15.3865V27.4556Z" fill="#483E62"/>
<path d="M24.1721 28.3105H23.0093V29.5453H24.1721V28.3105Z" fill="#483E62"/>
<path d="M25.6304 27.4355H24.4766V28.4921H25.6304V27.4355Z" fill="#483E62"/>
<path d="M21.5223 41.9615V41.1983H17.9871V40.4351H16.7685V39.6737H15.4815V38.5811H14.1855V39.6737H15.4815V40.4351H16.7343V41.1983H17.9277V41.9615H20.7591V42.7211H21.5223V41.9615Z" fill="#483E62"/>
<path d="M21.5223 42.7305V43.3857V43.4937H22.0011H31.9983H32.1747V42.9087V42.7305H31.9983H28.4271H21.5223Z" fill="#483E62"/>
<path d="M25.6465 24.329H29.5291V23.6522H29.9881V23.2526H30.7837V20.999H29.9881V20.2088H29.5057V19.4888H26.0929V19.7894H26.0893V20.513H25.0579V21.1916H24.4657V23.4416H25.4071V23.438L25.4107 23.4416H25.4071V24.3272L25.6465 24.329ZM25.6177 21.1952H26.1055V20.8604H26.9821V20.495H28.3771V21.4472H27.0847V23.4056H25.6159V21.1934L25.6177 21.1952Z" fill="#483E62"/>
<path d="M29.5884 29.3203H27.0738V30.5101H25.578V31.6765H21.618V31.6081L21.6216 31.6027H21.627V30.5083H20.3562V29.8423H19.1628V28.2637H20.4066V27.1009H21.5946V23.9365H16.416V24.3541H15.498V27.0901H16.2936V28.2655H17.9262V29.8441H16.749V30.5101H15.4836V29.3059H14.1768V30.5929H15.444V31.7809C15.4566 31.7809 15.471 31.7809 15.4836 31.7809C15.759 31.7809 16.2558 31.7809 16.8588 31.7809C16.8714 31.7809 16.8858 31.7809 16.9002 31.7809C17.244 31.7809 17.6184 31.7809 18.0018 31.7809C18.6138 31.7809 19.2492 31.7809 19.8198 31.7809C20.5704 31.7809 21.2094 31.7809 21.5352 31.7827V32.8429H25.5996V31.7341H27.0954V30.5209H29.5902V29.3167L29.5884 29.3203ZM16.74 25.4125V24.7519H20.3634V25.4125H16.74Z" fill="#483E62"/>
<path d="M15.6114 22.4444H16.4484V23.2346H18.9216V22.4948H19.5192V22.2824H20.4354V19.7534H19.5318V18.812H17.316V19.496H16.2954V20.1944H15.9858V20.9936H15.6006V22.4426H15.6114V22.4444ZM16.7814 20.2358H17.3124V19.8218H19.314V20.5202H18.018V22.3652H16.7796V20.2358H16.7814Z" fill="#483E62"/>
<path d="M32.1859 41.9203V41.5423H35.6311V40.4785H36.8533V39.7153H38.1115V38.5435H39.3103V36.0793H40.5523V22.0105H39.2761V19.5283H36.8461V20.6227H38.0161V24.2623H39.2617V28.2079H38.0485V29.5309H39.2617V31.7611H38.0629V32.9653H36.8533V36.2647H35.7103V37.5499H34.6411V38.7793H32.2201V40.0087H30.9133V40.5415H29.6605V40.9987H28.4491V41.6161H28.4275V42.7303H32.1859V41.9203Z" fill="#E77560"/>
<path d="M36 41.5944H36.855V40.491V40.4766H35.6328V41.5404H32.1876V42.7338H32.9508V42.3036H35.6346V41.5944H36.0018H36Z" fill="#483E62"/>
<path d="M16.0203 15.9986V16.2992H14.6811V17.5304C14.3895 17.5304 13.9341 17.5304 13.6461 17.5304H13.4013V21.278H12.0297V32.4002H13.4229V38.5832H14.1861V31.637H12.7947V22.0394H14.1645V18.2918H15.4443V17.0606H16.6827C16.6953 17.0606 16.7133 17.0606 16.7313 17.0606H16.7871V9.45196H19.2063V9.84616H19.2009V10.6094H20.3385V11.8316H21.5355V13.3256H31.7847V13.3202H32.3949V11.9378H33.5109V10.6166H34.5927V9.27736H36.8391V10.6166H38.0865V15.7412H38.0901V17.9462H38.0865V18.7634H35.6943V19.5266H39.2799V22.0088H40.5561V36.0776H39.3141V38.5418H38.1153V39.7136H36.8571V40.4768H38.1153V39.7136H39.3483V38.5976H40.0755V36.8408H41.3175V21.2474H40.0413V18.7634H38.8479V9.91276H37.5987V8.51416H33.8277V9.85336H32.7459V11.1746H31.6299V12.5624H22.2951V11.0684H21.0999V9.84616H19.9677V8.68876H16.7871V8.69416H16.0239V15.9986H16.0203Z" fill="#483E62"/>
<path d="M36.8242 23.1532H35.5876V22.0444H34.432V23.2486H32.1838V25.5058H30.7978V26.593H25.1278V25.4644H24.0028L21.5926 25.459V27.106V28.2742H21.5818V30.5152H25.5796H27.0754V29.3254H29.59V30.5296H29.5666V31.7104H30.7546V30.6016H32.2108V29.3866H35.701V26.926H36.8602V24.2782H36.8242V23.1604V23.1532ZM24.4762 27.4372H25.63V28.4938H24.4762V27.4372ZM23.0092 28.312H24.172V29.5468H23.0092V28.312Z" fill="#FCFADD"/>
<path d="M35.6903 19.5265V18.7633H38.0825V17.9461H38.0861V15.7411H38.0825V10.6165H36.8351V9.42494H36.4805V9.27734H35.7245V10.5247H36.8279V12.9565H37.0565V13.5235H37.8899V14.6125H37.0565V15.1795H36.8279V17.6113H35.7335V18.3349H34.5563V17.1109H33.3431V16.5385H32.1029V14.4397H21.2669V13.3057H21.5279V11.8279H20.3309V10.6057H19.1933V9.84254H19.1987V9.44834H17.9675V12.6019H17.3411V15.0319H17.9729V17.0587H16.7255C16.7075 17.0587 16.6895 17.0587 16.6769 17.0587H15.4385V18.2899H14.1587V19.5337H15.5897V20.7469H15.5807V22.4245H15.5969V20.9953H15.9821V20.1961H16.2917V19.4977H17.3123V18.8137H19.5281V19.7551H20.4317V21.9925H22.9751V23.0383H22.9841V24.3271H25.4033V23.4415H24.4619V21.1915H25.0541V20.5129H26.0855V19.7893H26.0891V19.4887H29.5019V20.2087H29.9843V20.9989H30.7799V22.0123H32.1821V22.0195H34.4303V22.0447H35.5859V23.1535H36.8225V24.2713H36.8585V22.8853H38.0141V20.6191H36.8441V19.5247H35.6903V19.5265ZM17.9729 14.7007V11.8783H19.0763V14.7007H17.9729ZM21.6629 16.9921V19.3195H20.3849V18.2179H19.2563V16.2217H21.5873V16.9957H21.6647L21.6629 16.9921ZM22.9535 19.3573V17.2621H23.6735V16.5979H24.2315V17.6365C24.2315 17.6365 24.2315 17.6437 24.2315 17.6545C24.2297 17.7553 24.2315 18.2773 24.2315 18.7183C24.2315 19.0621 24.2315 19.3573 24.2315 19.3573H22.9553H22.9535ZM28.2995 19.2169V18.2359H25.6265L25.6229 18.2395V19.1233H24.2711V18.0865H25.4861V16.2919H28.3085V18.0883H29.5307V19.2169H28.2977H28.2995Z" fill="#F7B279"/>
<path d="M14.1407 38.583H13.4225V36H12.0059V38.0016H10.0043V40.0032H8.00269V44.0046H10.0043V46.0062H12.0059V44.0046V42.003H13.9985V40.0014H15.4583V39.6954H14.1425V38.583H14.1407Z" fill="#FFD490"/>
<path d="M49.9987 30.0059H47.9971V31.9985H49.9987V30.0059Z" fill="#FFD490"/>
<path d="M47.9971 31.9985H46.0045V34.0001H47.9971V31.9985Z" fill="#FFD490"/>
<path d="M46.0064 33.9985H44.0048V36.0001H46.0064V33.9985Z" fill="#FFD490"/>
<path d="M44.0045 36H42.0029V38.0016H44.0045V36Z" fill="#FFD490"/>
<path d="M40.0736 38.5973H40.0016V40.0013H42.0032V38.0015H40.0736V38.5973Z" fill="#FFD490"/>
<path d="M38.1188 40.2391H38.1134V40.4767H38.0018V42.0031H40.0034V40.0015H38.1188V40.2391Z" fill="#FFD490"/>
<path d="M38.0016 42.0029H36V44.0045H38.0016V42.0029Z" fill="#FFD490"/>
<path d="M35.9998 44.0049H33.9982V46.0065H35.9998V44.0049Z" fill="#FFD490"/>
<path d="M34 46.0044H31.9984V48.006H34V46.0044Z" fill="#FFD490"/>
<path d="M31.9987 48.0059H29.9971V49.9985H31.9987V48.0059Z" fill="#FFD490"/>
<path d="M26.0045 44.0049H24.0029V46.0065H26.0045V44.0049Z" fill="#FFD490"/>
<path d="M24.0032 46.0044H22.0016V48.006H24.0032V46.0044Z" fill="#FFD490"/>
<path d="M24.0032 6.00293H22.0016V8.00453H24.0032V6.00293Z" fill="#FFD490"/>
<path d="M24.0032 4.00126V6.00286H26.0048V4.00126H28.0046H29.9972H31.9988H33.9986V2.00146H31.9988H29.9972H28.0046H26.0048H24.0032H22.0016H20.0018V4.00126H22.0016H24.0032Z" fill="#FFD490"/>
<path d="M22.0034 48.0059H20.0018V49.9985H22.0034V48.0059Z" fill="#FFD490"/>
<path d="M20.0018 9.84613H21.098V10.0045H22.0034V8.00293H20.0018V9.84613Z" fill="#FFD490"/>
<path d="M20.0014 6.00306V4.00146H17.9998H15.9982V6.00306H17.9998H20.0014Z" fill="#FFD490"/>
<path d="M16.0198 12.0059H15.9982V14.0075H16.0198V12.0059Z" fill="#FFD490"/>
<path d="M16 14.0078H13.9984V16.0004H16V14.0078Z" fill="#FFD490"/>
<path d="M13.4011 17.5303H13.6459H13.9969V15.9985H12.0043V18.0001H13.3993V17.5303H13.4011Z" fill="#FFD490"/>
<path d="M12.0061 18H10.0045V20.0016H12.0061V18Z" fill="#FFD490"/>
<path d="M10.0064 20.0015H8.00476V22.0031H10.0064V20.0015Z" fill="#FFD490"/>
<path d="M6.00293 42.0029H8.00453V40.0013V38.0015H6.00293V40.0013V42.0029Z" fill="#FFD490"/>
<path d="M8.00453 22.0015H6.00293V24.0031H8.00453V22.0015Z" fill="#FFD490"/>
<path d="M8.00453 14.0075H10.0043V12.0059H12.0059V10.0043H13.9985V8.00453H15.9983V6.00293H13.9985H12.0059V8.00453H10.0043V10.0043H8.00453V12.0059H6.00293V14.0075V15.9983H8.00453V14.0075Z" fill="#FFD490"/>
<path d="M4.00159 38.0017H6.00319V36.0001V33.9985H4.00159V36.0001V38.0017Z" fill="#FFD490"/>
<path d="M6.00319 18.0001V15.9985H4.00159V18.0001V20.0017H6.00319V18.0001Z" fill="#FFD490"/>
<path d="M4.00163 22.0013V20.0015H2.00183V22.0013V24.0029V26.0045V28.0043V30.0059V31.9985V33.9983H4.00163V31.9985V30.0059V28.0043V26.0045H6.00323V24.0029H4.00163V22.0013Z" fill="#FFD490"/>
<path d="M21.2705 13.3093V14.4433H32.1065V14.4343H32.1695V13.3201H33.3467C33.3467 13.2535 33.3467 13.2121 33.3467 13.2157H33.3503V11.9395H32.3927V13.3219H31.7825V13.3273H21.5333V13.3111H21.2723L21.2705 13.3093Z" fill="#FFD490"/>
<path d="M33.507 10.6165V11.8711H34.5582V11.8621H34.5654V10.6147H33.507V10.6165Z" fill="#FFD490"/>
<path d="M35.7136 10.5985C35.7136 10.5535 35.7136 10.5247 35.7136 10.5247H35.7244V9.27734H34.5886V10.5985H35.7136Z" fill="#FFD490"/>
<path d="M14.1571 25.4878H15.4981V24.3574H14.1571V25.4878Z" fill="#FFD490"/>
<path d="M14.1622 20.7484H15.5932V19.5352H14.1622V20.7484Z" fill="#FFD490"/>
<path d="M21.5926 23.9365V25.4557H25.1692V25.4611H25.1278V26.5897H30.7978V25.5025H32.1838V23.2453H34.432V22.0159H32.1838V22.0087H30.7816V23.2489H29.986V23.6485H29.5468V25.4647H27.169V25.4593H25.6408V25.4539H25.6444V24.3271H25.405L22.9858 24.3253V23.0365H22.9768V21.9907H20.4334V22.2823H19.5172V22.4947H18.9196V23.2345H16.4464V22.4443H15.6094V23.6629H16.747V23.9365H21.5908H21.5926Z" fill="#FFD490"/>
<path d="M16.783 10.1486V12.6038H17.971V9.4502H17.9584V10.1468H16.783V10.1486Z" fill="#FFD490"/>
</g>
<defs>
<clipPath id="clip0_635_1707">
<rect width="54" height="54" fill="white"/>
</clipPath>
</defs>
</svg>
