<svg width="24" height="25" viewBox="0 0 24 25" fill="none" xmlns="http://www.w3.org/2000/svg">
<path fill-rule="evenodd" clip-rule="evenodd" d="M2 4.5H22V19.5H2V4.5Z" fill="#E31D1C"/>
<path fill-rule="evenodd" clip-rule="evenodd" d="M6.44621 10.5968L4.01289 12.504L4.94206 9.61984L3.31934 8.12014L5.51659 8.03904L6.44621 5.71753L7.37582 8.03904H9.56934L7.95035 9.61984L8.68788 12.504L6.44621 10.5968Z" fill="#FECA00"/>
<path fill-rule="evenodd" clip-rule="evenodd" d="M11.3852 8.35731L10.3641 8.97373L10.597 7.77085L9.7467 6.8706L10.8981 6.82193L11.3852 5.69873L11.8723 6.82193H13.0217L12.1734 7.77085L12.4288 8.97373L11.3852 8.35731Z" fill="#FECA00"/>
<path fill-rule="evenodd" clip-rule="evenodd" d="M12.6352 10.8573L11.6141 11.4737L11.847 10.2708L10.9967 9.3706L12.1481 9.32193L12.6352 8.19873L13.1223 9.32193H14.2717L13.4234 10.2708L13.6788 11.4737L12.6352 10.8573Z" fill="#FECA00"/>
<path fill-rule="evenodd" clip-rule="evenodd" d="M11.3852 13.3573L10.3641 13.9737L10.597 12.7708L9.7467 11.8706L10.8981 11.8219L11.3852 10.6987L11.8723 11.8219H13.0217L12.1734 12.7708L12.4288 13.9737L11.3852 13.3573Z" fill="#FECA00"/>
<path fill-rule="evenodd" clip-rule="evenodd" d="M8.88518 14.6073L7.86411 15.2237L8.09701 14.0208L7.2467 13.1206L8.39807 13.0719L8.88518 11.9487L9.3723 13.0719H10.5217L9.67336 14.0208L9.92876 15.2237L8.88518 14.6073Z" fill="#FECA00"/>
</svg>
