<svg width="24" height="25" viewBox="0 0 24 25" fill="none" xmlns="http://www.w3.org/2000/svg">
<path fill-rule="evenodd" clip-rule="evenodd" d="M2 4.5V19.5H22V4.5H2Z" fill="#FFB400"/>
<mask id="mask0_2115_9465" style="mask-type:luminance" maskUnits="userSpaceOnUse" x="2" y="4" width="20" height="16">
<path fill-rule="evenodd" clip-rule="evenodd" d="M2 4.5V19.5H22V4.5H2Z" fill="white"/>
</mask>
<g mask="url(#mask0_2115_9465)">
<path fill-rule="evenodd" clip-rule="evenodd" d="M2 4.5V8.25H22V4.5H2Z" fill="#C51918"/>
<path fill-rule="evenodd" clip-rule="evenodd" d="M2 15.75V19.5H22V15.75H2Z" fill="#C51918"/>
<rect x="5.13" y="10.9202" width="0.7" height="3.64" fill="#F1F9FF"/>
<path fill-rule="evenodd" clip-rule="evenodd" d="M6.10998 10.29H4.84998V10.64H5.05998V10.92H5.89998V10.64H6.10998V10.29Z" fill="#C88A02"/>
<path fill-rule="evenodd" clip-rule="evenodd" d="M5.89998 14.77H6.10998V15.12H4.84998V14.77H5.05998V14.49H5.89998V14.77Z" fill="#C88A02"/>
<path fill-rule="evenodd" clip-rule="evenodd" d="M5.47999 10.3601C5.63232 10.3601 5.64781 10.3027 5.73768 10.2171C5.80746 10.1505 5.96999 10.068 5.96999 9.97509C5.96999 9.76246 5.75061 9.59009 5.47999 9.59009C5.20937 9.59009 4.98999 9.76246 4.98999 9.97509C4.98999 10.0786 5.10191 10.1479 5.18654 10.2171C5.2757 10.29 5.34115 10.3601 5.47999 10.3601Z" fill="#AD1619"/>
<path fill-rule="evenodd" clip-rule="evenodd" d="M4.84998 15.1201H6.10998V15.6801C6.10998 15.6801 5.95248 15.6101 5.79498 15.6101C5.63748 15.6101 5.47998 15.6801 5.47998 15.6801C5.47998 15.6801 5.32248 15.6101 5.16498 15.6101C5.00748 15.6101 4.84998 15.6801 4.84998 15.6801V15.1201Z" fill="#005BBF"/>
<mask id="mask1_2115_9465" style="mask-type:luminance" maskUnits="userSpaceOnUse" x="4" y="15" width="3" height="1">
<path fill-rule="evenodd" clip-rule="evenodd" d="M4.84998 15.1201H6.10998V15.6801C6.10998 15.6801 5.95248 15.6101 5.79498 15.6101C5.63748 15.6101 5.47998 15.6801 5.47998 15.6801C5.47998 15.6801 5.32248 15.6101 5.16498 15.6101C5.00748 15.6101 4.84998 15.6801 4.84998 15.6801V15.1201Z" fill="white"/>
</mask>
<g mask="url(#mask1_2115_9465)">
<path d="M4.83854 15.5701L4.81104 15.5031C4.92452 15.4526 5.03841 15.4272 5.15248 15.4272C5.22617 15.4272 5.26465 15.4375 5.33007 15.4666C5.38753 15.4922 5.41732 15.5002 5.48016 15.5002C5.54301 15.5002 5.5728 15.4922 5.63026 15.4666C5.69568 15.4375 5.73416 15.4272 5.80785 15.4272C5.92192 15.4272 6.03581 15.4526 6.14929 15.5031L6.12179 15.5701C6.01682 15.5234 5.91225 15.5002 5.80785 15.5002C5.74501 15.5002 5.71522 15.5081 5.65776 15.5337C5.59234 15.5628 5.55386 15.5731 5.48016 15.5731C5.40647 15.5731 5.36799 15.5628 5.30257 15.5337C5.24511 15.5081 5.21532 15.5002 5.15248 15.5002C5.04808 15.5002 4.94351 15.5234 4.83854 15.5701Z" fill="white"/>
<path d="M4.83854 15.3602L4.81104 15.2931C4.92452 15.2426 5.03841 15.2173 5.15248 15.2173C5.22617 15.2173 5.26465 15.2276 5.33007 15.2567C5.38753 15.2822 5.41732 15.2902 5.48016 15.2902C5.54301 15.2902 5.5728 15.2822 5.63026 15.2567C5.69568 15.2276 5.73416 15.2173 5.80785 15.2173C5.92192 15.2173 6.03581 15.2426 6.14929 15.2931L6.12179 15.3602C6.01682 15.3135 5.91225 15.2902 5.80785 15.2902C5.74501 15.2902 5.71522 15.2982 5.65776 15.3237C5.59234 15.3528 5.55386 15.3631 5.48016 15.3631C5.40647 15.3631 5.36799 15.3528 5.30257 15.3237C5.24511 15.2982 5.21532 15.2902 5.15248 15.2902C5.04808 15.2902 4.94351 15.3135 4.83854 15.3602Z" fill="white"/>
</g>
<rect x="11.99" y="10.9202" width="0.7" height="3.64" fill="#F1F9FF"/>
<path fill-rule="evenodd" clip-rule="evenodd" d="M12.97 10.29H11.71V10.64H11.92V10.92H12.76V10.64H12.97V10.29Z" fill="#C88A02"/>
<path fill-rule="evenodd" clip-rule="evenodd" d="M12.76 14.77H12.97V15.12H11.71V14.77H11.92V14.49H12.76V14.77Z" fill="#C88A02"/>
<path fill-rule="evenodd" clip-rule="evenodd" d="M12.34 10.3601C12.4923 10.3601 12.5078 10.3027 12.5977 10.2171C12.6674 10.1505 12.83 10.068 12.83 9.97509C12.83 9.76246 12.6106 9.59009 12.34 9.59009C12.0694 9.59009 11.85 9.76246 11.85 9.97509C11.85 10.0786 11.9619 10.1479 12.0465 10.2171C12.1357 10.29 12.2011 10.3601 12.34 10.3601Z" fill="#AD1619"/>
<path fill-rule="evenodd" clip-rule="evenodd" d="M11.71 15.1201H12.97V15.6801C12.97 15.6801 12.8125 15.6101 12.655 15.6101C12.4975 15.6101 12.34 15.6801 12.34 15.6801C12.34 15.6801 12.1825 15.6101 12.025 15.6101C11.8675 15.6101 11.71 15.6801 11.71 15.6801V15.1201Z" fill="#005BBF"/>
<mask id="mask2_2115_9465" style="mask-type:luminance" maskUnits="userSpaceOnUse" x="11" y="15" width="2" height="1">
<path fill-rule="evenodd" clip-rule="evenodd" d="M11.71 15.1201H12.97V15.6801C12.97 15.6801 12.8125 15.6101 12.655 15.6101C12.4975 15.6101 12.34 15.6801 12.34 15.6801C12.34 15.6801 12.1825 15.6101 12.025 15.6101C11.8675 15.6101 11.71 15.6801 11.71 15.6801V15.1201Z" fill="white"/>
</mask>
<g mask="url(#mask2_2115_9465)">
<path d="M11.6985 15.5701L11.671 15.5031C11.7845 15.4526 11.8984 15.4272 12.0125 15.4272C12.0862 15.4272 12.1246 15.4375 12.1901 15.4666C12.2475 15.4922 12.2773 15.5002 12.3401 15.5002C12.403 15.5002 12.4328 15.4922 12.4902 15.4666C12.5557 15.4375 12.5941 15.4272 12.6678 15.4272C12.7819 15.4272 12.8958 15.4526 13.0093 15.5031L12.9818 15.5701C12.8768 15.5234 12.7722 15.5002 12.6678 15.5002C12.605 15.5002 12.5752 15.5081 12.5177 15.5337C12.4523 15.5628 12.4138 15.5731 12.3401 15.5731C12.2665 15.5731 12.228 15.5628 12.1626 15.5337C12.1051 15.5081 12.0753 15.5002 12.0125 15.5002C11.9081 15.5002 11.8035 15.5234 11.6985 15.5701Z" fill="white"/>
<path d="M11.6985 15.3602L11.671 15.2931C11.7845 15.2426 11.8984 15.2173 12.0125 15.2173C12.0862 15.2173 12.1246 15.2276 12.1901 15.2567C12.2475 15.2822 12.2773 15.2902 12.3401 15.2902C12.403 15.2902 12.4328 15.2822 12.4902 15.2567C12.5557 15.2276 12.5941 15.2173 12.6678 15.2173C12.7819 15.2173 12.8958 15.2426 13.0093 15.2931L12.9818 15.3602C12.8768 15.3135 12.7722 15.2902 12.6678 15.2902C12.605 15.2902 12.5752 15.2982 12.5177 15.3237C12.4523 15.3528 12.4138 15.3631 12.3401 15.3631C12.2665 15.3631 12.228 15.3528 12.1626 15.3237C12.1051 15.2982 12.0753 15.2902 12.0125 15.2902C11.9081 15.2902 11.8035 15.3135 11.6985 15.3602Z" fill="white"/>
</g>
<path fill-rule="evenodd" clip-rule="evenodd" d="M12.4412 13.8599C12.4412 14.0077 12.5118 14.1469 12.638 14.2999L13.0678 13.9454L13.1089 13.9328L13.1317 13.7537C13.174 13.4227 13.0326 13.2394 12.7411 13.1069L12.7211 13.0981L12.721 13.098C12.681 13.0805 12.594 13.0423 12.5645 13.0282C12.503 12.9987 12.4523 12.9694 12.4049 12.935C12.3583 12.901 12.3081 12.869 12.2477 12.8339C12.6084 12.776 12.8033 12.7333 12.9528 12.6688C13.3105 12.5147 13.3567 12.1567 13.0128 11.9199C12.544 11.597 11.2889 11.568 10.7381 11.8524L10.995 12.35C11.2653 12.2104 11.8798 12.1841 12.3102 12.2557C12.2447 12.2671 12.1713 12.2792 12.0891 12.2921L11.8788 12.3247L11.8432 12.3302C11.6713 12.3569 11.5541 12.3909 11.4672 12.4501C11.2898 12.5708 11.2635 12.7884 11.3901 12.9489C11.4435 13.0167 11.5134 13.0674 11.6191 13.1287C11.6531 13.1484 11.6896 13.1684 11.7386 13.1946L11.7643 13.2082L11.8591 13.2586C11.96 13.3128 12.0262 13.352 12.0756 13.3879C12.153 13.4442 12.2323 13.4899 12.3224 13.5331C12.3709 13.5564 12.5101 13.617 12.5093 13.6167L12.5176 13.6204C12.469 13.6862 12.4412 13.7667 12.4412 13.8599ZM5.11747 14.2999C5.24367 14.1469 5.31425 14.0077 5.31425 13.8599C5.31425 13.7667 5.28651 13.6862 5.23791 13.6204L5.24612 13.6167C5.24536 13.617 5.38457 13.5564 5.43303 13.5331C5.52313 13.4899 5.6025 13.4442 5.67989 13.3879C5.7293 13.352 5.7955 13.3128 5.89641 13.2586L5.99116 13.2082L6.01685 13.1946C6.06589 13.1684 6.10242 13.1484 6.13635 13.1287C6.24208 13.0674 6.31195 13.0167 6.36539 12.9489C6.49196 12.7884 6.46568 12.5708 6.28831 12.4501C6.20141 12.3909 6.08415 12.3569 5.91225 12.3302L5.87683 12.3247L5.6664 12.2921C5.58415 12.2792 5.51075 12.2671 5.44531 12.2557C5.87566 12.1841 6.49019 12.2104 6.7605 12.35L7.01741 11.8524C6.46657 11.568 5.21149 11.597 4.74265 11.9199C4.39878 12.1567 4.44492 12.5147 4.80271 12.6688C4.95221 12.7333 5.1471 12.776 5.50776 12.8339C5.44732 12.869 5.39721 12.901 5.35052 12.935C5.30318 12.9694 5.25245 12.9987 5.19092 13.0282C5.16149 13.0423 5.07438 13.0805 5.03443 13.0981L5.01432 13.1069C4.72289 13.2394 4.58146 13.4227 4.62372 13.7537L4.6466 13.9328L4.68764 13.9454L5.11747 14.2999ZM4.75723 13.837L4.75634 13.8396L4.75702 13.8377L4.75723 13.837Z" fill="#AD1619"/>
<path d="M5.7021 12.25L5.90872 12.2927V12.6007C5.68866 12.7763 5.13 13.0722 5.13 13.0722V12.25H5.7021Z" fill="#F1F9FF"/>
<path d="M12.1966 12.25L11.99 12.2927V12.6007C12.21 12.7763 12.7687 13.0722 12.7687 13.0722V12.25H12.1966Z" fill="#F1F9FF"/>
<path fill-rule="evenodd" clip-rule="evenodd" d="M11.235 9.00361V8.90112C10.8749 8.64272 10.4979 8.51352 10.1038 8.51352C9.72606 8.34635 9.34369 8.28145 8.95671 8.31885C8.95681 8.31765 8.95687 8.31704 8.95687 8.31704C8.37501 8.26011 7.78861 8.51352 7.78861 8.51352C7.19755 8.51352 6.65747 8.90112 6.65747 8.90112V9.00361L7.36349 9.71269C7.36349 9.71269 7.56222 10.3952 8.95399 10.2348V10.2365C8.95399 10.2365 9.87546 10.2114 9.94021 10.1898C9.9659 10.1813 9.99254 10.1735 10.0198 10.1656C10.2003 10.1129 10.4063 10.0527 10.5289 9.71269L11.235 9.00361ZM8.95399 8.3502C8.9339 8.58628 8.81917 10.0094 8.95399 10.23V8.3502Z" fill="#AD1619"/>
<path fill-rule="evenodd" clip-rule="evenodd" d="M7.19606 9.59358L7.19652 9.59142L6.69983 9.12412L6.7478 9.07313L7.21387 9.51163L7.2258 9.45678C7.30205 9.47336 7.35778 9.47945 7.39027 9.476V9.38088L7.49358 9.43679C7.5444 9.46429 7.61718 9.47168 7.71303 9.45609C7.78343 9.44463 7.83094 9.36287 7.84647 9.18864L7.87783 8.83691L7.98302 9.17401C8.03061 9.32654 8.10323 9.39378 8.2066 9.39378C8.30757 9.39378 8.34815 9.35677 8.35263 9.26347L8.36534 8.99886L8.485 9.23521C8.52811 9.32035 8.58757 9.35899 8.6721 9.35899C8.79301 9.35899 8.87377 9.25819 8.87377 9.10004H8.87606H9.01377H9.01606C9.01606 9.25819 9.09682 9.35899 9.21772 9.35899C9.30226 9.35899 9.36171 9.32035 9.40482 9.23521L9.52449 8.99886L9.53719 9.26347C9.54167 9.35677 9.58226 9.39378 9.68322 9.39378C9.7866 9.39378 9.85921 9.32654 9.90681 9.17401L10.012 8.83691L10.0434 9.18864C10.0589 9.36287 10.1064 9.44463 10.1768 9.45609C10.2726 9.47168 10.3454 9.46429 10.3962 9.43679L10.4996 9.38088V9.476C10.532 9.47945 10.5878 9.47336 10.664 9.45678L10.6862 9.55857L11.2021 9.07313L11.2501 9.12412L10.608 9.72819C10.5143 9.90071 10.4672 10.0146 10.4672 10.0619C10.4672 10.134 10.2794 10.1769 9.91302 10.2209C9.62596 10.2553 9.28719 10.2785 9.01009 10.2819V10.2824L8.97496 10.2823L8.93983 10.2824V10.2819C8.66272 10.2785 8.32395 10.2553 8.0369 10.2209C7.67048 10.1769 7.48274 10.134 7.48274 10.0619C7.48274 10.0529 7.48105 10.0416 7.47768 10.0279C7.44073 9.98089 7.41476 9.90391 7.39747 9.83447C7.38125 9.802 7.36272 9.76655 7.34189 9.72819L7.19964 9.59436L7.19606 9.59358ZM10.637 9.60485C10.5223 9.62514 10.4395 9.62309 10.3956 9.58733C10.3269 9.60732 10.2463 9.60924 10.1543 9.59427C10.056 9.57828 9.9876 9.51291 9.94642 9.40447C9.89266 9.47296 9.82469 9.51525 9.74326 9.52892C10.1912 9.59245 10.505 9.68174 10.505 9.68174C10.505 9.68174 10.4973 9.74808 10.4784 9.82608C10.4984 9.78525 10.5219 9.73988 10.5492 9.6898L10.556 9.68105L10.637 9.60485ZM9.53188 9.50231C9.49292 9.48295 9.46181 9.45488 9.43932 9.41871C9.40592 9.4482 9.36794 9.46977 9.32575 9.48308C9.39618 9.48847 9.46505 9.49498 9.53188 9.50231ZM9.07864 9.46946C9.02411 9.44426 8.97877 9.40391 8.94491 9.35221C8.91129 9.40355 8.86636 9.44369 8.81235 9.46893C8.84434 9.46797 8.87653 9.4673 8.90886 9.46694V9.46662L8.93693 9.4667L8.965 9.46662V9.46694C9.00311 9.46737 9.04101 9.46822 9.07864 9.46946ZM7.38885 9.67626L7.32359 9.61486C7.40193 9.62263 7.45992 9.61525 7.49421 9.58733C7.56292 9.60732 7.6435 9.60924 7.73552 9.59427C7.83379 9.57828 7.90222 9.51291 7.9434 9.40447C7.99561 9.47098 8.06121 9.51277 8.13952 9.52766C7.75331 9.58192 7.46515 9.65575 7.38885 9.67626ZM8.56104 9.48211C8.49322 9.48715 8.42682 9.49324 8.36225 9.50012C8.3992 9.48086 8.42885 9.45354 8.45051 9.41871C8.4831 9.44749 8.52006 9.46873 8.56104 9.48211ZM10.2831 10.0632C10.3322 10.0862 10.3715 10.0633 10.4026 10.0194C10.3999 10.0315 10.3982 10.0425 10.3975 10.0523C10.3934 10.055 10.3871 10.0582 10.3789 10.0617C10.3558 10.0714 10.3206 10.0817 10.2748 10.0922C10.1847 10.1127 10.0566 10.1331 9.90467 10.1514C9.60806 10.187 9.25535 10.2104 8.97496 10.2123C8.69456 10.2104 8.34186 10.187 8.04524 10.1514C7.89335 10.1331 7.76518 10.1127 7.67514 10.0922C7.63674 10.0834 7.60579 10.0747 7.5832 10.0664C7.58568 10.0655 7.5882 10.0644 7.59074 10.0632C7.74365 9.99169 8.75483 9.92455 8.93693 9.91296C9.11903 9.92455 10.1302 9.99169 10.2831 10.0632ZM10.476 10.0504L10.4749 10.0516L10.4755 10.0508L10.476 10.0504Z" fill="#C88A02"/>
<path fill-rule="evenodd" clip-rule="evenodd" d="M8.94511 7.84187C9.06109 7.84187 9.15511 7.74785 9.15511 7.63187C9.15511 7.5159 9.06109 7.42188 8.94511 7.42188C8.82913 7.42188 8.73511 7.5159 8.73511 7.63187C8.73511 7.74785 8.82913 7.84187 8.94511 7.84187Z" fill="#005BBF"/>
<path fill-rule="evenodd" clip-rule="evenodd" d="M8.80857 8.87293C8.81305 8.89598 8.82004 8.91744 8.82889 8.93656C8.80176 8.9262 8.76956 8.9202 8.73503 8.9202C8.63838 8.9202 8.56003 8.96721 8.56003 9.0252C8.56003 9.08319 8.63838 9.1302 8.73503 9.1302C8.83168 9.1302 8.91003 9.08319 8.91003 9.0252C8.91003 9.08319 8.98838 9.1302 9.08503 9.1302C9.18168 9.1302 9.26003 9.08319 9.26003 9.0252C9.26003 8.96721 9.18168 8.9202 9.08503 8.9202C9.0607 8.9202 9.03753 8.92318 9.01648 8.92856C9.02155 8.89985 9.02133 8.86694 9.01471 8.83286C8.99627 8.73799 8.93517 8.67005 8.87825 8.68111C8.82132 8.69218 8.79012 8.77806 8.80857 8.87293ZM8.91003 9.0252L8.90995 9.02199L8.91011 9.02204L8.91003 9.0252ZM7.77889 9.00656C7.77004 8.98744 7.76305 8.96598 7.75857 8.94293C7.74012 8.84806 7.77132 8.76218 7.82825 8.75111C7.88517 8.74005 7.94627 8.80799 7.96471 8.90286C7.97133 8.93694 7.97155 8.96985 7.96648 8.99856C7.98753 8.99318 8.0107 8.9902 8.03503 8.9902C8.13168 8.9902 8.21003 9.03721 8.21003 9.0952C8.21003 9.15319 8.13168 9.2002 8.03503 9.2002C7.93838 9.2002 7.86003 9.15319 7.86003 9.0952L7.86011 9.09204L7.85995 9.09199L7.86003 9.0952C7.86003 9.15319 7.78168 9.2002 7.68503 9.2002C7.58838 9.2002 7.51003 9.15319 7.51003 9.0952C7.51003 9.03721 7.58838 8.9902 7.68503 8.9902C7.71956 8.9902 7.75176 8.9962 7.77889 9.00656ZM9.97124 9.07055C9.96316 9.12797 9.87903 9.16362 9.78333 9.15017C9.68762 9.13672 9.61657 9.07926 9.62464 9.02184C9.63271 8.96441 9.71684 8.92876 9.81255 8.94221C9.84675 8.94702 9.8778 8.95745 9.90322 8.97148C9.89712 8.95131 9.89318 8.92909 9.89195 8.90564C9.88689 8.80913 9.92974 8.72842 9.98765 8.72539C10.0456 8.72235 10.0966 8.79814 10.1017 8.89465C10.1035 8.92932 10.0991 8.96194 10.0901 8.98966C10.1117 8.98726 10.1351 8.98754 10.1591 8.99092C10.2549 9.00438 10.3259 9.06183 10.3178 9.11926C10.3098 9.17668 10.2256 9.21233 10.1299 9.19888C10.0342 9.18543 9.96316 9.12797 9.97124 9.07055ZM9.97124 9.07055L9.9716 9.06736L9.97175 9.06744L9.97124 9.07055ZM10.6377 9.34821C10.7231 9.39358 10.8143 9.38886 10.8416 9.33765L10.843 9.33479C10.8514 9.34369 10.8613 9.35016 10.8727 9.35363C10.9282 9.37059 10.996 9.3094 11.0243 9.21698C11.0525 9.12455 11.0305 9.03588 10.975 9.01892C10.9196 9.00197 10.8517 9.06315 10.8235 9.15558C10.8166 9.17803 10.8127 9.20026 10.8115 9.2213C10.7924 9.19942 10.7668 9.179 10.7363 9.16279C10.651 9.11741 10.5597 9.12214 10.5325 9.17334C10.5053 9.22454 10.5524 9.30283 10.6377 9.34821ZM7.20304 9.36965C7.1177 9.41502 7.02645 9.4103 6.99923 9.3591C6.99873 9.35815 6.99825 9.3572 6.9978 9.35623C6.98939 9.36513 6.97944 9.3716 6.96808 9.37507C6.91263 9.39203 6.84477 9.33085 6.81651 9.23842C6.78825 9.14599 6.8103 9.05732 6.86575 9.04037C6.92121 9.02341 6.98907 9.0846 7.01733 9.17702C7.0242 9.19948 7.02809 9.22171 7.02926 9.24274C7.04834 9.22086 7.07396 9.20044 7.10445 9.18423C7.18979 9.13886 7.28104 9.14358 7.30826 9.19478C7.33549 9.24598 7.28838 9.32428 7.20304 9.36965Z" fill="#C88A02"/>
<path fill-rule="evenodd" clip-rule="evenodd" d="M8.86679 7.04785H9.01262V7.13998H9.10791V7.28581H9.01262V7.57748H9.10791V7.72331H8.77002V7.57748H8.86679V7.28581H8.77002V7.13998H8.86679V7.04785Z" fill="#C88A02"/>
<rect x="8.83997" y="7.84009" width="0.28" height="0.91" fill="#C88A02"/>
<path d="M7.71286 7.99235L7.71164 8.06234C7.09095 8.0515 6.73492 8.14208 6.64454 8.32261C6.5511 8.50925 6.56848 8.73614 6.6994 9.00566L6.63644 9.03624C6.49675 8.74868 6.47767 8.49956 6.58194 8.29127C6.68928 8.07687 7.06591 7.98105 7.71286 7.99235Z" fill="white"/>
<path d="M7.83295 8.61297L7.79706 8.67307C7.66189 8.59236 7.59424 8.45463 7.59424 8.26482C7.59424 7.99202 7.73477 7.83204 8.04561 7.72257C8.244 7.6527 8.51501 7.68135 8.85939 7.80621L8.83553 7.87202C8.50493 7.75215 8.24912 7.72511 8.06886 7.7886C7.78375 7.88901 7.66424 8.02505 7.66424 8.26482C7.66424 8.43139 7.72043 8.54579 7.83295 8.61297Z" fill="white"/>
<path d="M6.78763 8.89833L6.65554 8.94472C6.51849 8.55451 6.55763 8.2895 6.79181 8.17518C6.99816 8.07445 7.2989 8.03346 7.69553 8.04953L7.68986 8.18942C7.31434 8.1742 7.03496 8.21228 6.85322 8.30099C6.69932 8.37612 6.67117 8.56674 6.78763 8.89833Z" fill="#C88A02"/>
<path d="M8.33082 7.89903C8.01074 7.89903 7.87929 7.97699 7.8042 8.20717C7.75634 8.35386 7.80275 8.47906 7.95325 8.59592L7.86738 8.7065C7.67254 8.5552 7.60385 8.36989 7.6711 8.16375C7.7668 7.87041 7.95459 7.75903 8.33082 7.75903C8.57742 7.75903 8.76952 7.82382 8.90327 7.95567L8.92413 7.97623V8.65121H8.78413V8.03607C8.67967 7.94533 8.52962 7.89903 8.33082 7.89903Z" fill="#C88A02"/>
<path d="M10.1557 8.06217L10.1569 8.13216C10.7776 8.12132 11.1336 8.2119 11.224 8.39243C11.3174 8.57908 11.3001 8.80596 11.1691 9.07548L11.2321 9.10607C11.3718 8.81851 11.3909 8.56939 11.2866 8.3611C11.1793 8.1467 10.8026 8.05088 10.1557 8.06217Z" fill="white"/>
<path d="M9.93646 8.62762L9.97235 8.68772C10.1075 8.60701 10.1752 8.46928 10.1752 8.27946C10.1752 8.00666 10.0346 7.84669 9.7238 7.73722C9.52541 7.66735 9.2544 7.696 8.91002 7.82086L8.93388 7.88667C9.26448 7.7668 9.52029 7.73976 9.70054 7.80324C9.98566 7.90366 10.1052 8.0397 10.1052 8.27946C10.1052 8.44603 10.049 8.56044 9.93646 8.62762Z" fill="white"/>
<path d="M11.1245 8.96815L11.2566 9.01455C11.3936 8.62433 11.3545 8.35932 11.1203 8.24501C10.9139 8.14428 10.6132 8.10328 10.2166 8.11935L10.2223 8.25924C10.5978 8.24402 10.8771 8.2821 11.0589 8.37082C11.2128 8.44594 11.2409 8.63656 11.1245 8.96815Z" fill="#C88A02"/>
<path d="M9.57335 7.90978C9.89344 7.90978 10.0249 7.98773 10.1 8.21791C10.1478 8.3646 10.1014 8.4898 9.95093 8.60666L10.0368 8.71724C10.2316 8.56594 10.3003 8.38064 10.2331 8.17449C10.1374 7.88115 9.94959 7.76978 9.57335 7.76978C9.32676 7.76978 9.13466 7.83456 9.0009 7.96641L8.98005 7.98697V8.66195H9.12005V8.04681C9.22451 7.95608 9.37456 7.90978 9.57335 7.90978Z" fill="#C88A02"/>
<path opacity="0.3" fill-rule="evenodd" clip-rule="evenodd" d="M6.67004 10.29H11.22V14.3781C11.22 14.3781 10.8821 15.75 8.94504 15.75C7.00803 15.75 6.67004 14.3419 6.67004 14.3419V10.29Z" fill="#E1E5E8"/>
<mask id="mask3_2115_9465" style="mask-type:luminance" maskUnits="userSpaceOnUse" x="6" y="10" width="6" height="6">
<path fill-rule="evenodd" clip-rule="evenodd" d="M6.67004 10.29H11.22V14.3781C11.22 14.3781 10.8821 15.75 8.94504 15.75C7.00803 15.75 6.67004 14.3419 6.67004 14.3419V10.29Z" fill="white"/>
</mask>
<g mask="url(#mask3_2115_9465)">
<rect x="6.67004" y="12.8101" width="2.31" height="2.73" fill="#FFC034"/>
<rect x="6.95007" y="12.95" width="0.28" height="2.59" fill="#AD1619"/>
<rect x="7.93005" y="12.95" width="0.28" height="2.59" fill="#AD1619"/>
<rect x="7.44006" y="12.95" width="0.28" height="2.59" fill="#AD1619"/>
<rect x="8.42004" y="12.95" width="0.28" height="2.59" fill="#AD1619"/>
<rect x="6.67004" y="10.22" width="2.31" height="2.66" fill="#AD1619"/>
<rect x="8.91003" y="12.74" width="2.31" height="2.66" fill="#AD1619"/>
<rect x="8.91003" y="10.29" width="2.45" height="2.59" fill="#F1F9FF"/>
<path fill-rule="evenodd" clip-rule="evenodd" d="M7.65003 10.5H7.86003V11.0807H8.00003V10.7904H8.21003V11.0807H8.42003V11.4437H8.21003V12.097H8.42003V12.46H7.16003V12.097H7.37003V11.4437H7.16003V11.0807H7.30003V10.7904H7.51003V11.0807H7.65003V10.5Z" fill="#C88A02"/>
<path d="M10.1118 10.622L10.2552 10.4685L10.5561 10.7496L10.4128 10.9031L10.1118 10.622Z" fill="#C88A02"/>
<path fill-rule="evenodd" clip-rule="evenodd" d="M10.9751 14.5875V13.0549H9.2251V14.5746L9.22787 14.5865C9.31646 14.964 9.61815 15.1549 10.1001 15.1549C10.5816 15.1549 10.8832 14.9689 10.9722 14.5996L10.9751 14.5875ZM10.1001 14.9449C9.71341 14.9449 9.50223 14.8147 9.4351 14.5499V13.2649H10.7651V14.5621C10.6981 14.8182 10.4869 14.9449 10.1001 14.9449Z" fill="#FFC034"/>
<path fill-rule="evenodd" clip-rule="evenodd" d="M10.1723 13.1831H10.0265V13.8779L9.45157 13.2526L9.34851 13.3474L9.86842 13.9129H9.39736V14.1229H9.75921H9.87987L9.34851 14.7008L9.45157 14.7955L10.0265 14.1703V14.9824H10.1723V14.2434L10.68 14.7955L10.783 14.7008L10.2517 14.1229H10.8448V13.9129H10.2631L10.783 13.3474L10.68 13.2526L10.1723 13.8048V13.1831Z" fill="#FFC034"/>
<path fill-rule="evenodd" clip-rule="evenodd" d="M10.4267 15.4017C10.4267 15.4017 8.9441 15.5182 8.9441 14.562C8.9441 14.562 8.92996 15.4017 7.38184 15.4017V16.1566H10.4267V15.4017Z" fill="#F1F9FF"/>
<path fill-rule="evenodd" clip-rule="evenodd" d="M8.94504 13.37C9.23499 13.37 9.47004 13.1193 9.47004 12.81C9.47004 12.5007 9.23499 12.25 8.94504 12.25C8.65509 12.25 8.42004 12.5007 8.42004 12.81C8.42004 13.1193 8.65509 13.37 8.94504 13.37Z" fill="#005BBF" stroke="#AD1619" stroke-width="0.729167"/>
</g>
</g>
</svg>
