<svg width="24" height="25" viewBox="0 0 24 25" fill="none" xmlns="http://www.w3.org/2000/svg">
<path fill-rule="evenodd" clip-rule="evenodd" d="M7 4.5H22V19.5H7V4.5Z" fill="#EF0000"/>
<path fill-rule="evenodd" clip-rule="evenodd" d="M2 4.5H9.5V19.5H2V4.5Z" fill="#2F8D00"/>
<mask id="mask0_2115_9271" style="mask-type:luminance" maskUnits="userSpaceOnUse" x="4" y="7" width="11" height="10">
<path fill-rule="evenodd" clip-rule="evenodd" d="M9.44045 16.8794C6.77765 16.8794 4.61902 14.6948 4.61902 11.9999C4.61902 9.305 6.77765 7.12036 9.44045 7.12036C12.1032 7.12036 14.2619 9.305 14.2619 11.9999C14.2619 14.6948 12.1032 16.8794 9.44045 16.8794Z" fill="white"/>
</mask>
<g mask="url(#mask0_2115_9271)">
<path fill-rule="evenodd" clip-rule="evenodd" d="M9.14282 7H9.76782V8.68675H9.14282V7Z" fill="#FFE017"/>
<path fill-rule="evenodd" clip-rule="evenodd" d="M9.14282 15.4336H9.76782V16.9999H9.14282V15.4336Z" fill="#FFE017"/>
<path d="M4.69647 12.2523L4.52173 11.804C6.44997 11.0342 7.90532 10.5377 8.89281 10.314C10.3416 9.98573 11.9336 9.74286 13.6687 9.58521L13.7113 10.0652C11.996 10.2211 10.4245 10.4608 8.99684 10.7843C8.03875 11.0013 6.60361 11.4909 4.69647 12.2523Z" fill="#FFE017"/>
<path d="M13.963 9.28993L13.8212 9.75C12.3638 9.28993 11.1767 9.09216 10.2642 9.15342L10.2327 8.67255C11.2124 8.60678 12.4544 8.81367 13.963 9.28993Z" fill="#FFE017"/>
<path d="M14.4673 11.8623L14.1979 12.2597C13.455 11.7439 12.5397 11.4849 11.4458 11.4849V11.0029C12.6317 11.0029 13.6409 11.2886 14.4673 11.8623Z" fill="#FFE017"/>
<path d="M14.0637 12.0066L14.1868 12.4721C12.5851 12.906 11.0814 13.1521 9.67552 13.2101C8.25992 13.2684 6.61001 13.0214 4.72437 12.4709L4.85635 12.0078C6.69617 12.545 8.29657 12.7846 9.65614 12.7285C11.0254 12.6721 12.4946 12.4316 14.0637 12.0066Z" fill="#FFE017"/>
<path d="M13.8823 14.2722L13.1296 15.0439C11.6992 13.6148 10.4399 12.5929 9.35939 11.9789C8.26045 11.3545 6.82733 10.7204 5.06226 10.0792L5.42422 9.05859C7.24135 9.71869 8.72719 10.3761 9.88395 11.0335C11.0592 11.7013 12.3894 12.7807 13.8823 14.2722Z" fill="#FFE017"/>
<path d="M5.41138 14.7094L5.12646 14.3233C5.16625 14.2932 5.23724 14.2431 5.33506 14.1795C5.49656 14.0746 5.67589 13.9699 5.86884 13.872C6.40029 13.6024 6.93337 13.4341 7.44182 13.4186C7.46669 13.4179 7.49145 13.4175 7.5161 13.4175V13.8994C7.49624 13.8994 7.47625 13.8997 7.45612 13.9003C7.02764 13.9134 6.5571 14.0619 6.08223 14.3028C5.90523 14.3926 5.74031 14.4889 5.5923 14.5851C5.54078 14.6186 5.49519 14.6495 5.45613 14.6771C5.43336 14.6932 5.41825 14.7042 5.41138 14.7094Z" fill="#FFE017"/>
<path d="M5.63257 14.8765L5.75249 14.4101C7.34006 14.8282 8.56399 15.0366 9.41817 15.0366C10.2692 15.0366 11.5358 14.7908 13.2098 14.2976L13.3429 14.7603C11.6293 15.2652 10.3238 15.5185 9.41817 15.5185C8.51575 15.5185 7.25591 15.304 5.63257 14.8765Z" fill="#FFE017"/>
<path d="M5.01404 10.5588L5.76846 9.78882L6.87304 10.8973L6.11861 11.6673L5.01404 10.5588Z" fill="#FFE017"/>
<path d="M11.2725 14.4047L11.8336 13.481L13.5859 14.5712L13.0247 15.495L11.2725 14.4047Z" fill="#FFE017"/>
</g>
<path fill-rule="evenodd" clip-rule="evenodd" d="M4.61902 11.9999C4.61902 14.6948 6.77765 16.8794 9.44045 16.8794C12.1032 16.8794 14.2619 14.6948 14.2619 11.9999C14.2619 9.305 12.1032 7.12036 9.44045 7.12036C6.77765 7.12036 4.61902 9.305 4.61902 11.9999ZM13.6666 12.0601C13.6666 14.389 11.8012 16.277 9.49997 16.277C7.19878 16.277 5.3333 14.389 5.3333 12.0601C5.3333 9.73121 7.19878 7.84325 9.49997 7.84325C11.8012 7.84325 13.6666 9.73121 13.6666 12.0601Z" fill="#F9E813"/>
<path d="M6.7854 8.99048V12.9034C7.04298 14.4522 7.91077 15.2266 9.38877 15.2266C10.8668 15.2266 11.7346 14.4522 11.9921 12.9034V8.99048H6.7854Z" fill="white"/>
<path d="M6.42822 8.62915H12.3492V12.9337L12.3443 12.9635C12.0583 14.6833 11.0443 15.5882 9.38873 15.5882C7.73318 15.5882 6.7192 14.6833 6.43318 12.9635L6.42822 12.9337V8.62915Z" fill="#C51918"/>
<path d="M7.78259 9.94409H10.9949V12.7197C10.9949 12.7197 10.7565 14.153 9.38876 14.153C8.02097 14.153 7.78259 12.7197 7.78259 12.7197V9.94409Z" fill="#F7FCFF"/>
<path fill-rule="evenodd" clip-rule="evenodd" d="M6.99988 8.92749H7.45169V9.2287H6.99988V8.92749Z" fill="#F9E813"/>
<path fill-rule="evenodd" clip-rule="evenodd" d="M6.76184 9.04785H7.59517V9.19845H6.76184V9.04785Z" fill="#060101"/>
<path fill-rule="evenodd" clip-rule="evenodd" d="M6.76184 9.16846H7.21365V9.31906H6.76184V9.16846Z" fill="#F9E813"/>
<path fill-rule="evenodd" clip-rule="evenodd" d="M7.23804 9.16846H7.68984V9.31906H7.23804V9.16846Z" fill="#F9E813"/>
<path fill-rule="evenodd" clip-rule="evenodd" d="M6.76184 9.52979H7.06305V9.98159H6.76184V9.52979Z" fill="#F9E813"/>
<path fill-rule="evenodd" clip-rule="evenodd" d="M7.35706 9.52979H7.65826V9.98159H7.35706V9.52979Z" fill="#F9E813"/>
<path fill-rule="evenodd" clip-rule="evenodd" d="M7.11902 9.52979H7.26962V9.98159H7.11902V9.52979Z" fill="#F9E813"/>
<path fill-rule="evenodd" clip-rule="evenodd" d="M6.76184 9.40942H7.59517V9.56003H6.76184V9.40942Z" fill="#060101"/>
<path fill-rule="evenodd" clip-rule="evenodd" d="M6.76184 9.77075H7.59517V9.92135H6.76184V9.77075Z" fill="#060101"/>
<path fill-rule="evenodd" clip-rule="evenodd" d="M6.88086 9.28882H7.03146V9.43942H6.88086V9.28882Z" fill="#F9E813"/>
<path fill-rule="evenodd" clip-rule="evenodd" d="M7.35706 9.28882H7.50766V9.43942H7.35706V9.28882Z" fill="#F9E813"/>
<path fill-rule="evenodd" clip-rule="evenodd" d="M7.11902 9.16846H7.26962V9.46966H7.11902V9.16846Z" fill="#F9E813"/>
<path fill-rule="evenodd" clip-rule="evenodd" d="M9.26184 8.92749H9.71365V9.2287H9.26184V8.92749Z" fill="#F9E813"/>
<path fill-rule="evenodd" clip-rule="evenodd" d="M9.0238 9.04785H9.85714V9.19845H9.0238V9.04785Z" fill="#060101"/>
<path fill-rule="evenodd" clip-rule="evenodd" d="M9.0238 9.16846H9.47561V9.31906H9.0238V9.16846Z" fill="#F9E813"/>
<path fill-rule="evenodd" clip-rule="evenodd" d="M9.5 9.16846H9.95181V9.31906H9.5V9.16846Z" fill="#F9E813"/>
<path fill-rule="evenodd" clip-rule="evenodd" d="M9.0238 9.52979H9.32501V9.98159H9.0238V9.52979Z" fill="#F9E813"/>
<path fill-rule="evenodd" clip-rule="evenodd" d="M9.61902 9.52979H9.92022V9.98159H9.61902V9.52979Z" fill="#F9E813"/>
<path fill-rule="evenodd" clip-rule="evenodd" d="M9.38098 9.52979H9.53158V9.98159H9.38098V9.52979Z" fill="#F9E813"/>
<path fill-rule="evenodd" clip-rule="evenodd" d="M9.0238 9.40942H9.85714V9.56003H9.0238V9.40942Z" fill="#060101"/>
<path fill-rule="evenodd" clip-rule="evenodd" d="M9.0238 9.77075H9.85714V9.92135H9.0238V9.77075Z" fill="#060101"/>
<path fill-rule="evenodd" clip-rule="evenodd" d="M9.14282 9.28882H9.29342V9.43942H9.14282V9.28882Z" fill="#F9E813"/>
<path fill-rule="evenodd" clip-rule="evenodd" d="M9.61902 9.28882H9.76962V9.43942H9.61902V9.28882Z" fill="#F9E813"/>
<path fill-rule="evenodd" clip-rule="evenodd" d="M9.38098 9.16846H9.53158V9.46966H9.38098V9.16846Z" fill="#F9E813"/>
<path fill-rule="evenodd" clip-rule="evenodd" d="M11.4047 8.92749H11.8565V9.2287H11.4047V8.92749Z" fill="#F9E813"/>
<path fill-rule="evenodd" clip-rule="evenodd" d="M11.1666 9.04785H12V9.19845H11.1666V9.04785Z" fill="#060101"/>
<path fill-rule="evenodd" clip-rule="evenodd" d="M11.1666 9.16846H11.6184V9.31906H11.1666V9.16846Z" fill="#F9E813"/>
<path fill-rule="evenodd" clip-rule="evenodd" d="M11.6428 9.16846H12.0946V9.31906H11.6428V9.16846Z" fill="#F9E813"/>
<path fill-rule="evenodd" clip-rule="evenodd" d="M11.1666 9.52979H11.4678V9.98159H11.1666V9.52979Z" fill="#F9E813"/>
<path fill-rule="evenodd" clip-rule="evenodd" d="M11.7618 9.52979H12.063V9.98159H11.7618V9.52979Z" fill="#F9E813"/>
<path fill-rule="evenodd" clip-rule="evenodd" d="M11.5238 9.52979H11.6744V9.98159H11.5238V9.52979Z" fill="#F9E813"/>
<path fill-rule="evenodd" clip-rule="evenodd" d="M11.1666 9.40942H12V9.56003H11.1666V9.40942Z" fill="#060101"/>
<path fill-rule="evenodd" clip-rule="evenodd" d="M11.1666 9.77075H12V9.92135H11.1666V9.77075Z" fill="#060101"/>
<path fill-rule="evenodd" clip-rule="evenodd" d="M11.2856 9.28882H11.4362V9.43942H11.2856V9.28882Z" fill="#F9E813"/>
<path fill-rule="evenodd" clip-rule="evenodd" d="M11.7618 9.28882H11.9124V9.43942H11.7618V9.28882Z" fill="#F9E813"/>
<path fill-rule="evenodd" clip-rule="evenodd" d="M11.5238 9.16846H11.6744V9.46966H11.5238V9.16846Z" fill="#F9E813"/>
<path fill-rule="evenodd" clip-rule="evenodd" d="M11.4047 11.0962H11.8565V11.3974H11.4047V11.0962Z" fill="#F9E813"/>
<path fill-rule="evenodd" clip-rule="evenodd" d="M11.1666 11.2166H12V11.3672H11.1666V11.2166Z" fill="#060101"/>
<path fill-rule="evenodd" clip-rule="evenodd" d="M11.1666 11.3372H11.6184V11.4878H11.1666V11.3372Z" fill="#F9E813"/>
<path fill-rule="evenodd" clip-rule="evenodd" d="M11.6428 11.3372H12.0946V11.4878H11.6428V11.3372Z" fill="#F9E813"/>
<path fill-rule="evenodd" clip-rule="evenodd" d="M11.1666 11.6985H11.4678V12.1503H11.1666V11.6985Z" fill="#F9E813"/>
<path fill-rule="evenodd" clip-rule="evenodd" d="M11.7618 11.6985H12.063V12.1503H11.7618V11.6985Z" fill="#F9E813"/>
<path fill-rule="evenodd" clip-rule="evenodd" d="M11.5238 11.6985H11.6744V12.1503H11.5238V11.6985Z" fill="#F9E813"/>
<path fill-rule="evenodd" clip-rule="evenodd" d="M11.1666 11.5781H12V11.7287H11.1666V11.5781Z" fill="#060101"/>
<path fill-rule="evenodd" clip-rule="evenodd" d="M11.1666 11.9395H12V12.0901H11.1666V11.9395Z" fill="#060101"/>
<path fill-rule="evenodd" clip-rule="evenodd" d="M11.2856 11.4575H11.4362V11.6081H11.2856V11.4575Z" fill="#F9E813"/>
<path fill-rule="evenodd" clip-rule="evenodd" d="M11.7618 11.4575H11.9124V11.6081H11.7618V11.4575Z" fill="#F9E813"/>
<path fill-rule="evenodd" clip-rule="evenodd" d="M11.5238 11.3372H11.6744V11.6384H11.5238V11.3372Z" fill="#F9E813"/>
<path fill-rule="evenodd" clip-rule="evenodd" d="M6.99988 11.0962H7.45169V11.3974H6.99988V11.0962Z" fill="#F9E813"/>
<path fill-rule="evenodd" clip-rule="evenodd" d="M6.76184 11.2166H7.59517V11.3672H6.76184V11.2166Z" fill="#060101"/>
<path fill-rule="evenodd" clip-rule="evenodd" d="M6.76184 11.3372H7.21365V11.4878H6.76184V11.3372Z" fill="#F9E813"/>
<path fill-rule="evenodd" clip-rule="evenodd" d="M7.23804 11.3372H7.68984V11.4878H7.23804V11.3372Z" fill="#F9E813"/>
<path fill-rule="evenodd" clip-rule="evenodd" d="M6.76184 11.6985H7.06305V12.1503H6.76184V11.6985Z" fill="#F9E813"/>
<path fill-rule="evenodd" clip-rule="evenodd" d="M7.35706 11.6985H7.65826V12.1503H7.35706V11.6985Z" fill="#F9E813"/>
<path fill-rule="evenodd" clip-rule="evenodd" d="M7.11902 11.6985H7.26962V12.1503H7.11902V11.6985Z" fill="#F9E813"/>
<path fill-rule="evenodd" clip-rule="evenodd" d="M6.76184 11.5781H7.59517V11.7287H6.76184V11.5781Z" fill="#060101"/>
<path fill-rule="evenodd" clip-rule="evenodd" d="M6.76184 11.9395H7.59517V12.0901H6.76184V11.9395Z" fill="#060101"/>
<path fill-rule="evenodd" clip-rule="evenodd" d="M6.88086 11.4575H7.03146V11.6081H6.88086V11.4575Z" fill="#F9E813"/>
<path fill-rule="evenodd" clip-rule="evenodd" d="M7.35706 11.4575H7.50766V11.6081H7.35706V11.4575Z" fill="#F9E813"/>
<path fill-rule="evenodd" clip-rule="evenodd" d="M7.11902 11.3372H7.26962V11.6384H7.11902V11.3372Z" fill="#F9E813"/>
<path fill-rule="evenodd" clip-rule="evenodd" d="M7.28979 13.8147L7.58021 13.4686L7.81095 13.6622L7.52053 14.0083L7.28979 13.8147Z" fill="#F9E813"/>
<path fill-rule="evenodd" clip-rule="evenodd" d="M7.229 14.0745L7.76466 13.4361L7.88003 13.5329L7.34437 14.1713L7.229 14.0745Z" fill="#060101"/>
<path fill-rule="evenodd" clip-rule="evenodd" d="M7.32129 14.1519L7.6117 13.8058L7.72707 13.9026L7.43666 14.2487L7.32129 14.1519Z" fill="#F9E813"/>
<path fill-rule="evenodd" clip-rule="evenodd" d="M7.62744 13.7871L7.91786 13.441L8.03323 13.5378L7.74281 13.8839L7.62744 13.7871Z" fill="#F9E813"/>
<path fill-rule="evenodd" clip-rule="evenodd" d="M7.59814 14.3843L7.79176 14.1535L8.13786 14.444L7.94425 14.6747L7.59814 14.3843Z" fill="#F9E813"/>
<path fill-rule="evenodd" clip-rule="evenodd" d="M7.98083 13.9282L8.17445 13.6975L8.52055 13.9879L8.32694 14.2186L7.98083 13.9282Z" fill="#F9E813"/>
<path fill-rule="evenodd" clip-rule="evenodd" d="M7.82776 14.1106L7.92456 13.9952L8.27067 14.2856L8.17386 14.401L7.82776 14.1106Z" fill="#F9E813"/>
<path fill-rule="evenodd" clip-rule="evenodd" d="M7.50586 14.3069L8.04152 13.6685L8.15688 13.7653L7.62123 14.4037L7.50586 14.3069Z" fill="#060101"/>
<path fill-rule="evenodd" clip-rule="evenodd" d="M7.78284 14.5391L8.31849 13.9007L8.43386 13.9975L7.89821 14.6359L7.78284 14.5391Z" fill="#060101"/>
<path fill-rule="evenodd" clip-rule="evenodd" d="M7.49011 14.1382L7.58692 14.0228L7.70229 14.1196L7.60548 14.235L7.49011 14.1382Z" fill="#F9E813"/>
<path fill-rule="evenodd" clip-rule="evenodd" d="M7.79626 13.7734L7.89307 13.6581L8.00844 13.7549L7.91163 13.8702L7.79626 13.7734Z" fill="#F9E813"/>
<path fill-rule="evenodd" clip-rule="evenodd" d="M7.5509 13.8784L7.64771 13.763L7.87844 13.9567L7.78164 14.072L7.5509 13.8784Z" fill="#F9E813"/>
<path fill-rule="evenodd" clip-rule="evenodd" d="M11.3615 13.5413L11.6519 13.8874L11.4211 14.081L11.1307 13.7349L11.3615 13.5413Z" fill="#F9E813"/>
<path fill-rule="evenodd" clip-rule="evenodd" d="M11.1161 13.4363L11.6517 14.0746L11.5364 14.1715L11.0007 13.5331L11.1161 13.4363Z" fill="#060101"/>
<path fill-rule="evenodd" clip-rule="evenodd" d="M11.0238 13.5137L11.3142 13.8598L11.1989 13.9566L10.9084 13.6105L11.0238 13.5137Z" fill="#F9E813"/>
<path fill-rule="evenodd" clip-rule="evenodd" d="M11.3298 13.8787L11.6202 14.2248L11.5049 14.3216L11.2145 13.9755L11.3298 13.8787Z" fill="#F9E813"/>
<path fill-rule="evenodd" clip-rule="evenodd" d="M10.7469 13.7461L10.9406 13.9768L10.5945 14.2672L10.4008 14.0365L10.7469 13.7461Z" fill="#F9E813"/>
<path fill-rule="evenodd" clip-rule="evenodd" d="M11.1295 14.2021L11.3231 14.4329L10.977 14.7233L10.7834 14.4926L11.1295 14.2021Z" fill="#F9E813"/>
<path fill-rule="evenodd" clip-rule="evenodd" d="M10.9764 14.0198L11.0732 14.1351L10.7271 14.4256L10.6303 14.3102L10.9764 14.0198Z" fill="#F9E813"/>
<path fill-rule="evenodd" clip-rule="evenodd" d="M10.8392 13.6687L11.3749 14.3071L11.2595 14.4039L10.7239 13.7655L10.8392 13.6687Z" fill="#060101"/>
<path fill-rule="evenodd" clip-rule="evenodd" d="M10.5623 13.9009L11.0979 14.5392L10.9825 14.6361L10.4469 13.9977L10.5623 13.9009Z" fill="#060101"/>
<path fill-rule="evenodd" clip-rule="evenodd" d="M11.0081 13.6824L11.1049 13.7977L10.9895 13.8945L10.8927 13.7792L11.0081 13.6824Z" fill="#F9E813"/>
<path fill-rule="evenodd" clip-rule="evenodd" d="M11.3141 14.0471L11.4109 14.1625L11.2955 14.2593L11.1987 14.1439L11.3141 14.0471Z" fill="#F9E813"/>
<path fill-rule="evenodd" clip-rule="evenodd" d="M11.2533 13.7874L11.3501 13.9027L11.1194 14.0963L11.0226 13.981L11.2533 13.7874Z" fill="#F9E813"/>
<path fill-rule="evenodd" clip-rule="evenodd" d="M9.84889 10.2529H9.02368V10.8539C9.02368 10.8539 9.08492 11.1642 9.43629 11.1642C9.78765 11.1642 9.84889 10.8539 9.84889 10.8539V10.2529ZM9.38082 10.4939C9.38082 10.5604 9.32753 10.6144 9.26178 10.6144C9.19603 10.6144 9.14273 10.5604 9.14273 10.4939C9.14273 10.4274 9.19603 10.3734 9.26178 10.3734C9.32753 10.3734 9.38082 10.4274 9.38082 10.4939ZM9.26178 11.0963C9.32753 11.0963 9.38082 11.0424 9.38082 10.9758C9.38082 10.9093 9.32753 10.8553 9.26178 10.8553C9.19603 10.8553 9.14273 10.9093 9.14273 10.9758C9.14273 11.0424 9.19603 11.0963 9.26178 11.0963ZM9.73797 10.9758C9.73797 11.0424 9.68467 11.0963 9.61892 11.0963C9.55317 11.0963 9.49987 11.0424 9.49987 10.9758C9.49987 10.9093 9.55317 10.8553 9.61892 10.8553C9.68467 10.8553 9.73797 10.9093 9.73797 10.9758ZM9.44035 10.8553C9.5061 10.8553 9.5594 10.8014 9.5594 10.7349C9.5594 10.6683 9.5061 10.6144 9.44035 10.6144C9.3746 10.6144 9.3213 10.6683 9.3213 10.7349C9.3213 10.8014 9.3746 10.8553 9.44035 10.8553ZM9.73797 10.4939C9.73797 10.5604 9.68467 10.6144 9.61892 10.6144C9.55317 10.6144 9.49987 10.5604 9.49987 10.4939C9.49987 10.4274 9.55317 10.3734 9.61892 10.3734C9.68467 10.3734 9.73797 10.4274 9.73797 10.4939Z" fill="#013399"/>
<path fill-rule="evenodd" clip-rule="evenodd" d="M9.84889 11.5781H9.02368V12.179C9.02368 12.179 9.08492 12.4894 9.43629 12.4894C9.78765 12.4894 9.84889 12.179 9.84889 12.179V11.5781ZM9.38082 11.8191C9.38082 11.8856 9.32753 11.9396 9.26178 11.9396C9.19603 11.9396 9.14273 11.8856 9.14273 11.8191C9.14273 11.7525 9.19603 11.6986 9.26178 11.6986C9.32753 11.6986 9.38082 11.7525 9.38082 11.8191ZM9.26178 12.4215C9.32753 12.4215 9.38082 12.3676 9.38082 12.301C9.38082 12.2345 9.32753 12.1805 9.26178 12.1805C9.19603 12.1805 9.14273 12.2345 9.14273 12.301C9.14273 12.3676 9.19603 12.4215 9.26178 12.4215ZM9.73797 12.301C9.73797 12.3676 9.68467 12.4215 9.61892 12.4215C9.55317 12.4215 9.49987 12.3676 9.49987 12.301C9.49987 12.2345 9.55317 12.1805 9.61892 12.1805C9.68467 12.1805 9.73797 12.2345 9.73797 12.301ZM9.44035 12.1805C9.5061 12.1805 9.5594 12.1266 9.5594 12.0601C9.5594 11.9935 9.5061 11.9396 9.44035 11.9396C9.3746 11.9396 9.3213 11.9935 9.3213 12.0601C9.3213 12.1266 9.3746 12.1805 9.44035 12.1805ZM9.73797 11.8191C9.73797 11.8856 9.68467 11.9396 9.61892 11.9396C9.55317 11.9396 9.49987 11.8856 9.49987 11.8191C9.49987 11.7525 9.55317 11.6986 9.61892 11.6986C9.68467 11.6986 9.73797 11.7525 9.73797 11.8191Z" fill="#013399"/>
<path fill-rule="evenodd" clip-rule="evenodd" d="M10.9204 11.5781H10.0952V12.179C10.0952 12.179 10.1565 12.4894 10.5078 12.4894C10.8592 12.4894 10.9204 12.179 10.9204 12.179V11.5781ZM10.4524 11.8191C10.4524 11.8856 10.3991 11.9396 10.3333 11.9396C10.2676 11.9396 10.2143 11.8856 10.2143 11.8191C10.2143 11.7525 10.2676 11.6986 10.3333 11.6986C10.3991 11.6986 10.4524 11.7525 10.4524 11.8191ZM10.3333 12.4215C10.3991 12.4215 10.4524 12.3676 10.4524 12.301C10.4524 12.2345 10.3991 12.1805 10.3333 12.1805C10.2676 12.1805 10.2143 12.2345 10.2143 12.301C10.2143 12.3676 10.2676 12.4215 10.3333 12.4215ZM10.8095 12.301C10.8095 12.3676 10.7562 12.4215 10.6905 12.4215C10.6247 12.4215 10.5714 12.3676 10.5714 12.301C10.5714 12.2345 10.6247 12.1805 10.6905 12.1805C10.7562 12.1805 10.8095 12.2345 10.8095 12.301ZM10.5119 12.1805C10.5776 12.1805 10.6309 12.1266 10.6309 12.0601C10.6309 11.9935 10.5776 11.9396 10.5119 11.9396C10.4461 11.9396 10.3928 11.9935 10.3928 12.0601C10.3928 12.1266 10.4461 12.1805 10.5119 12.1805ZM10.8095 11.8191C10.8095 11.8856 10.7562 11.9396 10.6905 11.9396C10.6247 11.9396 10.5714 11.8856 10.5714 11.8191C10.5714 11.7525 10.6247 11.6986 10.6905 11.6986C10.7562 11.6986 10.8095 11.7525 10.8095 11.8191Z" fill="#013399"/>
<path fill-rule="evenodd" clip-rule="evenodd" d="M8.77748 11.5781H7.95227V12.179C7.95227 12.179 8.01351 12.4894 8.36487 12.4894C8.71624 12.4894 8.77748 12.179 8.77748 12.179V11.5781ZM8.30941 11.8191C8.30941 11.8856 8.25611 11.9396 8.19037 11.9396C8.12462 11.9396 8.07132 11.8856 8.07132 11.8191C8.07132 11.7525 8.12462 11.6986 8.19037 11.6986C8.25611 11.6986 8.30941 11.7525 8.30941 11.8191ZM8.19037 12.4215C8.25611 12.4215 8.30941 12.3676 8.30941 12.301C8.30941 12.2345 8.25611 12.1805 8.19037 12.1805C8.12462 12.1805 8.07132 12.2345 8.07132 12.301C8.07132 12.3676 8.12462 12.4215 8.19037 12.4215ZM8.66656 12.301C8.66656 12.3676 8.61326 12.4215 8.54751 12.4215C8.48176 12.4215 8.42846 12.3676 8.42846 12.301C8.42846 12.2345 8.48176 12.1805 8.54751 12.1805C8.61326 12.1805 8.66656 12.2345 8.66656 12.301ZM8.36894 12.1805C8.43469 12.1805 8.48798 12.1266 8.48798 12.0601C8.48798 11.9935 8.43469 11.9396 8.36894 11.9396C8.30319 11.9396 8.24989 11.9935 8.24989 12.0601C8.24989 12.1266 8.30319 12.1805 8.36894 12.1805ZM8.66656 11.8191C8.66656 11.8856 8.61326 11.9396 8.54751 11.9396C8.48176 11.9396 8.42846 11.8856 8.42846 11.8191C8.42846 11.7525 8.48176 11.6986 8.54751 11.6986C8.61326 11.6986 8.66656 11.7525 8.66656 11.8191Z" fill="#013399"/>
<path fill-rule="evenodd" clip-rule="evenodd" d="M9.84889 12.9033H9.02368V13.5042C9.02368 13.5042 9.08492 13.8146 9.43629 13.8146C9.78765 13.8146 9.84889 13.5042 9.84889 13.5042V12.9033ZM9.38082 13.1443C9.38082 13.2108 9.32753 13.2648 9.26178 13.2648C9.19603 13.2648 9.14273 13.2108 9.14273 13.1443C9.14273 13.0777 9.19603 13.0238 9.26178 13.0238C9.32753 13.0238 9.38082 13.0777 9.38082 13.1443ZM9.26178 13.7467C9.32753 13.7467 9.38082 13.6928 9.38082 13.6262C9.38082 13.5597 9.32753 13.5057 9.26178 13.5057C9.19603 13.5057 9.14273 13.5597 9.14273 13.6262C9.14273 13.6928 9.19603 13.7467 9.26178 13.7467ZM9.73797 13.6262C9.73797 13.6928 9.68467 13.7467 9.61892 13.7467C9.55317 13.7467 9.49987 13.6928 9.49987 13.6262C9.49987 13.5597 9.55317 13.5057 9.61892 13.5057C9.68467 13.5057 9.73797 13.5597 9.73797 13.6262ZM9.44035 13.5057C9.5061 13.5057 9.5594 13.4518 9.5594 13.3852C9.5594 13.3187 9.5061 13.2648 9.44035 13.2648C9.3746 13.2648 9.3213 13.3187 9.3213 13.3852C9.3213 13.4518 9.3746 13.5057 9.44035 13.5057ZM9.73797 13.1443C9.73797 13.2108 9.68467 13.2648 9.61892 13.2648C9.55317 13.2648 9.49987 13.2108 9.49987 13.1443C9.49987 13.0777 9.55317 13.0238 9.61892 13.0238C9.68467 13.0238 9.73797 13.0777 9.73797 13.1443Z" fill="#013399"/>
</svg>
