<svg width="24" height="25" viewBox="0 0 24 25" fill="none" xmlns="http://www.w3.org/2000/svg">
<path fill-rule="evenodd" clip-rule="evenodd" d="M2 4.5H22V19.5H2V4.5Z" fill="#E31D1C"/>
<path fill-rule="evenodd" clip-rule="evenodd" d="M2 5.75V7H22V5.75H2ZM2 8.25V9.5H22V8.25H2ZM2 12V10.75H22V12H2ZM2 13.25V14.5H22V13.25H2ZM2 17V15.75H22V17H2ZM2 19.5V18.25H22V19.5H2Z" fill="#F7FCFF"/>
<rect x="2" y="4.5" width="11.25" height="8.75" fill="#2E42A5"/>
<path fill-rule="evenodd" clip-rule="evenodd" d="M3.3 7.21718L3.9624 6.75577L4.47623 7.12569H4.1853L4.77364 7.64606L4.57492 8.37569H4.26369L3.96148 7.70557L3.70375 8.37569H2.9353L3.52364 8.89606L3.3 9.71719L3.9624 9.25577L4.47623 9.62569H4.1853L4.77364 10.1461L4.57492 10.8757H4.26369L3.96148 10.2056L3.70375 10.8757H2.9353L3.52364 11.3961L3.3 12.2172L3.9624 11.7558L4.60332 12.2172L4.40406 11.3961L4.91877 10.8757H4.68136L5.2124 10.5058L5.72623 10.8757H5.4353L6.02364 11.3961L5.8 12.2172L6.4624 11.7558L7.10332 12.2172L6.90406 11.3961L7.41877 10.8757H7.18136L7.7124 10.5058L8.22623 10.8757H7.9353L8.52364 11.3961L8.3 12.2172L8.9624 11.7558L9.60332 12.2172L9.40406 11.3961L9.91877 10.8757H9.68136L10.2124 10.5058L10.7262 10.8757H10.4353L11.0236 11.3961L10.8 12.2172L11.4624 11.7558L12.1033 12.2172L11.9041 11.3961L12.4188 10.8757H11.7637L11.4615 10.2056L11.2037 10.8757H10.8311L10.6541 10.1461L11.1688 9.62569H10.9314L11.4624 9.25577L12.1033 9.71719L11.9041 8.89606L12.4188 8.37569H11.7637L11.4615 7.70557L11.2037 8.37569H10.8311L10.6541 7.64606L11.1688 7.12569H10.9314L11.4624 6.75577L12.1033 7.21718L11.9041 6.39606L12.4188 5.87569H11.7637L11.4615 5.20557L11.2037 5.87569H10.4353L11.0236 6.39606L10.8249 7.12569H10.5137L10.2115 6.45557L9.95375 7.12569H9.58112L9.40406 6.39606L9.91877 5.87569H9.26369L8.96148 5.20557L8.70375 5.87569H7.9353L8.52364 6.39606L8.32492 7.12569H8.01369L7.71148 6.45557L7.45375 7.12569H7.08112L6.90406 6.39606L7.41877 5.87569H6.76369L6.46148 5.20557L6.20375 5.87569H5.4353L6.02364 6.39606L5.82492 7.12569H5.51369L5.21148 6.45557L4.95375 7.12569H4.58112L4.40406 6.39606L4.91877 5.87569H4.26369L3.96148 5.20557L3.70375 5.87569H2.9353L3.52364 6.39606L3.3 7.21718ZM10.8249 9.62569L11.0236 8.89606L10.4353 8.37569H10.7262L10.2124 8.00577L9.68136 8.37569H9.91877L9.40406 8.89606L9.58112 9.62569H9.95375L10.2115 8.95557L10.5137 9.62569H10.8249ZM9.47623 9.62569L8.9624 9.25577L8.43136 9.62569H8.66877L8.15406 10.1461L8.33112 10.8757H8.70375L8.96148 10.2056L9.26369 10.8757H9.57492L9.77364 10.1461L9.1853 9.62569H9.47623ZM7.27364 10.1461L7.07492 10.8757H6.76369L6.46148 10.2056L6.20375 10.8757H5.83112L5.65406 10.1461L6.16877 9.62569H5.93136L6.4624 9.25577L6.97623 9.62569H6.6853L7.27364 10.1461ZM7.45375 9.62569H7.08112L6.90406 8.89606L7.41877 8.37569H7.18136L7.7124 8.00577L8.22623 8.37569H7.9353L8.52364 8.89606L8.32492 9.62569H8.01369L7.71148 8.95557L7.45375 9.62569ZM5.82492 9.62569L6.02364 8.89606L5.4353 8.37569H5.72623L5.2124 8.00577L4.68136 8.37569H4.91877L4.40406 8.89606L4.58112 9.62569H4.95375L5.21148 8.95557L5.51369 9.62569H5.82492ZM9.77364 7.64606L9.57492 8.37569H9.26369L8.96148 7.70557L8.70375 8.37569H8.33112L8.15406 7.64606L8.66877 7.12569H8.43136L8.9624 6.75577L9.47623 7.12569H9.1853L9.77364 7.64606ZM6.97623 7.12569L6.4624 6.75577L5.93136 7.12569H6.16877L5.65406 7.64606L5.83112 8.37569H6.20375L6.46148 7.70557L6.76369 8.37569H7.07492L7.27364 7.64606L6.6853 7.12569H6.97623Z" fill="#F7FCFF"/>
</svg>
