<svg width="64" height="64" viewBox="0 0 64 64" fill="none" xmlns="http://www.w3.org/2000/svg">
<path d="M62.9988 39.745C61.4739 45.8918 58.1594 51.4479 53.475 55.7098C48.7905 59.9718 42.9467 62.7479 36.6836 63.6867C30.4204 64.6254 24.0196 63.6846 18.2914 60.9834C12.5633 58.2822 7.76543 53.942 4.50542 48.5124C1.24541 43.0827 -0.33018 36.8079 -0.0218598 30.4823C0.28646 24.1567 2.46482 18.0648 6.23742 12.978C10.01 7.89113 15.2072 4.03812 21.1709 1.90676C27.1346 -0.224591 33.5966 -0.538427 39.7388 1.00499C47.9536 3.06922 55.0149 8.30617 59.375 15.568C63.7351 22.8298 65.0382 31.524 62.9988 39.745Z" fill="#33B895"/>
<path d="M57.2189 38.295C55.9763 43.2853 53.2817 47.795 49.476 51.2538C45.6703 54.7125 40.9243 56.965 35.8383 57.7263C30.7523 58.4877 25.5548 57.7236 20.9031 55.5308C16.2514 53.3381 12.3544 49.8151 9.70507 45.4074C7.0557 40.9997 5.77296 35.9054 6.01905 30.7686C6.26515 25.6319 8.02904 20.6835 11.0876 16.5493C14.1462 12.415 18.3622 9.28072 23.2022 7.54269C28.0422 5.80466 33.289 5.541 38.2789 6.78504C44.9684 8.45284 50.7217 12.7092 54.2735 18.6183C57.8252 24.5273 58.8847 31.605 57.2189 38.295Z" fill="#33B895"/>
<path d="M31.2188 30.2276L32.7481 28.6269C32.843 28.5287 32.9567 28.4506 33.0824 28.3972C33.208 28.3438 33.3431 28.3161 33.4797 28.3159H33.5434C33.6878 28.3155 33.8306 28.3457 33.9624 28.4046C34.0942 28.4634 34.212 28.5497 34.308 28.6575L35.5978 30.118C35.7191 30.2551 35.8682 30.3649 36.0352 30.44C36.2022 30.5151 36.3832 30.5539 36.5663 30.5538H49.9988C49.8724 29.0329 49.5538 27.5342 49.0506 26.0933H38.6972C38.5138 26.093 38.3325 26.054 38.1652 25.9789C37.9978 25.9038 37.8482 25.7943 37.7261 25.6575L36.4363 24.197C36.3407 24.0885 36.223 24.0016 36.0912 23.9421C35.9593 23.8826 35.8163 23.8518 35.6717 23.8518C35.527 23.8518 35.384 23.8826 35.2522 23.9421C35.1204 24.0016 35.0027 24.0885 34.907 24.197L33.8085 25.4459C33.6296 25.6488 33.4096 25.8113 33.163 25.9224C32.9164 26.0336 32.649 26.091 32.3786 26.0908H14.947C14.4447 27.5292 14.1261 29.0254 13.9988 30.5436H30.4542C30.5964 30.5452 30.7374 30.518 30.8688 30.4637C31.0002 30.4094 31.1192 30.3291 31.2188 30.2276Z" fill="black"/>
<path d="M31.3105 34.9889L30.0183 33.531C29.9226 33.4225 29.8049 33.3356 29.6731 33.2761C29.5413 33.2166 29.3983 33.1858 29.2536 33.1858C29.109 33.1858 28.966 33.2166 28.8341 33.2761C28.7023 33.3356 28.5846 33.4225 28.489 33.531L27.3828 34.7825C27.2032 34.9851 26.9827 35.1474 26.7357 35.2586C26.4888 35.3698 26.2211 35.4273 25.9503 35.4273H14.2256C14.5176 36.9872 15.0147 38.5016 15.7039 39.9311H23.9367C24.0796 39.9314 24.2211 39.9026 24.3525 39.8465C24.484 39.7904 24.6027 39.7082 24.7014 39.6049L26.2307 38.0068C26.3254 37.9081 26.4389 37.8295 26.5646 37.7757C26.6903 37.7218 26.8255 37.6938 26.9622 37.6932H27.0259C27.1703 37.6928 27.3131 37.723 27.4449 37.7819C27.5768 37.8408 27.6946 37.927 27.7906 38.0348L29.0829 39.4953C29.204 39.6327 29.3531 39.7426 29.5201 39.8178C29.6871 39.8929 29.8683 39.9316 30.0514 39.9311H48.2528C48.9436 38.502 49.4416 36.9875 49.7337 35.4273H32.2791C32.0958 35.4273 31.9146 35.3882 31.7476 35.3126C31.5805 35.237 31.4316 35.1266 31.3105 34.9889Z" fill="black"/>
<path d="M37.6343 20.8937L39.1637 19.293C39.2591 19.1942 39.3736 19.1158 39.5002 19.0623C39.6268 19.0089 39.7629 18.9816 39.9003 18.9821H39.964C40.1084 18.9816 40.2512 19.0118 40.383 19.0707C40.5148 19.1296 40.6326 19.2158 40.7286 19.3236L42.0184 20.7841C42.1397 20.9212 42.2888 21.031 42.4558 21.1061C42.6228 21.1813 42.8038 21.2201 42.9869 21.22H46.4508C44.7674 18.9795 42.5859 17.1613 40.0788 15.9091C37.5717 14.6569 34.8076 14.005 32.0052 14.005C29.2028 14.005 26.4387 14.6569 23.9316 15.9091C21.4245 17.1613 19.243 18.9795 17.5596 21.22H36.8748C37.0168 21.2195 37.1573 21.1904 37.2878 21.1343C37.4184 21.0783 37.5362 20.9964 37.6343 20.8937Z" fill="black"/>
<path d="M29.9165 44.3967H25.1832C25.0002 44.3965 24.8192 44.3575 24.6523 44.2824C24.4854 44.2073 24.3362 44.0977 24.2147 43.9608L22.9224 42.5003C22.8267 42.3918 22.7091 42.305 22.5772 42.2454C22.4454 42.1859 22.3024 42.1552 22.1577 42.1552C22.0131 42.1552 21.8701 42.1859 21.7383 42.2454C21.6064 42.305 21.4888 42.3918 21.3931 42.5003L20.2869 43.7518C20.1073 43.9545 19.8868 44.1168 19.6399 44.228C19.3929 44.3391 19.1252 44.3966 18.8544 44.3967H18.7805C20.4703 46.2094 22.5151 47.6549 24.7876 48.6433C27.0602 49.6316 29.5118 50.1417 31.9899 50.1417C34.4681 50.1417 36.9198 49.6316 39.1923 48.6433C41.4648 47.6549 43.5096 46.2094 45.1994 44.3967H29.9165Z" fill="black"/>
</svg>
