<svg width="64" height="64" viewBox="0 0 64 64" fill="none" xmlns="http://www.w3.org/2000/svg">
<path d="M63.0112 39.745C61.4864 45.8918 58.1719 51.4479 53.4874 55.7098C48.8029 59.9718 42.9592 62.7479 36.696 63.6867C30.4329 64.6254 24.032 63.6846 18.3039 60.9834C12.5757 58.2822 7.77788 53.942 4.51787 48.5124C1.25786 43.0827 -0.317728 36.8079 -0.00940867 30.4823C0.298911 24.1567 2.47728 18.0648 6.24987 12.978C10.0225 7.89113 15.2196 4.03812 21.1833 1.90676C27.147 -0.224591 33.6091 -0.538427 39.7512 1.00499C47.966 3.06922 55.0273 8.30617 59.3874 15.568C63.7475 22.8298 65.0506 31.524 63.0112 39.745Z" fill="#E84142"/>
<path d="M57.2313 38.295C55.9888 43.2853 53.2942 47.795 49.4885 51.2538C45.6827 54.7125 40.9367 56.965 35.8508 57.7263C30.7648 58.4877 25.5673 57.7236 20.9156 55.5308C16.2638 53.3381 12.3669 49.8151 9.71752 45.4074C7.06815 40.9997 5.78541 35.9054 6.0315 30.7686C6.2776 25.6319 8.04149 20.6835 11.1001 16.5493C14.1587 12.415 18.3746 9.28072 23.2146 7.54269C28.0547 5.80466 33.3014 5.541 38.2913 6.78504C44.9809 8.45284 50.7341 12.7092 54.2859 18.6183C57.8377 24.5273 58.8972 31.605 57.2313 38.295Z" fill="#E84142"/>
<path d="M40.0611 32.685C40.8511 31.315 42.1211 31.315 42.9211 32.685L47.8411 41.325C48.6311 42.695 47.9811 43.805 46.4011 43.805H36.4811C34.9211 43.805 34.2711 42.695 35.0411 41.325L40.0611 32.685ZM30.5311 16.005C31.3211 14.635 32.5811 14.635 33.3711 16.005L34.4711 18.005L37.0611 22.555C37.3719 23.1973 37.5333 23.9016 37.5333 24.615C37.5333 25.3285 37.3719 26.0328 37.0611 26.675L28.3811 41.675C27.9911 42.2754 27.466 42.7761 26.8478 43.1373C26.2297 43.4984 25.5356 43.71 24.8211 43.755H17.6111C16.0311 43.755 15.3811 42.665 16.1711 41.275L30.5311 16.005Z" fill="white"/>
</svg>
