<svg width="64" height="64" viewBox="0 0 64 64" fill="none" xmlns="http://www.w3.org/2000/svg">
<path d="M62.99 39.745C61.4651 45.8918 58.1506 51.4479 53.4662 55.7098C48.7817 59.9718 42.9379 62.7479 36.6748 63.6867C30.4116 64.6254 24.0108 63.6846 18.2826 60.9834C12.5545 58.2822 7.75664 53.942 4.49663 48.5124C1.23662 43.0827 -0.338969 36.8079 -0.0306489 30.4823C0.277671 24.1567 2.45604 18.0648 6.22863 12.978C10.0012 7.89113 15.1984 4.03812 21.1621 1.90676C27.1258 -0.224591 33.5878 -0.538427 39.73 1.00499C47.9448 3.06922 55.0061 8.30617 59.3662 15.568C63.7263 22.8298 65.0294 31.524 62.99 39.745Z" fill="black"/>
<path d="M57.21 38.295C55.9669 43.2854 53.2717 47.7951 49.4652 51.2536C45.6588 54.7121 40.9122 56.964 35.8258 57.7245C30.7394 58.4851 25.5417 57.72 20.8902 55.5262C16.2386 53.3324 12.3421 49.8083 9.69364 45.3997C7.04515 40.9912 5.7636 35.8962 6.01109 30.7592C6.25858 25.6222 8.02399 20.674 11.084 16.5405C14.1441 12.4069 18.3613 9.27377 23.2022 7.53728C28.0431 5.80078 33.2903 5.53897 38.28 6.78495C44.9677 8.45493 50.7185 12.7123 54.2683 18.621C57.818 24.5298 58.8761 31.6063 57.21 38.295Z" fill="black"/>
<path d="M31.9618 48.005C40.8143 48.005 47.99 40.8421 47.99 32.005C47.99 23.1679 40.8143 16.005 31.9618 16.005C23.5638 16.005 16.6748 22.4536 15.99 30.6597H37.1753V33.3503H15.99C16.6748 41.5564 23.5638 48.005 31.9618 48.005Z" fill="white"/>
</svg>
