<svg width="64" height="64" viewBox="0 0 64 64" fill="none" xmlns="http://www.w3.org/2000/svg">
<path d="M63.0049 39.745C61.48 45.8918 58.1655 51.4479 53.4811 55.7098C48.7966 59.9718 42.9528 62.7479 36.6897 63.6867C30.4265 64.6254 24.0257 63.6846 18.2975 60.9834C12.5694 58.2822 7.77154 53.942 4.51153 48.5124C1.25151 43.0827 -0.324076 36.8079 -0.0157563 30.4823C0.292563 24.1567 2.47093 18.0648 6.24353 12.978C10.0161 7.89113 15.2133 4.03812 21.177 1.90676C27.1407 -0.224591 33.6027 -0.538427 39.7449 1.00499C47.9597 3.06922 55.021 8.30617 59.3811 15.568C63.7412 22.8298 65.0443 31.524 63.0049 39.745Z" fill="#F0B90B"/>
<path d="M57.225 38.295C55.9824 43.2853 53.2878 47.795 49.4821 51.2538C45.6764 54.7125 40.9304 56.965 35.8444 57.7263C30.7584 58.4877 25.5609 57.7236 20.9092 55.5308C16.2575 53.3381 12.3605 49.8151 9.71117 45.4074C7.06181 40.9997 5.77906 35.9054 6.02516 30.7686C6.27126 25.6319 8.03515 20.6835 11.0937 16.5493C14.1523 12.415 18.3683 9.28072 23.2083 7.54269C28.0483 5.80466 33.2951 5.541 38.285 6.78504C44.9745 8.45284 50.7278 12.7092 54.2796 18.6183C57.8314 24.5273 58.8908 31.605 57.225 38.295Z" fill="#F0B90B"/>
<path d="M31.6548 13.715L36.0948 18.265L24.9048 29.465L20.4548 25.005L31.6548 13.715ZM38.4048 20.465L42.8448 25.005L24.9048 43.005L20.4548 38.555L38.4048 20.465ZM18.1548 27.215L22.5948 31.765L18.1548 36.215L13.7048 31.765L18.1548 27.215ZM45.1548 27.215L49.5948 31.765L31.6548 49.765L27.2048 45.265L45.1548 27.215Z" fill="white"/>
</svg>
