<svg width="64" height="64" viewBox="0 0 64 64" fill="none" xmlns="http://www.w3.org/2000/svg">
<path d="M62.9924 39.745C61.4676 45.8918 58.1531 51.4479 53.4686 55.7098C48.7841 59.9718 42.9404 62.7479 36.6772 63.6867C30.4141 64.6254 24.0132 63.6846 18.2851 60.9834C12.5569 58.2822 7.75909 53.942 4.49907 48.5124C1.23906 43.0827 -0.336527 36.8079 -0.0282075 30.4823C0.280112 24.1567 2.45848 18.0648 6.23108 12.978C10.0037 7.89113 15.2008 4.03812 21.1645 1.90676C27.1282 -0.224591 33.5903 -0.538427 39.7324 1.00499C47.9472 3.06922 55.0085 8.30617 59.3686 15.568C63.7287 22.8298 65.0318 31.524 62.9924 39.745Z" fill="#CECE13"/>
<path d="M57.2125 38.295C55.97 43.2853 53.2754 47.795 49.4697 51.2538C45.6639 54.7125 40.9179 56.965 35.832 57.7263C30.746 58.4877 25.5485 57.7236 20.8968 55.5308C16.245 53.3381 12.3481 49.8151 9.69872 45.4074C7.04936 40.9997 5.76661 35.9054 6.01271 30.7686C6.2588 25.6319 8.02269 20.6835 11.0813 16.5493C14.1399 12.415 18.3558 9.28072 23.1958 7.54269C28.0359 5.80466 33.2826 5.541 38.2725 6.78504C44.9621 8.45284 50.7153 12.7092 54.2671 18.6183C57.8189 24.5273 58.8784 31.605 57.2125 38.295Z" fill="#CECE13"/>
<path d="M48.0355 28.8828L49.9924 22.8607L46.0785 20.005H20.0183L13.9924 24.4925H44.6254L42.9978 29.5433H30.7136L29.5317 33.2343H41.8159L39.8454 39.303H39.8376L39.8396 39.2953H39.3164H22.6534L26.1991 28.2223L22.2658 25.2695L16.3563 43.8604H37.375H38.367L44.1216 41.0048L46.1754 34.633L42.3197 31.7967L42.3584 31.719L48.0355 28.8828Z" fill="#242405"/>
</svg>
