<svg width="65" height="64" viewBox="0 0 65 64" fill="none" xmlns="http://www.w3.org/2000/svg">
<g clip-path="url(#clip0_151_28909)">
<path d="M63.0076 39.745C61.4827 45.8918 58.1682 51.4479 53.4837 55.7098C48.7993 59.9718 42.9555 62.7479 36.6924 63.6867C30.4292 64.6254 24.0283 63.6846 18.3002 60.9834C12.572 58.2822 7.77422 53.942 4.51421 48.5124C1.2542 43.0827 -0.321391 36.8079 -0.0130708 30.4823C0.295249 24.1567 2.47361 18.0648 6.24621 12.978C10.0188 7.89113 15.216 4.03812 21.1797 1.90676C27.1434 -0.224591 33.6054 -0.538427 39.7476 1.00499C47.9624 3.06922 55.0237 8.30617 59.3838 15.568C63.7438 22.8298 65.047 31.524 63.0076 39.745Z" fill="#818FDD"/>
<path d="M57.2276 38.295C55.985 43.2853 53.2904 47.795 49.4847 51.2538C45.6789 54.7125 40.933 56.965 35.847 57.7263C30.761 58.4877 25.5635 57.7236 20.9118 55.5308C16.2601 53.3381 12.3631 49.8151 9.71373 45.4074C7.06437 40.9997 5.78162 35.9054 6.02772 30.7686C6.27382 25.6319 8.03771 20.6835 11.0963 16.5493C14.1549 12.415 18.3708 9.28072 23.2109 7.54269C28.0509 5.80466 33.2977 5.541 38.2876 6.78504C44.9771 8.45284 50.7304 12.7092 54.2821 18.6183C57.8339 24.5273 58.8934 31.605 57.2276 38.295Z" fill="#818FDD"/>
<path d="M32.0076 39.005L32.2676 39.255L43.9276 32.365L32.2876 13.005L32.0276 13.865L32.0076 39.005Z" fill="#FFFDFE"/>
<path d="M32.2877 39.255V13.005L20.6177 32.365L32.2877 39.255Z" fill="#B0E7FF"/>
<path d="M32.1375 50.585L32.2874 51.005L44.0075 34.575L32.2874 41.465L32.1375 41.635V50.585Z" fill="#FFFDFF"/>
<path d="M20.6177 34.575L32.2877 51.005V41.465L20.6177 34.575Z" fill="#B0E7FF"/>
<path d="M32.2876 27.0649V39.2549L43.9476 32.3649L32.2876 27.0649Z" fill="#FFFDFF"/>
<path d="M32.2877 27.0649L20.6177 32.3649L32.2877 39.2549V27.0649Z" fill="#C8F7F7"/>
</g>
<defs>
<clipPath id="clip0_151_28909">
<rect width="64.01" height="64" fill="white" transform="translate(0.00756836 0.00500488)"/>
</clipPath>
</defs>
</svg>
