<svg width="65" height="64" viewBox="0 0 65 64" fill="none" xmlns="http://www.w3.org/2000/svg">
<g clip-path="url(#clip0_151_28963)">
<path d="M63.9863 39.745C62.4615 45.8918 59.147 51.4479 54.4625 55.7098C49.778 59.9718 43.9343 62.7479 37.6711 63.6867C31.408 64.6254 25.0071 63.6846 19.279 60.9834C13.5508 58.2822 8.75298 53.942 5.49297 48.5124C2.23296 43.0827 0.657369 36.8079 0.965689 30.4823C1.27401 24.1567 3.45237 18.0648 7.22497 12.978C10.9976 7.89113 16.1947 4.03812 22.1584 1.90676C28.1221 -0.224591 34.5842 -0.538427 40.7263 1.00499C48.9411 3.06922 56.0024 8.30617 60.3625 15.568C64.7226 22.8298 66.0257 31.524 63.9863 39.745Z" fill="#864DE6"/>
<path d="M58.2063 38.295C56.9632 43.2854 54.268 47.7951 50.4616 51.2536C46.6552 54.7121 41.9086 56.964 36.8222 57.7245C31.7358 58.4851 26.5381 57.72 21.8865 55.5262C17.2349 53.3324 13.3385 49.8083 10.69 45.3997C8.04149 40.9912 6.75993 35.8962 7.00743 30.7592C7.25492 25.6222 9.02033 20.674 12.0804 16.5405C15.1404 12.4069 19.3576 9.27377 24.1985 7.53728C29.0394 5.80078 34.2866 5.53897 39.2763 6.78495C45.964 8.45493 51.7149 12.7123 55.2646 18.621C58.8144 24.5298 59.8725 31.6063 58.2063 38.295Z" fill="#864DE6"/>
<path d="M48.7263 30.615L41.2563 26.305C41.0137 26.1576 40.7352 26.0796 40.4513 26.0796C40.1674 26.0796 39.8889 26.1576 39.6463 26.305L26.3263 34.005C26.08 34.1472 25.8006 34.2221 25.5163 34.2221C25.2319 34.2221 24.9525 34.1472 24.7063 34.005L20.4663 31.555C20.2204 31.4131 20.0162 31.2091 19.8741 30.9634C19.7319 30.7177 19.6568 30.4389 19.6563 30.155V25.235C19.6555 24.9523 19.7301 24.6744 19.8725 24.43C20.0149 24.1857 20.2199 23.9838 20.4663 23.845L24.7063 21.385C24.9507 21.2427 25.2285 21.1678 25.5113 21.1678C25.7941 21.1678 26.0719 21.2427 26.3163 21.385L30.5663 23.845C30.8127 23.9838 31.0177 24.1857 31.16 24.43C31.3024 24.6744 31.3771 24.9523 31.3763 25.235V27.595C31.3763 27.6471 31.3867 27.6987 31.4069 27.7466C31.4271 27.7946 31.4567 27.8381 31.494 27.8744C31.5313 27.9108 31.5755 27.9393 31.624 27.9583C31.6724 27.9773 31.7242 27.9864 31.7763 27.985C31.8474 27.9852 31.917 27.9644 31.9763 27.925L34.1863 26.655C34.3083 26.5834 34.4094 26.4812 34.4796 26.3583C34.5497 26.2355 34.5865 26.0965 34.5863 25.955V23.375C34.5856 23.0964 34.5112 22.823 34.3707 22.5824C34.2302 22.3418 34.0286 22.1426 33.7863 22.005L26.3163 17.695C26.0719 17.5527 25.7941 17.4778 25.5113 17.4778C25.2285 17.4778 24.9507 17.5527 24.7063 17.695L17.2363 22.005C16.9899 22.1438 16.7849 22.3457 16.6425 22.59C16.5001 22.8344 16.4255 23.1123 16.4263 23.395V32.005C16.4255 32.2878 16.5001 32.5657 16.6425 32.81C16.7849 33.0544 16.9899 33.2563 17.2363 33.395L24.7063 37.705C24.9507 37.8473 25.2285 37.9223 25.5113 37.9223C25.7941 37.9223 26.0719 37.8473 26.3163 37.705L39.6363 30.005C39.8825 29.8629 40.1619 29.788 40.4463 29.788C40.7306 29.788 41.01 29.8629 41.2563 30.005L45.5263 32.465C45.7669 32.6086 45.9662 32.8122 46.1047 33.0558C46.2432 33.2994 46.3161 33.5748 46.3163 33.855V38.775C46.316 39.0576 46.241 39.3351 46.0987 39.5792C45.9564 39.8234 45.752 40.0255 45.5063 40.165L41.2563 42.615C41.0119 42.7573 40.7341 42.8323 40.4513 42.8323C40.1685 42.8323 39.8907 42.7573 39.6463 42.615L35.3963 40.155C35.1499 40.0163 34.9449 39.8144 34.8025 39.57C34.6601 39.3257 34.5855 39.0478 34.5863 38.765V36.415C34.5863 36.309 34.5441 36.2072 34.4691 36.1322C34.3941 36.0572 34.2924 36.015 34.1863 36.015C34.1151 36.0148 34.0456 36.0357 33.9863 36.075L31.7763 37.345C31.6543 37.4166 31.5532 37.5189 31.483 37.6417C31.4128 37.7646 31.376 37.9036 31.3763 38.045V40.635C31.3748 40.9181 31.4479 41.1966 31.5884 41.4424C31.7288 41.6882 31.9316 41.8926 32.1763 42.035L39.6663 46.335C39.9107 46.4773 40.1885 46.5523 40.4713 46.5523C40.7541 46.5523 41.0319 46.4773 41.2763 46.335L48.7463 42.005C48.9908 41.8616 49.1939 41.6572 49.3359 41.4118C49.4778 41.1665 49.5538 40.8885 49.5563 40.605V32.005C49.553 31.7207 49.4745 31.4423 49.3287 31.1981C49.1829 30.954 48.9751 30.7528 48.7263 30.615Z" fill="white"/>
</g>
<defs>
<clipPath id="clip0_151_28963">
<rect width="64.01" height="64" fill="white" transform="translate(0.986328 0.00500488)"/>
</clipPath>
</defs>
</svg>
