<svg width="64" height="64" viewBox="0 0 64 64" fill="none" xmlns="http://www.w3.org/2000/svg">
<path d="M63.0038 39.745C61.4789 45.8918 58.1644 51.4479 53.48 55.7098C48.7955 59.9718 42.9517 62.7479 36.6886 63.6867C30.4254 64.6254 24.0246 63.6846 18.2964 60.9834C12.5683 58.2822 7.77044 53.942 4.51043 48.5124C1.25042 43.0827 -0.325175 36.8079 -0.016855 30.4823C0.291465 24.1567 2.46983 18.0648 6.24243 12.978C10.015 7.89113 15.2122 4.03812 21.1759 1.90676C27.1396 -0.224591 33.6016 -0.538427 39.7438 1.00499C47.9586 3.06922 55.0199 8.30617 59.38 15.568C63.7401 22.8298 65.0432 31.524 63.0038 39.745Z" fill="#000101"/>
<path d="M57.2238 38.295C55.9807 43.2854 53.2854 47.7951 49.479 51.2536C45.6726 54.7121 40.926 56.964 35.8396 57.7245C30.7532 58.4851 25.5555 57.72 20.9039 55.5262C16.2524 53.3324 12.3559 49.8083 9.70744 45.3997C7.05894 40.9912 5.77739 35.8962 6.02488 30.7592C6.27237 25.6222 8.03779 20.674 11.0978 16.5405C14.1579 12.4069 18.375 9.27377 23.216 7.53728C28.0569 5.80078 33.3041 5.53897 38.2938 6.78495C44.9815 8.45493 50.7323 12.7123 54.2821 18.621C57.8318 24.5298 58.8899 31.6063 57.2238 38.295Z" fill="#000101"/>
<path d="M21.5438 38.415C21.6364 38.3205 21.7469 38.2453 21.8687 38.1938C21.9906 38.1423 22.1215 38.1155 22.2538 38.115H47.0538C47.1926 38.1228 47.3228 38.1848 47.4164 38.2876C47.5099 38.3905 47.5593 38.5261 47.5538 38.665C47.5452 38.7905 47.4961 38.9098 47.4138 39.005L42.5138 43.895C42.4212 43.9895 42.3107 44.0646 42.1889 44.1161C42.067 44.1676 41.9361 44.1944 41.8038 44.195H17.0038C16.8965 44.2019 16.7898 44.1747 16.6989 44.1173C16.608 44.0599 16.5376 43.9752 16.4977 43.8754C16.4577 43.7756 16.4504 43.6658 16.4766 43.5615C16.5029 43.4573 16.5614 43.364 16.6438 43.295L21.5438 38.415Z" fill="url(#paint0_linear_151_28899)"/>
<path d="M21.5438 20.1149C21.6364 20.0205 21.7469 19.9453 21.8688 19.8938C21.9906 19.8423 22.1215 19.8155 22.2538 19.8149H47.0538C47.1212 19.8149 47.1879 19.8285 47.2499 19.8548C47.3119 19.8812 47.3679 19.9198 47.4146 19.9684C47.4613 20.017 47.4977 20.0745 47.5217 20.1375C47.5456 20.2004 47.5565 20.2676 47.5538 20.3349C47.5526 20.465 47.5026 20.5899 47.4138 20.6849L42.5138 25.5949C42.4212 25.6894 42.3108 25.7646 42.1889 25.8161C42.067 25.8676 41.9361 25.8944 41.8038 25.8949H17.0038C16.865 25.8872 16.7348 25.8252 16.6413 25.7223C16.5477 25.6194 16.4984 25.4839 16.5038 25.3449C16.5124 25.2194 16.5615 25.1001 16.6438 25.0049L21.5438 20.1149Z" fill="url(#paint1_linear_151_28899)"/>
<path d="M42.5138 29.205C42.4212 29.1105 42.3108 29.0354 42.1889 28.9839C42.067 28.9324 41.9361 28.9056 41.8038 28.905H17.0038C16.865 28.9128 16.7348 28.9748 16.6413 29.0777C16.5477 29.1806 16.4984 29.3161 16.5038 29.455C16.5124 29.5805 16.5615 29.6999 16.6438 29.795L21.5438 34.675C21.6364 34.7695 21.7469 34.8447 21.8688 34.8962C21.9906 34.9477 22.1215 34.9745 22.2538 34.975H47.0538C47.1208 34.9737 47.1869 34.9592 47.2483 34.9324C47.3096 34.9056 47.3651 34.8669 47.4116 34.8186C47.458 34.7703 47.4944 34.7134 47.5189 34.651C47.5433 34.5886 47.5552 34.522 47.5538 34.455C47.5526 34.325 47.5026 34.2001 47.4138 34.105L42.5138 29.205Z" fill="url(#paint2_linear_151_28899)"/>
<defs>
<linearGradient id="paint0_linear_151_28899" x1="46.0638" y1="20.555" x2="27.0138" y2="48.485" gradientUnits="userSpaceOnUse">
<stop stop-color="#00FFA3"/>
<stop offset="1" stop-color="#DC1FFF"/>
</linearGradient>
<linearGradient id="paint1_linear_151_28899" x1="37.5538" y1="14.7449" x2="18.5038" y2="42.6749" gradientUnits="userSpaceOnUse">
<stop stop-color="#00FFA3"/>
<stop offset="1" stop-color="#DC1FFF"/>
</linearGradient>
<linearGradient id="paint2_linear_151_28899" x1="41.7938" y1="17.635" x2="22.7438" y2="45.565" gradientUnits="userSpaceOnUse">
<stop stop-color="#00FFA3"/>
<stop offset="1" stop-color="#DC1FFF"/>
</linearGradient>
</defs>
</svg>
