<svg width="64" height="64" viewBox="0 0 64 64" fill="none" xmlns="http://www.w3.org/2000/svg">
<g clip-path="url(#clip0_151_28889)">
<path d="M63.05 39.7499C61.5261 45.8949 58.2137 51.4496 53.5319 55.7114C48.8501 59.9732 43.0093 62.7505 36.7486 63.6918C30.488 64.6331 24.0887 63.6962 18.3607 60.9995C12.6327 58.3028 7.8333 53.9677 4.56983 48.5426C1.30636 43.1174 -0.274526 36.8462 0.0272212 30.5223C0.328968 24.1985 2.49978 18.1062 6.26498 13.0165C10.0302 7.92673 15.2205 4.06824 21.1793 1.92922C27.1381 -0.209798 33.5974 -0.533198 39.74 0.999941C47.9663 3.05313 55.0414 8.28706 59.4119 15.5524C63.7823 22.8178 65.0908 31.5206 63.05 39.7499Z" fill="#ED112E"/>
<path d="M57.22 38.3C55.9751 43.2895 53.2786 47.7977 49.4715 51.2547C45.6644 54.7116 40.9176 56.962 35.8316 57.7211C30.7455 58.4803 25.5485 57.7141 20.8978 55.5196C16.2472 53.3251 12.3517 49.8007 9.7041 45.3922C7.05649 40.9837 5.77563 35.8891 6.02352 30.7527C6.27141 25.6162 8.03689 20.6686 11.0967 16.5356C14.1565 12.4025 18.3733 9.26968 23.2136 7.53319C28.054 5.7967 33.3006 5.53458 38.29 6.77997C44.9799 8.44984 50.7325 12.7087 54.2825 18.6197C57.8325 24.5308 58.8891 31.6099 57.22 38.3Z" fill="#ED112E"/>
<path fill-rule="evenodd" clip-rule="evenodd" d="M48.87 29.06L42.49 23.06L18.42 18.75L31.17 50.24L48.87 29V29.06ZM37.13 29.72L41.92 25.81L44.68 28.38L37.11 29.72H37.13ZM24.74 22.29L33.63 29.52L39.27 24.92L24.74 22.27V22.29ZM23.11 24L32.5 31.66L31 43.58L23.09 24H23.11ZM33.4 43.86L34.8 32.54L44.29 30.84L33.4 43.84V43.86Z" fill="white"/>
</g>
<defs>
<clipPath id="clip0_151_28889">
<rect width="64.01" height="64.01" fill="white"/>
</clipPath>
</defs>
</svg>
