<svg width="471" height="328" viewBox="0 0 471 328" fill="none" xmlns="http://www.w3.org/2000/svg">
<path d="M254.448 267.295H249.034V272.736H254.448V267.295Z" fill="#ABABE8"/>
<path d="M249.035 267.295H243.621V272.736H249.035V267.295Z" fill="#ADADE9"/>
<path d="M243.621 267.295H238.207V272.736H243.621V267.295Z" fill="#AEAEEA"/>
<path d="M238.207 267.295H232.793V272.736H238.207V267.295Z" fill="#AFAFEA"/>
<path d="M232.793 267.295H227.379V272.736H232.793V267.295Z" fill="#AFAFEA"/>
<path d="M227.379 267.295H221.965V272.736H227.379V267.295Z" fill="#ADADE9"/>
<path d="M221.966 267.295H216.552V272.736H221.966V267.295Z" fill="#ABABE8"/>
<path d="M303.173 261.854H297.759V267.295H303.173V261.854Z" fill="#AEAEE9"/>
<path d="M297.759 261.854H292.345V267.295H297.759V261.854Z" fill="#B7B7EE"/>
<path d="M178.655 261.854H173.241V267.295H178.655V261.854Z" fill="#B8B8EE"/>
<path d="M173.241 261.854H167.828V267.295H173.241V261.854Z" fill="#AFAFEA"/>
<path d="M335.655 256.413H330.241V261.854H335.655V256.413Z" fill="#B2B2EC"/>
<path d="M140.759 256.413H135.345V261.854H140.759V256.413Z" fill="#B4B4EC"/>
<path d="M351.896 250.986H346.483V256.427H351.896V250.986Z" fill="#FFCA89"/>
<path d="M124.517 250.986H119.103V256.427H124.517V250.986Z" fill="#BABAEF"/>
<path d="M368.138 245.545H362.724V250.986H368.138V245.545Z" fill="#FFC586"/>
<path d="M335.655 245.545H330.241V250.986H335.655V245.545Z" fill="#F8D299"/>
<path d="M108.276 245.545H102.862V250.986H108.276V245.545Z" fill="#B6B6ED"/>
<path d="M330.241 240.104H324.828V245.545H330.241V240.104Z" fill="#EFCEA7"/>
<path d="M324.828 234.677H319.414V240.118H324.828V234.677Z" fill="#E2CABC"/>
<path d="M21.6551 234.677H16.2413V240.118H21.6551V234.677Z" fill="#40376D"/>
<path d="M400.621 229.236H395.207V234.677H400.621V229.236Z" fill="#FFBC7F"/>
<path d="M319.414 229.236H314V234.677H319.414V229.236Z" fill="#D4C6D2"/>
<path d="M75.7931 229.236H70.3793V234.677H75.7931V229.236Z" fill="#B2B2EB"/>
<path d="M416.862 218.368H411.448V223.809H416.862V218.368Z" fill="#FFC082"/>
<path d="M314 218.368H308.586V223.809H314V218.368Z" fill="#F1CFA3"/>
<path d="M59.5517 218.368H54.1379V223.809H59.5517V218.368Z" fill="#B7B7EE"/>
<path d="M308.586 212.927H303.172V218.368H308.586V212.927Z" fill="#E5CBB7"/>
<path d="M303.173 207.486H297.759V212.927H303.173V207.486Z" fill="#D6C7CE"/>
<path d="M297.759 202.059H292.345V207.5H297.759V202.059Z" fill="#CBC3E0"/>
<path d="M292.345 196.618H286.931V202.059H292.345V196.618Z" fill="#C3C1EC"/>
<path d="M335.655 256.413V261.854H330.241H324.828H319.414H314H308.586H303.172V267.295H297.759H292.345H286.931H281.517H276.103H270.69H265.276H259.862H254.448V272.722H249.034H243.621H238.207H232.793H227.379H221.966H216.552V267.295H211.138H205.724H200.31H194.897H189.483H184.069H178.655H173.241H167.828V261.854H162.414H157H151.586H146.172H140.759H135.345V256.413H129.931H124.517H119.103V250.986H113.69H108.276H102.862V245.545H97.4483H92.0345V240.104H86.6207H81.2069V234.677H75.7931H70.3793V229.236H64.9655V223.795H59.5517H54.1379V218.368H48.7241V212.927H43.3103V207.486H37.8966V202.059H32.4828V196.618H27.069V202.059V207.486V212.927V218.368V223.795V229.236V234.677V240.104V245.545V250.986H32.4828V256.413H37.8966V261.854H43.3103V267.295H48.7241H54.1379V272.722H59.5517V278.163H64.9655H70.3793V283.604H75.7931V289.031H81.2069H86.6207V294.472H92.0345H97.4483V299.913H102.862H108.276V305.34H113.69H119.103H124.517V310.781H129.931H135.345H140.759H146.172V316.222H151.586H157H162.414H167.828V321.65H173.241H178.655H184.069H189.483H194.897H200.31H205.724H211.138H216.552H221.966H227.379H232.793H238.207H243.621H249.034H254.448H259.862H265.276H270.69H276.103H281.517H286.931H292.345H297.759H303.172V316.222H308.586H314H319.414H324.828V310.781H330.241H335.655H341.069V305.34V299.913V294.472V289.031V283.604V278.163V272.722V267.295V261.854V256.413H335.655Z" fill="#A8A8E6"/>
<path d="M286.931 191.177H281.517V196.618H286.931V191.177Z" fill="#E1CABD"/>
<path d="M48.7241 191.177H43.3103V196.618H48.7241V191.177Z" fill="#9C97CD"/>
<path d="M27.0691 191.177H21.6553V196.618H27.0691V191.177Z" fill="#544A85"/>
<path d="M281.517 185.75H276.103V191.191H281.517V185.75Z" fill="#D3C5D4"/>
<path d="M70.3794 185.75H64.9656V191.191H70.3794V185.75Z" fill="#BBBAEE"/>
<path d="M64.9656 185.75H59.5518V191.191H64.9656V185.75Z" fill="#857EB6"/>
<path d="M21.6551 185.75H16.2413V191.191H21.6551V185.75Z" fill="#453B77"/>
<path d="M276.103 180.309H270.69V185.75H276.103V180.309Z" fill="#C8C2E4"/>
<path d="M81.2069 180.309H75.7931V185.75H81.2069V180.309Z" fill="#70659F"/>
<path d="M270.69 174.868H265.276V180.309H270.69V174.868Z" fill="#C2C0EF"/>
<path d="M102.862 174.868H97.4482V180.309H102.862V174.868Z" fill="#ADAADF"/>
<path d="M97.4482 174.868H92.0344V180.309H97.4482V174.868Z" fill="#766CA5"/>
<path d="M16.2414 174.868H10.8276V180.309H16.2414V174.868Z" fill="#584D88"/>
<path d="M119.103 169.441H113.69V174.882H119.103V169.441Z" fill="#9792C8"/>
<path d="M21.6551 196.618V191.177H16.2413V185.75V180.309H10.8275V174.868V169.441H5.4137V174.868V180.309V185.75V191.177V196.618V202.059V207.486V212.927V218.368H10.8275V223.795V229.236H16.2413V234.677H21.6551V240.104V245.545H27.0689V240.104V234.677V229.236V223.795V218.368V212.927V207.486V202.059V196.618H21.6551Z" fill="#3F3672"/>
<path d="M140.759 164H135.345V169.441H140.759V164Z" fill="#B8B7EA"/>
<path d="M135.345 164H129.931V169.441H135.345V164Z" fill="#8179B1"/>
<path d="M10.8275 164H5.4137V169.441H10.8275V164Z" fill="#584D88"/>
<path d="M259.862 158.559H254.448V164H259.862V158.559Z" fill="#FBD295"/>
<path d="M157 158.559H151.586V164H157V158.559Z" fill="#A29FD4"/>
<path d="M151.586 158.559H146.172V164H151.586V158.559Z" fill="#6B619B"/>
<path d="M254.448 153.132H249.034V158.573H254.448V153.132Z" fill="#F3D0A1"/>
<path d="M173.241 153.132H167.828V158.573H173.241V153.132Z" fill="#A8A5DA"/>
<path d="M167.828 153.132H162.414V158.573H167.828V153.132Z" fill="#7167A0"/>
<path d="M249.035 147.691H243.621V153.132H249.035V147.691Z" fill="#E7CCB3"/>
<path d="M189.483 147.691H184.069V153.132H189.483V147.691Z" fill="#928CC3"/>
<path d="M243.621 142.25H238.207V147.691H243.621V142.25Z" fill="#D9C7CA"/>
<path d="M211.138 142.25H205.724V147.691H211.138V142.25Z" fill="#B3B2E6"/>
<path d="M205.724 142.25H200.31V147.691H205.724V142.25Z" fill="#7C74AC"/>
<path d="M330.241 250.986V245.545H324.827V240.104H319.414V234.677H314V229.236V223.795H308.586V218.368H303.172V212.927H297.759V207.486H292.345V202.059H286.931V196.618H281.517V191.177H276.103V185.75H270.69V180.309H265.276V174.868V169.441H259.862V164H254.448V158.559H249.034V153.132H243.621V147.691H238.207V142.25V136.823H232.793H227.379V142.25H221.965H216.552H211.138V147.691H205.724H200.31H194.896H189.483V153.132H184.069H178.655H173.241V158.559H167.827H162.414H157V164H151.586H146.172H140.759V169.441H135.345H129.931H124.517H119.103V174.868H113.69H108.276H102.862V180.309H97.4482H92.0344H86.6206H81.2068V185.75H75.793H70.3792V191.177H64.9654H59.5516H54.1378H48.724V196.618H43.3103H37.8965H32.4827V202.059H37.8965V207.486H43.3103V212.927H48.724V218.368H54.1378H59.5516V223.795H64.9654V229.236H70.3792H75.793V234.677H81.2068V240.104H86.6206H92.0344V245.545H97.4482H102.862H108.276V250.986H113.69H119.103H124.517V256.413H129.931H135.345H140.759V261.854H146.172H151.586H157H162.414H167.827H173.241H178.655V267.295H184.069H189.483H194.896H200.31H205.724H211.138H216.552H221.965H227.379H232.793H238.207H243.621H249.034H254.448H259.862H265.276H270.69H276.103H281.517H286.931H292.345V261.854H297.759H303.172H308.586H314H319.414H324.827H330.241V256.413H335.655V250.986H330.241Z" fill="#C0C0F3"/>
<path d="M227.379 136.823H221.965V142.264H227.379V136.823Z" fill="#9E99CF"/>
<path d="M221.966 136.823H216.552V142.264H221.966V136.823Z" fill="#685C97"/>
<path d="M238.207 131.382H232.793V136.823H238.207V131.382Z" fill="#E5986F"/>
<path d="M232.793 131.382H227.379V136.823H232.793V131.382Z" fill="#7C587E"/>
<path d="M254.448 125.941H249.034V131.382H254.448V125.941Z" fill="#FFDBA1"/>
<path d="M249.035 125.941H243.621V131.382H249.035V125.941Z" fill="#FFF3DC"/>
<path d="M243.621 125.941H238.207V131.382H243.621V125.941Z" fill="#FFBD86"/>
<path d="M216.552 125.941H211.138V131.382H216.552V125.941Z" fill="#B15F59"/>
<path d="M211.138 125.941H205.724V131.382H211.138V125.941Z" fill="#715785"/>
<path d="M259.862 120.514H254.448V125.954H259.862V120.514Z" fill="#FFFAEC"/>
<path d="M254.448 120.514H249.034V125.954H254.448V120.514Z" fill="#FFE7C2"/>
<path d="M249.035 120.514H243.621V125.954H249.035V120.514Z" fill="#FFC793"/>
<path d="M232.793 120.514H227.379V125.954H232.793V120.514Z" fill="#E6976C"/>
<path d="M200.31 120.514H194.897V125.954H200.31V120.514Z" fill="#965B6B"/>
<path d="M270.69 115.073H265.276V120.514H270.69V115.073Z" fill="#FFF0D4"/>
<path d="M254.448 115.073H249.034V120.514H254.448V115.073Z" fill="#FFD2A2"/>
<path d="M184.069 115.073H178.655V120.514H184.069V115.073Z" fill="#785880"/>
<path d="M281.517 109.632H276.103V115.073H281.517V109.632Z" fill="#FFE3B4"/>
<path d="M270.69 109.632H265.276V115.073H270.69V109.632Z" fill="#FFF7E4"/>
<path d="M259.862 109.632H254.448V115.073H259.862V109.632Z" fill="#FFDBAE"/>
<path d="M227.379 109.632H221.965V115.073H227.379V109.632Z" fill="#CA765E"/>
<path d="M173.241 109.632H167.828V115.073H173.241V109.632Z" fill="#9D5C66"/>
<path d="M292.345 104.205H286.931V109.646H292.345V104.205Z" fill="#FFD899"/>
<path d="M276.103 104.205H270.69V109.646H276.103V104.205Z" fill="#FFEBCA"/>
<path d="M297.759 98.7638H292.345V104.205H297.759V98.7638Z" fill="#FFF8E6"/>
<path d="M146.172 98.7638H140.759V104.205H146.172V98.7638Z" fill="#835978"/>
<path d="M308.586 93.3229H303.172V98.7637H308.586V93.3229Z" fill="#FFEBC9"/>
<path d="M292.345 93.3229H286.931V98.7637H292.345V93.3229Z" fill="#FFFAEB"/>
<path d="M221.966 93.3229H216.552V98.7637H221.966V93.3229Z" fill="#E7976D"/>
<path d="M135.345 93.3229H129.931V98.7637H135.345V93.3229Z" fill="#A85E5E"/>
<path d="M129.931 93.3229H124.517V98.7637H129.931V93.3229Z" fill="#68568C"/>
<path d="M297.759 87.8956H292.345V93.3365H297.759V87.8956Z" fill="#FFEFD3"/>
<path d="M119.103 87.8956H113.69V93.3365H119.103V87.8956Z" fill="#8B5A73"/>
<path d="M21.6551 87.8956H16.2413V93.3365H21.6551V87.8956Z" fill="#594D81"/>
<path d="M324.828 82.4548H319.414V87.8956H324.828V82.4548Z" fill="#FFE9C4"/>
<path d="M281.517 82.4548H276.103V87.8956H281.517V82.4548Z" fill="#FFBB84"/>
<path d="M216.552 82.4548H211.138V87.8956H216.552V82.4548Z" fill="#CB775E"/>
<path d="M108.276 82.4548H102.862V87.8956H108.276V82.4548Z" fill="#AE5E5A"/>
<path d="M102.862 82.4548H97.4482V87.8956H102.862V82.4548Z" fill="#6E5788"/>
<path d="M335.655 77.0139H330.241V82.4547H335.655V77.0139Z" fill="#FFDCA5"/>
<path d="M286.931 77.0139H281.517V82.4547H286.931V77.0139Z" fill="#FFC591"/>
<path d="M92.0345 77.0139H86.6207V82.4547H92.0345V77.0139Z" fill="#925B6E"/>
<path d="M292.345 71.5866H286.931V77.0275H292.345V71.5866Z" fill="#FFD0A0"/>
<path d="M81.2069 71.5866H75.7931V77.0275H81.2069V71.5866Z" fill="#965B6B"/>
<path d="M351.896 66.1457H346.483V71.5866H351.896V66.1457Z" fill="#FFF2D9"/>
<path d="M324.828 66.1457H319.414V71.5866H324.828V66.1457Z" fill="#FFFAEB"/>
<path d="M297.759 66.1457H292.345V71.5866H297.759V66.1457Z" fill="#FFDAAC"/>
<path d="M211.138 66.1457H205.724V71.5866H211.138V66.1457Z" fill="#E8986D"/>
<path d="M64.9656 66.1457H59.5518V71.5866H64.9656V66.1457Z" fill="#785880"/>
<path d="M221.965 131.382H216.552H211.138H205.724V125.941H200.31H194.896V120.514H189.483H184.069H178.655V115.073H173.241H167.827V109.632H162.414H157V104.205H151.586H146.172H140.759V98.7638H135.345H129.931H124.517V93.323H119.103H113.69V87.8957H108.276H102.862H97.4482V82.4548H92.0344H86.6206V77.0139H81.2068H75.793V71.5866H70.3792H64.9654H59.5516V66.1457H54.1378H48.724H43.3102H37.8965V71.5866H32.4827V77.0139H27.0689V82.4548H21.6551V87.8957V93.323H16.2413V98.7638H10.8275V104.205V109.632V115.073H5.4137V120.514V125.941V131.382V136.823V142.25V147.691V153.132V158.559V164H10.8275V169.441V174.868H16.2413V180.309V185.75H21.6551V191.177H27.0689V196.618H32.4827H37.8965H43.3102V191.177H48.724H54.1378H59.5516V185.75H64.9654H70.3792H75.793V180.309H81.2068H86.6206H92.0344V174.868H97.4482H102.862H108.276H113.69V169.441H119.103H124.517H129.931V164H135.345H140.759H146.172V158.559H151.586H157H162.414V153.132H167.827H173.241H178.655H184.069V147.691H189.483H194.896H200.31V142.25H205.724H211.138H216.552V136.823H221.965H227.379V131.382H221.965Z" fill="#625691"/>
<path d="M368.138 60.7048H362.724V66.1457H368.138V60.7048Z" fill="#FFDEA9"/>
<path d="M335.655 60.7048H330.241V66.1457H335.655V60.7048Z" fill="#FFFBEE"/>
<path d="M303.173 60.7048H297.759V66.1457H303.173V60.7048Z" fill="#FFBF89"/>
<path d="M48.7241 60.7048H43.3103V66.1457H48.7241V60.7048Z" fill="#7B4E5F"/>
<path d="M341.069 55.2774H335.655V60.7183H341.069V55.2774Z" fill="#FFF1D8"/>
<path d="M308.586 55.2774H303.172V60.7183H308.586V55.2774Z" fill="#FFCA97"/>
<path d="M205.724 55.2774H200.31V60.7183H205.724V55.2774Z" fill="#E8996D"/>
<path d="M384.379 49.8367H378.966V55.2776H384.379V49.8367Z" fill="#FFF4DE"/>
<path d="M346.483 49.8367H341.069V55.2776H346.483V49.8367Z" fill="#FFE6C0"/>
<path d="M314 49.8367H308.586V55.2776H314V49.8367Z" fill="#FFD5A5"/>
<path d="M64.9656 49.8367H59.5518V55.2776H64.9656V49.8367Z" fill="#B05D55"/>
<path d="M460.172 120.514V115.073V109.632V104.205H454.759V98.7639V93.323H449.345V87.8957H443.931V82.4548V77.0139H438.517V71.5866H433.103H427.69V66.1458H422.276V60.7049H416.862V55.2776H411.448H406.035V49.8367H400.621V44.3958H395.207V49.8367H389.793H384.379V55.2776H378.966H373.552V60.7049H368.138V66.1458H362.724H357.31H351.897V71.5866H346.483H341.069V77.0139H335.655V82.4548H330.241H324.828V87.8957H319.414H314V93.323H308.586V98.7639H303.172H297.759V104.205H292.345V109.632H286.931H281.517V115.073H276.103H270.69V120.514H265.276H259.862V125.941H254.448V131.382H249.034H243.621H238.207V136.823V142.25H243.621V147.691H249.034V153.132H254.448V158.559H259.862V164V169.441H265.276V174.868H270.69V180.309H276.103V185.75H281.517V191.177H286.931V196.618H292.345V202.059H297.759V207.486H303.172V212.927H308.586V218.368H314V223.795V229.236H319.414V234.677H324.828V240.104H330.241V245.545H335.655V250.986V256.414H341.069H346.483V250.986H351.897H357.31H362.724V245.545H368.138H373.552H378.966V240.104H384.379H389.793V234.677H395.207V229.236H400.621H406.035V223.795H411.448V218.368H416.862H422.276V212.927H427.69V207.486H433.103V202.059H438.517V196.618H443.931V191.177H449.345V185.75H454.759V180.309V174.868H460.172V169.441V164H465.586V158.559V153.132V147.691V142.25V136.823V131.382V125.941V120.514H460.172Z" fill="#FFD490"/>
<path d="M395.207 44.3958H389.793V49.8367H395.207V44.3958Z" fill="#FFE7BF"/>
<path d="M200.31 44.3958H194.897V49.8367H200.31V44.3958Z" fill="#CC785F"/>
<path d="M362.724 38.9684H357.31V44.4093H362.724V38.9684Z" fill="#FFF5E1"/>
<path d="M319.414 38.9684H314V44.4093H319.414V38.9684Z" fill="#FFBE88"/>
<path d="M265.276 115.073H259.862V120.514H265.276V115.073Z" fill="#FFFEF4"/>
<path d="M276.103 109.632H270.69V115.073H276.103V109.632Z" fill="#FFFEF4"/>
<path d="M281.517 98.7638V104.205H276.103V109.632H281.517H286.931V104.205H292.345V98.7638H286.931H281.517Z" fill="#FFFEF4"/>
<path d="M384.379 38.9684H378.965V33.5275H373.552H368.138V38.9684H362.724V44.3957H357.31H351.896V49.8366H346.483V55.2774H341.069V60.7047H335.655V66.1456H330.241H324.827V71.5865H319.414H314V77.0138H308.586V82.4547H303.172V87.8955H297.759V93.3228H292.345V98.7637H297.759H303.172V93.3228H308.586H314V87.8955H319.414V82.4547H324.827H330.241V77.0138H335.655H341.069V71.5865H346.483V66.1456H351.896H357.31H362.724V60.7047H368.138H373.552V55.2774H378.965V49.8366H384.379H389.793V44.3957V38.9684H384.379Z" fill="#FFFEF4"/>
<path d="M368.138 33.5275H362.724V38.9684H368.138V33.5275Z" fill="#FFE9C6"/>
<path d="M324.828 33.5275H319.414V38.9684H324.828V33.5275Z" fill="#FFC895"/>
<path d="M330.241 28.0868H324.828V33.5277H330.241V28.0868Z" fill="#FFD4A4"/>
<path d="M194.897 28.0868H189.483V33.5277H194.897V28.0868Z" fill="#E99A6E"/>
<path d="M259.862 115.073H254.448V120.514H259.862V115.073Z" fill="#FFE3B8"/>
<path d="M362.724 28.0867H357.31V22.6594H351.897H346.483H341.069H335.655V28.0867H330.241V33.5276H324.828V38.9684H319.414V44.3958H314V49.8366V55.2775H308.586V60.7048H303.172V66.1457H297.759V71.5865H292.345V77.0139H286.931V82.4547H281.517V87.8956H276.103V93.3229H270.69V98.7638H265.276V104.205H259.862V109.632V115.073H265.276V109.632H270.69V104.205H276.103H281.517V98.7638H286.931V93.3229H292.345V87.8956H297.759H303.172V82.4547H308.586V77.0139H314V71.5865H319.414V66.1457H324.828H330.241V60.7048H335.655V55.2775H341.069V49.8366H346.483H351.897V44.3958H357.31V38.9684H362.724V33.5276H368.138V28.0867H362.724Z" fill="#FFE3B8"/>
<path d="M335.655 22.6594H330.241V28.1002H335.655V22.6594Z" fill="#FFDCAF"/>
<path d="M189.483 17.2185H184.069V22.6594H189.483V17.2185Z" fill="#CD7960"/>
<path d="M227.379 125.941V120.514V115.073H221.965V109.632V104.205V98.7637H216.552V93.3229V87.8955H211.138V82.4547V77.0138V71.5865H205.724V66.1456V60.7048H200.31V55.2774V49.8366H194.897V44.3957V38.9684V33.5275H189.483V28.0867V22.6593H184.069V17.2185V11.7776H178.655H173.241H167.828H162.414H157H151.586V17.2185H146.172H140.759H135.345H129.931V22.6593H124.517H119.103H113.69V28.0867H108.276H102.862H97.4483V33.5275H92.0345H86.6207V38.9684H81.2069V44.3957H75.7931H70.3793V49.8366H64.9655V55.2774H59.5517H54.1379V60.7048H48.7241V66.1456H54.1379H59.5517H64.9655V71.5865H70.3793H75.7931H81.2069V77.0138H86.6207H92.0345V82.4547H97.4483H102.862H108.276V87.8955H113.69H119.103V93.3229H124.517H129.931H135.345V98.7637H140.759H146.172V104.205H151.586H157V109.632H162.414H167.828H173.241V115.073H178.655H184.069V120.514H189.483H194.897H200.31V125.941H205.724H211.138H216.552V131.382H221.965H227.379H232.793V125.941H227.379Z" fill="#B65F55"/>
<path d="M324.828 17.2186H319.414H314V11.7777H308.586H303.172H297.759H292.345V6.35037H286.931H281.517H276.103H270.69H265.276H259.862H254.448H249.034H243.621H238.207H232.793H227.379H221.966H216.552H211.138H205.724H200.31H194.897H189.483H184.069V11.7777V17.2186H189.483V22.6594V28.0868H194.897V33.5276V38.9685V44.3958H200.31V49.8367V55.2775H205.724V60.7049V66.1457H211.138V71.5866V77.0139V82.4548H216.552V87.8956V93.323H221.966V98.7638V104.205V109.632H227.379V115.073V120.514H232.793V125.941V131.382H238.207V125.941H243.621V120.514H249.034V115.073H254.448V109.632H259.862V104.205H265.276V98.7638H270.69V93.323H276.103V87.8956V82.4548H281.517V77.0139H286.931V71.5866H292.345V66.1457H297.759V60.7049H303.172V55.2775H308.586V49.8367H314V44.3958V38.9685H319.414V33.5276H324.828V28.0868H330.241V22.6594H335.655V17.2186H330.241H324.828Z" fill="#FFB379"/>
<path d="M184.069 6.35037H178.655V11.7912H184.069V6.35037Z" fill="#AF5E56"/>
<path d="M460.172 212.927V218.368V223.795H465.586V218.368V212.927V207.486H460.172V212.927Z" fill="#473D61"/>
<path d="M292.345 321.65H286.931H281.517H276.103H270.69H265.276H259.862H254.448H249.035H243.621H238.207H232.793H227.379H221.966H216.552H211.138H205.724H200.31H194.897H189.483H184.069H178.655H173.241H167.828V327.091H173.241H178.655H184.069H189.483H194.897H200.31H205.724H211.138H216.552H221.966H227.379H232.793H238.207H243.621H249.035H254.448H259.862H265.276H270.69H276.103H281.517H286.931H292.345H297.759H303.172V321.65H297.759H292.345Z" fill="#473D61"/>
<path d="M314 316.222H308.586H303.172V321.65H308.586H314H319.414H324.828V316.222H319.414H314Z" fill="#473D61"/>
<path d="M162.414 316.222H157H151.586H146.172V321.65H151.586H157H162.414H167.828V316.222H162.414Z" fill="#473D61"/>
<path d="M335.655 310.781H330.241H324.828V316.222H330.241H335.655H341.069H346.483V310.781H341.069H335.655Z" fill="#473D61"/>
<path d="M140.759 310.781H135.345H129.931H124.517V316.222H129.931H135.345H140.759H146.173V310.781H140.759Z" fill="#473D61"/>
<path d="M351.896 305.341H346.483V310.781H351.896H357.31H362.724V305.341H357.31H351.896Z" fill="#473D61"/>
<path d="M119.103 305.341H113.69H108.276V310.781H113.69H119.103H124.517V305.341H119.103Z" fill="#473D61"/>
<path d="M362.724 299.913V305.341H368.138H373.552V299.913H368.138H362.724Z" fill="#473D61"/>
<path d="M102.862 299.913H97.4482V305.341H102.862H108.276V299.913H102.862Z" fill="#473D61"/>
<path d="M373.552 294.472V299.913H378.966H384.379V294.472H378.966H373.552Z" fill="#473D61"/>
<path d="M92.0345 294.472H86.6207V299.913H92.0345H97.4483V294.472H92.0345Z" fill="#473D61"/>
<path d="M384.379 289.032V294.472H389.793H395.207V289.032H389.793H384.379Z" fill="#473D61"/>
<path d="M81.2069 289.032H75.7931V294.472H81.2069H86.6207V289.032H81.2069Z" fill="#473D61"/>
<path d="M400.621 283.604H395.207V289.045H400.621V283.604Z" fill="#473D61"/>
<path d="M75.7931 283.604H70.3793V289.045H75.7931V283.604Z" fill="#473D61"/>
<path d="M400.621 278.163V283.604H406.034H411.448V278.163H406.034H400.621Z" fill="#473D61"/>
<path d="M64.9656 278.163H59.5518V283.604H64.9656H70.3793V278.163H64.9656Z" fill="#473D61"/>
<path d="M416.862 272.723H411.448V278.163H416.862V272.723Z" fill="#473D61"/>
<path d="M59.5517 272.723H54.1379V278.163H59.5517V272.723Z" fill="#473D61"/>
<path d="M416.862 267.295V272.723H422.276H427.69V267.295H422.276H416.862Z" fill="#473D61"/>
<path d="M48.7241 267.295H43.3103V272.723H48.7241H54.1379V267.295H48.7241Z" fill="#473D61"/>
<path d="M433.103 261.854H427.689V267.295H433.103V261.854Z" fill="#473D61"/>
<path d="M43.3104 261.854H37.8966V267.295H43.3104V261.854Z" fill="#473D61"/>
<path d="M438.517 256.414H433.104V261.854H438.517V256.414Z" fill="#473D61"/>
<path d="M37.8965 256.414H32.4827V261.854H37.8965V256.414Z" fill="#473D61"/>
<path d="M443.931 250.986H438.517V256.427H443.931V250.986Z" fill="#473D61"/>
<path d="M32.4828 250.986H27.069V256.427H32.4828V250.986Z" fill="#473D61"/>
<path d="M449.345 245.545H443.931V250.986H449.345V245.545Z" fill="#473D61"/>
<path d="M27.0691 245.545H21.6553V250.986H27.0691V245.545Z" fill="#473D61"/>
<path d="M21.6551 240.104H16.2413V245.545H21.6551V240.104Z" fill="#473D61"/>
<path d="M449.345 240.104V245.545H454.759V240.104V234.677H449.345V240.104Z" fill="#473D61"/>
<path d="M16.2414 229.236H10.8276V234.677V240.104H16.2414V234.677V229.236Z" fill="#473D61"/>
<path d="M454.759 229.236V234.677H460.173V229.236V223.795H454.759V229.236Z" fill="#473D61"/>
<path d="M10.8275 218.368H5.4137V223.795V229.236H10.8275V223.795V218.368Z" fill="#473D61"/>
<path d="M0 120.514V125.941V131.382V136.823V142.25V147.691V153.132V158.559V164V169.441V174.868V180.309V185.75V191.177V196.618V202.059V207.486H5.41379V202.059V196.618V191.177V185.75V180.309V174.868V169.441V164V158.559V153.132V147.691V142.25V136.823V131.382V125.941V120.514V115.073H0V120.514Z" fill="#473D61"/>
<path d="M465.586 109.632V104.205H460.172V109.632V115.073V120.514H465.586V115.073V109.632Z" fill="#473D61"/>
<path d="M465.586 120.514V125.941V131.382V136.823V142.25V147.691V153.132V158.559V164V169.441V174.868V180.309V185.75V191.177V196.618V202.059V207.486H471V202.059V196.618V191.177V185.75V180.309V174.868V169.441V164V158.559V153.132V147.691V142.25V136.823V131.382V125.941V120.514H465.586Z" fill="#473D61"/>
<path d="M5.4137 104.205V109.632V115.073H10.8275V109.632V104.205V98.7638H5.4137V104.205Z" fill="#473D61"/>
<path d="M460.173 93.3229H454.759V98.7637V104.205H460.173V98.7637V93.3229Z" fill="#473D61"/>
<path d="M454.759 87.8956H449.345V93.3365H454.759V87.8956Z" fill="#473D61"/>
<path d="M10.8276 93.323V98.7638H16.2414V93.323V87.8956H10.8276V93.323Z" fill="#473D61"/>
<path d="M21.6551 82.4548H16.2413V87.8956H21.6551V82.4548Z" fill="#473D61"/>
<path d="M449.345 77.0139H443.931V82.4547V87.8956H449.345V82.4547V77.0139Z" fill="#473D61"/>
<path d="M27.0691 77.0139H21.6553V82.4547H27.0691V77.0139Z" fill="#473D61"/>
<path d="M443.931 71.5866H438.517V77.0275H443.931V71.5866Z" fill="#473D61"/>
<path d="M32.4828 71.5866H27.069V77.0275H32.4828V71.5866Z" fill="#473D61"/>
<path d="M433.103 66.1457H427.689V71.5866H433.103H438.517V66.1457H433.103Z" fill="#473D61"/>
<path d="M37.8965 66.1457H32.4827V71.5866H37.8965V66.1457Z" fill="#473D61"/>
<path d="M427.69 60.7048H422.276V66.1457H427.69V60.7048Z" fill="#473D61"/>
<path d="M43.3104 60.7048H37.8966V66.1457H43.3104V60.7048Z" fill="#473D61"/>
<path d="M422.276 55.2775H416.862V60.7184H422.276V55.2775Z" fill="#473D61"/>
<path d="M43.3103 55.2775V60.7048H48.7241H54.1379V55.2775H48.7241H43.3103Z" fill="#473D61"/>
<path d="M411.448 49.8367H406.035V55.2776H411.448H416.862V49.8367H411.448Z" fill="#473D61"/>
<path d="M59.5517 49.8367H54.1379V55.2776H59.5517V49.8367Z" fill="#473D61"/>
<path d="M406.034 44.3958H400.621V49.8367H406.034V44.3958Z" fill="#473D61"/>
<path d="M59.5518 44.3958V49.8367H64.9656H70.3793V44.3958H64.9656H59.5518Z" fill="#473D61"/>
<path d="M395.207 38.9684H389.793V44.3957H395.207H400.621V38.9684H395.207Z" fill="#473D61"/>
<path d="M384.379 33.5275H378.966V38.9684H384.379H389.793V33.5275H384.379Z" fill="#473D61"/>
<path d="M75.7931 33.5275V38.9684H70.3793V44.3957H75.7931H81.2069V38.9684H86.6207V33.5275H81.2069H75.7931Z" fill="#473D61"/>
<path d="M373.552 28.0867H368.138V33.5276H373.552H378.966V28.0867H373.552Z" fill="#473D61"/>
<path d="M86.6207 28.0867V33.5276H92.0345H97.4483V28.0867H92.0345H86.6207Z" fill="#473D61"/>
<path d="M362.724 22.6594H357.31V28.0867H362.724H368.138V22.6594H362.724Z" fill="#473D61"/>
<path d="M102.862 22.6594H97.4482V28.0867H102.862H108.276H113.69V22.6594H108.276H102.862Z" fill="#473D61"/>
<path d="M351.897 17.2185H346.483H341.069H335.655V22.6594H341.069H346.483H351.897H357.31V17.2185H351.897Z" fill="#473D61"/>
<path d="M119.103 17.2185H113.69V22.6594H119.103H124.517H129.931V17.2185H124.517H119.103Z" fill="#473D61"/>
<path d="M330.241 11.7777H324.828H319.414H314V17.2186H319.414H324.828H330.241H335.655V11.7777H330.241Z" fill="#473D61"/>
<path d="M140.759 11.7777H135.345H129.931V17.2186H135.345H140.759H146.172H151.586V11.7777H146.172H140.759Z" fill="#473D61"/>
<path d="M308.586 6.35027H303.172H297.759H292.345V11.7776H297.759H303.172H308.586H314V6.35027H308.586Z" fill="#473D61"/>
<path d="M167.828 6.35027H162.414H157H151.586V11.7776H157H162.414H167.828H173.241H178.655V6.35027H173.241H167.828Z" fill="#473D61"/>
<path d="M286.931 0.909486H281.517H276.103H270.69H265.276H259.862H254.448H249.034H243.621H238.207H232.793H227.379H221.965H216.552H211.138H205.724H200.31H194.897H189.483H184.069H178.655V6.35035H184.069H189.483H194.897H200.31H205.724H211.138H216.552H221.965H227.379H232.793H238.207H243.621H249.034H254.448H259.862H265.276H270.69H276.103H281.517H286.931H292.345V0.909486H286.931Z" fill="#473D61"/>
<path d="M460.172 164V169.441V174.868H454.758V180.309V185.75H449.345V191.177H443.931V196.618H438.517V202.059H433.103V207.486H427.69V212.927H422.276V218.368H416.862V223.795H411.448H406.034V229.236H400.621V234.677H395.207H389.793V240.104H384.379H378.965V245.545H373.552H368.138V250.986H362.724H357.31H351.896V256.413H346.483H341.069V261.854V267.295V272.722V278.163V283.604V289.032V294.472V299.913V305.341V310.781H346.483V305.341H351.896H357.31H362.724V299.913H368.138H373.552V294.472H378.965H384.379V289.032H389.793H395.207V283.604H400.621V278.163H406.034H411.448V272.722H416.862V267.295H422.276H427.69V261.854H433.103V256.413H438.517V250.986H443.931V245.545H449.345V240.104V234.677H454.758V229.236V223.795H460.172V218.368V212.927V207.486H465.586V202.059V196.618V191.177V185.75V180.309V174.868V169.441V164H460.172Z" fill="#F5B584"/>
</svg>
