<svg width="150" height="150" viewBox="0 0 150 150" fill="none" xmlns="http://www.w3.org/2000/svg">
<path d="M119.947 134.93C124.665 134.93 123.693 135.902 123.693 131.184C118.975 131.184 119.947 130.212 119.947 134.93Z" fill="#57526F"/>
<path d="M119.947 131.185C124.665 131.185 123.693 132.157 123.693 127.439C118.975 127.439 119.947 126.467 119.947 131.185Z" fill="#A7A4B2"/>
<path d="M56.2693 131.185C60.9872 131.185 60.0151 132.157 60.0151 127.439C55.2972 127.439 56.2693 126.467 56.2693 131.185Z" fill="#DFDFDF"/>
<path d="M97.4727 127.439C102.191 127.439 101.218 128.411 101.218 123.693C96.5006 123.693 97.4727 122.721 97.4727 127.439Z" fill="#E6E6E6"/>
<path d="M52.5235 127.439C57.2413 127.439 56.2692 128.411 56.2692 123.693C51.5514 123.693 52.5235 122.721 52.5235 127.439Z" fill="#E9E9E9"/>
<path d="M127.439 123.693C132.157 123.693 131.185 124.665 131.185 119.947C126.467 119.947 127.439 118.975 127.439 123.693Z" fill="#B1AFBB"/>
<path d="M123.693 123.693C128.411 123.693 127.439 124.665 127.439 119.947C122.721 119.947 123.693 118.975 123.693 123.693Z" fill="#E4E4E4"/>
<path d="M131.185 119.947C135.902 119.947 134.93 120.919 134.93 116.201C130.212 116.201 131.185 115.229 131.185 119.947Z" fill="#A7A4B2"/>
<path d="M119.947 116.202C124.665 116.202 123.693 117.174 123.693 112.456C118.975 112.456 119.947 111.484 119.947 116.202Z" fill="#B3B2B5"/>
<path d="M89.9812 116.202C94.6991 116.202 93.727 117.174 93.727 112.456C89.0091 112.456 89.9812 111.484 89.9812 116.202Z" fill="#BFBFC0"/>
<path d="M127.439 112.456C132.157 112.456 131.185 113.428 131.185 108.71C126.467 108.71 127.439 107.738 127.439 112.456Z" fill="#AFAFB2"/>
<path d="M86.2354 112.456C90.9533 112.456 89.9811 113.428 89.9811 108.71C85.2633 108.71 86.2354 107.738 86.2354 112.456Z" fill="#A09FA4"/>
<path d="M41.2862 112.456C46.004 112.456 45.0319 113.428 45.0319 108.71C40.314 108.71 41.2862 107.738 41.2862 112.456Z" fill="#E9E9E9"/>
<path d="M37.5406 108.71C42.2584 108.71 41.2863 109.682 41.2863 104.964C36.5684 104.964 37.5406 103.992 37.5406 108.71Z" fill="#E7E7E7"/>
<path d="M142.422 104.964C147.14 104.964 146.168 105.936 146.168 101.219C141.45 101.219 142.422 100.246 142.422 104.964Z" fill="#57526F"/>
<path d="M101.219 104.964C105.936 104.964 104.964 105.936 104.964 101.219C100.246 101.219 101.219 100.246 101.219 104.964Z" fill="#AFAFB2"/>
<path d="M97.4727 104.964C102.191 104.964 101.218 105.936 101.218 101.219C96.5006 101.219 97.4727 100.246 97.4727 104.964Z" fill="#BFBFC0"/>
<path d="M71.2522 104.964C75.9701 104.964 74.998 105.936 74.998 101.219C70.2801 101.219 71.2522 100.246 71.2522 104.964Z" fill="#EBEBEB"/>
<path d="M67.5066 104.964C72.2245 104.964 71.2524 105.936 71.2524 101.219C66.5345 101.219 67.5066 100.246 67.5066 104.964Z" fill="#C5C5C6"/>
<path d="M7.57449 104.964C12.2924 104.964 11.3203 105.936 11.3203 101.219C6.60238 101.219 7.57449 100.246 7.57449 104.964Z" fill="#E3E3E5"/>
<path d="M89.9812 101.218C94.6991 101.218 93.727 102.19 93.727 97.4724C89.0091 97.4724 89.9812 96.5003 89.9812 101.218Z" fill="#D9D9D9"/>
<path d="M86.2354 101.218C90.9533 101.218 89.9811 102.19 89.9811 97.4724C85.2633 97.4724 86.2354 96.5003 86.2354 101.218Z" fill="#D2D2D2"/>
<path d="M71.2522 101.218C75.9701 101.218 74.998 102.19 74.998 97.4724C70.2801 97.4724 71.2522 96.5003 71.2522 101.218Z" fill="#CFCFCF"/>
<path d="M67.5066 101.218C72.2245 101.218 71.2524 102.19 71.2524 97.4724C66.5345 97.4724 67.5066 96.5003 67.5066 101.218Z" fill="#ACACAF"/>
<path d="M37.5406 97.4726C42.2584 97.4726 41.2863 98.4447 41.2863 93.7268C36.5684 93.7268 37.5406 92.7547 37.5406 97.4726Z" fill="#A9A9AC"/>
<path d="M134.93 93.727C139.648 93.727 138.676 94.6991 138.676 89.9812C133.958 89.9812 134.93 89.0091 134.93 93.727Z" fill="#D9D9D9"/>
<path d="M104.964 93.727C109.682 93.727 108.71 94.6991 108.71 89.9812C103.992 89.9812 104.964 89.0091 104.964 93.727Z" fill="#9D9CA1"/>
<path d="M97.4727 93.727C102.191 93.727 101.218 94.6991 101.218 89.9812C96.5006 89.9812 97.4727 89.0091 97.4727 93.727Z" fill="#CDCDCD"/>
<path d="M52.5235 93.727C57.2413 93.727 56.2692 94.6991 56.2692 89.9812C51.5514 89.9812 52.5235 89.0091 52.5235 93.727Z" fill="#C5C5C6"/>
<path d="M104.964 89.9809C109.682 89.9809 108.71 90.953 108.71 86.2351C103.992 86.2351 104.964 85.263 104.964 89.9809Z" fill="#BCBCBD"/>
<path d="M15.0659 89.9809C19.7838 89.9809 18.8117 90.953 18.8117 86.2351C14.0938 86.2351 15.0659 85.263 15.0659 89.9809Z" fill="#E9E9E9"/>
<path d="M60.0149 86.2353C64.7328 86.2353 63.7607 87.2074 63.7607 82.4895C59.0428 82.4895 60.0149 81.5174 60.0149 86.2353Z" fill="#ADACB0"/>
<path d="M33.7947 86.2353C38.5126 86.2353 37.5405 87.2074 37.5405 82.4895C32.8226 82.4895 33.7947 81.5174 33.7947 86.2353Z" fill="#DDDDDE"/>
<path d="M22.5574 86.2353C27.2753 86.2353 26.3032 87.2074 26.3032 82.4895C21.5853 82.4895 22.5574 81.5174 22.5574 86.2353Z" fill="#CFCFCF"/>
<path d="M101.219 82.4897C105.936 82.4897 104.964 83.4618 104.964 78.7439C100.246 78.7439 101.219 77.7718 101.219 82.4897Z" fill="#B9B9BA"/>
<path d="M48.7776 82.4897C53.4955 82.4897 52.5234 83.4618 52.5234 78.7439C47.8055 78.7439 48.7776 77.7718 48.7776 82.4897Z" fill="#D2D2D2"/>
<path d="M41.2862 82.4897C46.004 82.4897 45.0319 83.4618 45.0319 78.7439C40.314 78.7439 41.2862 77.7718 41.2862 82.4897Z" fill="#CFCFCF"/>
<path d="M26.3033 82.4897C31.0211 82.4897 30.049 83.4618 30.049 78.7439C25.3311 78.7439 26.3033 77.7718 26.3033 82.4897Z" fill="#D6D6D6"/>
<path d="M11.3201 82.4897C16.038 82.4897 15.0659 83.4618 15.0659 78.7439C10.348 78.7439 11.3201 77.7718 11.3201 82.4897Z" fill="#EBEBEB"/>
<path d="M131.185 78.7436C135.902 78.7436 134.93 79.7157 134.93 74.9978C130.212 74.9978 131.185 74.0257 131.185 78.7436Z" fill="#D4D4D4"/>
<path d="M97.4727 78.7436C102.191 78.7436 101.218 79.7157 101.218 74.9978C96.5006 74.9978 97.4727 74.0257 97.4727 78.7436Z" fill="#9A999E"/>
<path d="M37.5406 78.7436C42.2584 78.7436 41.2863 79.7157 41.2863 74.9978C36.5684 74.9978 37.5406 74.0257 37.5406 78.7436Z" fill="#D8D8D9"/>
<path d="M30.0489 78.7436C34.7667 78.7436 33.7946 79.7157 33.7946 74.9978C29.0767 74.9978 30.0489 74.0257 30.0489 78.7436Z" fill="#E7E7E7"/>
<path d="M93.7268 71.2524C98.4447 71.2524 97.4726 72.2245 97.4726 67.5066C92.7547 67.5066 93.7268 66.5345 93.7268 71.2524Z" fill="#A09FA4"/>
<path d="M11.3201 71.2524C16.038 71.2524 15.0659 72.2245 15.0659 67.5066C10.348 67.5066 11.3201 66.5345 11.3201 71.2524Z" fill="#E9E9E9"/>
<path d="M74.9981 67.5063C79.716 67.5063 78.7438 68.4784 78.7438 63.7605C74.026 63.7605 74.9981 62.7884 74.9981 67.5063Z" fill="#EBEBEB"/>
<path d="M48.7776 67.5063C53.4955 67.5063 52.5234 68.4784 52.5234 63.7605C47.8055 63.7605 48.7776 62.7884 48.7776 67.5063Z" fill="#DFDFDF"/>
<path d="M127.439 63.7607C132.157 63.7607 131.185 64.7328 131.185 60.0149C126.467 60.0149 127.439 59.0428 127.439 63.7607Z" fill="#D9D9D9"/>
<path d="M82.4895 60.0151C87.2074 60.0151 86.2353 60.9872 86.2353 56.2693C81.5174 56.2693 82.4895 55.2972 82.4895 60.0151Z" fill="#BFBFC0"/>
<path d="M78.7439 60.0151C83.4618 60.0151 82.4897 60.9872 82.4897 56.2693C77.7718 56.2693 78.7439 55.2972 78.7439 60.0151Z" fill="#D2D2D2"/>
<path d="M63.7608 60.0151C68.4786 60.0151 67.5065 60.9872 67.5065 56.2693C62.7887 56.2693 63.7608 55.2972 63.7608 60.0151Z" fill="#D2D2D2"/>
<path d="M33.7947 60.0151C38.5126 60.0151 37.5405 60.9872 37.5405 56.2693C32.8226 56.2693 33.7947 55.2972 33.7947 60.0151Z" fill="#B7B7BA"/>
<path d="M116.201 56.269C120.919 56.269 119.947 57.2411 119.947 52.5232C115.229 52.5232 116.201 51.5511 116.201 56.269Z" fill="#9D9CA1"/>
<path d="M78.7439 56.269C83.4618 56.269 82.4897 57.2411 82.4897 52.5232C77.7718 52.5232 78.7439 51.5511 78.7439 56.269Z" fill="#D2D2D2"/>
<path d="M30.0489 56.269C34.7667 56.269 33.7946 57.2411 33.7946 52.5232C29.0767 52.5232 30.0489 51.5511 30.0489 56.269Z" fill="#D9D9D9"/>
<path d="M112.456 52.5234C117.174 52.5234 116.202 53.4955 116.202 48.7776C111.484 48.7776 112.456 47.8055 112.456 52.5234Z" fill="#A09FA4"/>
<path d="M86.2354 52.5234C90.9533 52.5234 89.9811 53.4955 89.9811 48.7776C85.2633 48.7776 86.2354 47.8055 86.2354 52.5234Z" fill="#E6E6E6"/>
<path d="M142.422 48.7778C147.14 48.7778 146.168 49.7499 146.168 45.032C141.45 45.032 142.422 44.0599 142.422 48.7778Z" fill="#57526F"/>
<path d="M108.71 48.7778C113.428 48.7778 112.456 49.7499 112.456 45.032C107.738 45.032 108.71 44.0599 108.71 48.7778Z" fill="#B6B5B7"/>
<path d="M93.7268 48.7778C98.4447 48.7778 97.4726 49.7499 97.4726 45.032C92.7547 45.032 93.7268 44.0599 93.7268 48.7778Z" fill="#9C9BA1"/>
<path d="M7.57449 48.7778C12.2924 48.7778 11.3203 49.7499 11.3203 45.032C6.60238 45.032 7.57449 44.0599 7.57449 48.7778Z" fill="#E3E3E5"/>
<path d="M63.7608 45.0317C68.4786 45.0317 67.5065 46.0038 67.5065 41.2859C62.7887 41.2859 63.7608 40.3138 63.7608 45.0317Z" fill="#CFCFCF"/>
<path d="M56.2693 45.0317C60.9872 45.0317 60.0151 46.0038 60.0151 41.2859C55.2972 41.2859 56.2693 40.3138 56.2693 45.0317Z" fill="#B0AFB2"/>
<path d="M104.964 41.2861C109.682 41.2861 108.71 42.2582 108.71 37.5403C103.992 37.5403 104.964 36.5682 104.964 41.2861Z" fill="#A09FA4"/>
<path d="M97.4727 41.2861C102.191 41.2861 101.218 42.2582 101.218 37.5403C96.5006 37.5403 97.4727 36.5682 97.4727 41.2861Z" fill="#D8D8D9"/>
<path d="M74.9981 37.5405C79.716 37.5405 78.7438 38.5126 78.7438 33.7947C74.026 33.7947 74.9981 32.8226 74.9981 37.5405Z" fill="#E4E4E4"/>
<path d="M131.184 104.964C131.184 100.246 132.157 101.218 127.439 101.218V63.7607H119.947V56.2691C115.229 56.2691 116.201 57.2412 116.201 52.5234C111.484 52.5234 112.456 53.4955 112.456 48.7776C107.738 48.7776 108.71 49.7497 108.71 45.0318C108.71 40.314 109.682 41.2861 104.964 41.2861C104.964 36.5682 105.936 37.5403 101.218 37.5403C101.218 42.2582 102.19 41.2861 97.4726 41.2861V48.7776C92.7547 48.7776 93.7268 47.8055 93.7268 52.5234H86.2353V60.0149C81.5174 60.0149 82.4895 59.0428 82.4895 63.7607C87.2074 63.7607 86.2353 62.7885 86.2353 67.5064C86.2353 72.2243 85.2632 71.2522 89.9811 71.2522C94.6989 71.2522 93.7268 72.2243 93.7268 67.5064H101.218V74.9979C101.218 79.7158 100.246 78.7437 104.964 78.7437V86.2352C109.682 86.2352 108.71 85.2631 108.71 89.981C108.71 94.6989 109.682 93.7268 104.964 93.7268V101.218C104.964 105.936 105.936 104.964 101.218 104.964H86.2353C86.2353 109.682 85.2632 108.71 89.9811 108.71C89.9811 113.428 89.0089 112.456 93.7268 112.456C93.7268 117.173 92.7547 116.201 97.4726 116.201C102.19 116.201 101.218 117.173 101.218 112.456H108.71C113.428 112.456 112.456 111.483 112.456 116.201H119.947C119.947 111.483 118.975 112.456 123.693 112.456C128.411 112.456 127.439 113.428 127.439 108.71H134.93C134.93 103.992 135.902 104.964 131.184 104.964Z" fill="#97969C"/>
<path d="M63.7608 93.7271V86.2356H56.2693V93.7271H48.7778C48.7778 89.0093 49.7499 89.9814 45.032 89.9814C45.032 85.2635 46.0041 86.2356 41.2862 86.2356H33.7947V93.7271C33.7947 98.445 32.8226 97.4729 37.5405 97.4729C37.5405 92.755 36.5684 93.7271 41.2862 93.7271C41.2862 98.445 40.3141 97.4729 45.032 97.4729C45.032 102.191 46.0041 101.219 41.2862 101.219V108.71C46.0041 108.71 45.032 107.738 45.032 112.456C45.032 117.174 44.0599 116.202 48.7778 116.202H63.7608V108.71C63.7608 103.992 62.7887 104.964 67.5066 104.964V97.4729C62.7887 97.4729 63.7608 98.445 63.7608 93.7271Z" fill="#97969C"/>
<path d="M37.5404 60.0151V74.9981C42.2583 74.9981 41.2862 74.026 41.2862 78.7439C46.0041 78.7439 45.032 79.716 45.032 74.9981V67.5066C45.032 62.7887 44.0599 63.7608 48.7777 63.7608C48.7777 59.0429 47.8056 60.0151 52.5235 60.0151C57.2414 60.0151 56.2693 60.9872 56.2693 56.2693C56.2693 51.5514 57.2414 52.5235 52.5235 52.5235C52.5235 47.8056 51.5514 48.7778 56.2693 48.7778V33.7947H41.2862C36.5683 33.7947 37.5404 32.8226 37.5404 37.5405C37.5404 42.2583 38.5126 41.2862 33.7947 41.2862V56.2693C38.5126 56.2693 37.5404 55.2972 37.5404 60.0151Z" fill="#97969C"/>
<path d="M33.7947 37.5405C38.5126 37.5405 37.5405 38.5126 37.5405 33.7947C32.8226 33.7947 33.7947 32.8226 33.7947 37.5405Z" fill="#D9D9D9"/>
<path d="M56.2693 33.7944C60.9872 33.7944 60.0151 34.7665 60.0151 30.0486C55.2972 30.0486 56.2693 29.0765 56.2693 33.7944Z" fill="#D2D2D2"/>
<path d="M131.185 30.0488C135.902 30.0488 134.93 31.0209 134.93 26.303C130.212 26.303 131.185 25.3309 131.185 30.0488Z" fill="#57526F"/>
<path d="M116.201 30.0488C120.919 30.0488 119.947 31.0209 119.947 26.303C115.229 26.303 116.201 25.3309 116.201 30.0488Z" fill="#DFDFDF"/>
<path d="M101.219 30.0488C105.936 30.0488 104.964 31.0209 104.964 26.303C100.246 26.303 101.219 25.3309 101.219 30.0488Z" fill="#E9E9E9"/>
<path d="M89.9812 30.0488C94.6991 30.0488 93.727 31.0209 93.727 26.303C89.0091 26.303 89.9812 25.3309 89.9812 30.0488Z" fill="#EBEBEB"/>
<path d="M48.7776 30.0488C53.4955 30.0488 52.5234 31.0209 52.5234 26.303C47.8055 26.303 48.7776 25.3309 48.7776 30.0488Z" fill="#E4E4E4"/>
<path d="M45.032 30.0488C49.7499 30.0488 48.7778 31.0209 48.7778 26.303C44.0599 26.303 45.032 25.3309 45.032 30.0488Z" fill="#E4E4E4"/>
<path d="M41.2862 30.0488C46.004 30.0488 45.0319 31.0209 45.0319 26.303C40.314 26.303 41.2862 25.3309 41.2862 30.0488Z" fill="#DBDBDB"/>
<path d="M67.5066 26.3032C72.2245 26.3032 71.2524 27.2753 71.2524 22.5574C66.5345 22.5574 67.5066 21.5853 67.5066 26.3032Z" fill="#CDCDCD"/>
<path d="M89.9812 22.5571C94.6991 22.5571 93.727 23.5292 93.727 18.8113C89.0091 18.8113 89.9812 17.8392 89.9812 22.5571Z" fill="#CBCBCB"/>
<path d="M123.693 112.456C123.693 117.173 124.665 116.201 119.947 116.201H112.456C112.456 111.483 113.428 112.456 108.71 112.456H101.218C101.218 117.173 102.19 116.201 97.4725 116.201H89.981C89.981 111.483 90.9531 112.456 86.2353 112.456V104.964H93.7268C98.4447 104.964 97.4725 105.936 97.4725 101.218H82.4895V108.71C77.7716 108.71 78.7437 109.682 78.7437 104.964H63.7607V112.456C63.7607 117.173 64.7328 116.201 60.0149 116.201H52.5234C47.8055 116.201 48.7776 115.229 48.7776 119.947C53.4955 119.947 52.5234 118.975 52.5234 123.693C57.2413 123.693 56.2691 122.721 56.2691 127.439C60.987 127.439 60.0149 126.466 60.0149 131.184C64.7328 131.184 63.7607 132.156 63.7607 127.439C68.4785 127.439 67.5064 128.411 67.5064 123.693H74.998C79.7158 123.693 78.7437 122.721 78.7437 127.439H86.2353C86.2353 132.156 85.2631 131.184 89.981 131.184H97.4725V123.693H112.456C112.456 128.411 111.483 127.439 116.201 127.439H123.693V119.947C128.411 119.947 127.439 120.919 127.439 116.201C132.157 116.201 131.184 117.173 131.184 112.456H123.693Z" fill="#C9C9C9"/>
<path d="M104.964 101.218V86.235C104.964 81.5171 105.936 82.4892 101.218 82.4892C101.218 77.7713 102.191 78.7434 97.4727 78.7434V86.235C102.191 86.235 101.218 85.2628 101.218 89.9807C101.218 94.6986 102.191 93.7265 97.4727 93.7265V101.218H104.964Z" fill="#C9C9C9"/>
<path d="M37.5405 97.4722V104.964C42.2584 104.964 41.2863 105.936 41.2863 101.218C46.0042 101.218 45.0321 102.19 45.0321 97.4722H37.5405Z" fill="#C9C9C9"/>
<path d="M134.93 93.7266V78.7436C130.212 78.7436 131.184 79.7157 131.184 74.9978V67.5063C131.184 62.7884 132.157 63.7605 127.439 63.7605V101.218C132.157 101.218 131.184 100.246 131.184 104.964C135.902 104.964 134.93 105.936 134.93 101.218C134.93 96.5003 133.958 97.4724 138.676 97.4724C138.676 92.7545 139.648 93.7266 134.93 93.7266Z" fill="#C9C9C9"/>
<path d="M63.7608 86.2351V93.7267C63.7608 98.4445 62.7887 97.4724 67.5065 97.4724H74.9981V89.9809C74.9981 85.263 75.9702 86.2351 71.2523 86.2351H63.7608Z" fill="#C9C9C9"/>
<path d="M48.7776 89.9809C48.7776 94.6988 47.8055 93.7266 52.5234 93.7266C52.5234 89.0088 51.5513 89.9809 56.2691 89.9809C56.2691 85.263 55.297 86.2351 60.0149 86.2351C60.0149 81.5172 60.987 82.4893 56.2691 82.4893H48.7776V67.5063C48.7776 62.7884 49.7497 63.7605 45.0318 63.7605V78.7436C45.0318 83.4615 46.004 82.4893 41.2861 82.4893C36.5682 82.4893 37.5403 81.5172 37.5403 86.2351H45.0318C45.0318 90.953 44.0597 89.9809 48.7776 89.9809Z" fill="#C9C9C9"/>
<path d="M101.218 74.9977V67.5061C96.5006 67.5061 97.4727 66.534 97.4727 71.2519H89.9811C85.2633 71.2519 86.2354 70.2798 86.2354 74.9977H93.7269C93.7269 79.7155 92.7548 78.7434 97.4727 78.7434C97.4727 74.0255 96.5006 74.9977 101.218 74.9977Z" fill="#C9C9C9"/>
<path d="M15.0658 67.5063C15.0658 72.2242 16.0379 71.2521 11.3201 71.2521V78.7436C16.0379 78.7436 15.0658 77.7715 15.0658 82.4894C15.0658 87.2073 14.0937 86.2352 18.8116 86.2352C23.5295 86.2352 22.5574 87.2073 22.5574 82.4894C27.2752 82.4894 26.3031 83.4615 26.3031 78.7436C31.021 78.7436 30.0489 79.7157 30.0489 74.9979V67.5063H15.0658Z" fill="#C9C9C9"/>
<path d="M86.2355 63.7607C81.5176 63.7607 82.4897 64.7328 82.4897 60.0149C77.7718 60.0149 78.7439 59.0428 78.7439 63.7607V71.2522H86.2355V63.7607Z" fill="#C9C9C9"/>
<path d="M63.7607 63.7605V56.269C68.4785 56.269 67.5064 57.2411 67.5064 52.5233V45.0317C62.7886 45.0317 63.7607 46.0038 63.7607 41.286V33.7944H56.2691V41.286C60.987 41.286 60.0149 40.3138 60.0149 45.0317C55.297 45.0317 56.2691 44.0596 56.2691 48.7775C51.5513 48.7775 52.5234 47.8054 52.5234 52.5233C57.2413 52.5233 56.2691 51.5511 56.2691 56.269C56.2691 60.9869 57.2413 60.0148 52.5234 60.0148C47.8055 60.0148 48.7776 59.0427 48.7776 63.7605H63.7607Z" fill="#C9C9C9"/>
<path d="M127.439 41.2861C127.439 36.5682 128.411 37.5403 123.693 37.5403C123.693 32.8224 124.665 33.7945 119.947 33.7945C119.947 29.0767 120.919 30.0488 116.202 30.0488C116.202 25.3309 117.174 26.303 112.456 26.303H104.964C104.964 31.0209 105.936 30.0488 101.219 30.0488V37.5403H108.71V45.0318C113.428 45.0318 112.456 44.0597 112.456 48.7776C117.174 48.7776 116.202 47.8055 116.202 52.5234C120.919 52.5234 119.947 51.5512 119.947 56.2691V63.7606H127.439V41.2861Z" fill="#C9C9C9"/>
<path d="M82.4895 56.269C87.2074 56.269 86.2353 57.2411 86.2353 52.5232C81.5174 52.5232 82.4895 51.5511 82.4895 56.269Z" fill="#C9C9C9"/>
<path d="M89.981 52.5234C94.6989 52.5234 93.7267 53.4955 93.7267 48.7776C89.0089 48.7776 89.981 47.8055 89.981 52.5234Z" fill="#C9C9C9"/>
<path d="M30.0489 45.0317V52.5232C34.7667 52.5232 33.7946 53.4953 33.7946 48.7774V41.2859C29.0767 41.2859 30.0489 40.3138 30.0489 45.0317Z" fill="#C9C9C9"/>
<path d="M37.5405 37.5403C32.8226 37.5403 33.7947 36.5682 33.7947 41.2861C38.5126 41.2861 37.5405 42.2582 37.5405 37.5403Z" fill="#C9C9C9"/>
<path d="M74.998 33.7944H89.981V26.3028C94.6989 26.3028 93.7268 27.275 93.7268 22.5571C89.0089 22.5571 89.981 23.5292 89.981 18.8113H74.998C70.2801 18.8113 71.2522 17.8392 71.2522 22.5571V30.0486C75.9701 30.0486 74.998 29.0765 74.998 33.7944Z" fill="#C9C9C9"/>
<path d="M52.5234 30.0486H37.5403C37.5403 34.7665 36.5682 33.7944 41.2861 33.7944H56.2691C56.2691 29.0765 57.2412 30.0486 52.5234 30.0486Z" fill="#C9C9C9"/>
<path d="M67.5066 22.5571C72.2245 22.5571 71.2524 23.5292 71.2524 18.8113C66.5345 18.8113 67.5066 17.8392 67.5066 22.5571Z" fill="#DDDDDD"/>
<path d="M119.947 18.8115C124.665 18.8115 123.693 19.7836 123.693 15.0657C118.975 15.0657 119.947 14.0936 119.947 18.8115Z" fill="#57526F"/>
<path d="M123.693 127.438C128.411 127.438 127.439 128.411 127.439 123.693C122.721 123.693 123.693 122.721 123.693 127.438Z" fill="#EEEEEE"/>
<path d="M127.439 119.947C132.157 119.947 131.185 120.919 131.185 116.201C126.467 116.201 127.439 115.229 127.439 119.947Z" fill="#EEEEEE"/>
<path d="M142.422 56.2691V48.7776C142.422 44.0597 143.394 45.0318 138.676 45.0318V37.5403C133.958 37.5403 134.93 38.5124 134.93 33.7945C130.212 33.7945 131.185 34.7666 131.185 30.0487C126.467 30.0487 127.439 31.0209 127.439 26.303C127.439 21.5851 128.411 22.5572 123.693 22.5572C118.975 22.5572 119.947 23.5293 119.947 18.8115C115.229 18.8115 116.202 19.7836 116.202 15.0657C111.484 15.0657 112.456 16.0378 112.456 11.3199H104.964C104.964 6.60205 105.936 7.57416 101.218 7.57416H93.727C93.727 2.85628 94.6991 3.8284 89.9812 3.8284H60.0151C55.2972 3.8284 56.2693 2.85628 56.2693 7.57416H48.7778C44.0599 7.57416 45.032 6.60205 45.032 11.3199H37.5405C37.5405 16.0378 38.5126 15.0657 33.7948 15.0657C33.7948 19.7836 34.7669 18.8115 30.049 18.8115C30.049 23.5293 31.0211 22.5572 26.3032 22.5572C21.5853 22.5572 22.5575 21.5851 22.5575 26.303C22.5575 31.0209 23.5296 30.0487 18.8117 30.0487C18.8117 34.7666 19.7838 33.7945 15.0659 33.7945C15.0659 38.5124 16.038 37.5403 11.3202 37.5403V45.0318C11.3202 49.7497 12.2923 48.7776 7.5744 48.7776V56.2691C2.85653 56.2691 3.82864 55.297 3.82864 60.0149V89.981C3.82864 94.6988 2.85653 93.7267 7.5744 93.7267V101.218C12.2923 101.218 11.3202 100.246 11.3202 104.964V112.456C16.038 112.456 15.0659 111.483 15.0659 116.201C19.7838 116.201 18.8117 115.229 18.8117 119.947C23.5296 119.947 22.5575 118.975 22.5575 123.693C22.5575 128.411 21.5853 127.439 26.3032 127.439C31.0211 127.439 30.049 126.466 30.049 131.184C34.7669 131.184 33.7948 130.212 33.7948 134.93C38.5126 134.93 37.5405 133.958 37.5405 138.676H45.032C45.032 143.394 44.0599 142.422 48.7778 142.422H56.2693C56.2693 147.14 55.2972 146.167 60.0151 146.167H89.9812C94.6991 146.167 93.727 147.14 93.727 142.422H101.218C105.936 142.422 104.964 143.394 104.964 138.676H112.456C112.456 133.958 111.484 134.93 116.202 134.93C116.202 130.212 115.229 131.184 119.947 131.184C119.947 126.466 120.919 127.439 116.202 127.439C111.484 127.439 112.456 128.411 112.456 123.693H104.964C100.246 123.693 101.218 122.721 101.218 127.439C96.5006 127.439 97.4727 126.466 97.4727 131.184H89.9812C85.2633 131.184 86.2354 132.156 86.2354 127.439H78.7439C78.7439 122.721 79.716 123.693 74.9981 123.693H67.5066C67.5066 128.411 68.4787 127.439 63.7609 127.439C63.7609 132.156 64.733 131.184 60.0151 131.184C55.2972 131.184 56.2693 132.156 56.2693 127.439C51.5515 127.439 52.5236 128.411 52.5236 123.693C52.5236 118.975 53.4957 119.947 48.7778 119.947C48.7778 115.229 49.7499 116.201 45.032 116.201C45.032 111.483 46.0042 112.456 41.2863 112.456C41.2863 107.738 42.2584 108.71 37.5405 108.71V101.218C37.5405 96.5004 38.5126 97.4725 33.7948 97.4725V82.4894H41.2863C41.2863 77.7716 42.2584 78.7437 37.5405 78.7437V63.7606C37.5405 59.0427 38.5126 60.0149 33.7948 60.0149C33.7948 55.297 34.7669 56.2691 30.049 56.2691V41.286C34.7669 41.286 33.7948 42.2581 33.7948 37.5403C33.7948 32.8224 32.8226 33.7945 37.5405 33.7945C37.5405 29.0766 36.5684 30.0487 41.2863 30.0487C41.2863 25.3309 40.3142 26.303 45.032 26.303H52.5236C52.5236 31.0209 51.5515 30.0487 56.2693 30.0487C60.9872 30.0487 60.0151 29.0766 60.0151 33.7945C64.733 33.7945 63.7609 32.8224 63.7609 37.5403C63.7609 42.2581 62.7887 41.286 67.5066 41.286V56.2691C67.5066 60.987 68.4787 60.0149 63.7609 60.0149C63.7609 64.7327 64.733 63.7606 60.0151 63.7606H52.5236C52.5236 68.4785 53.4957 67.5064 48.7778 67.5064V74.9979C48.7778 79.7158 47.8057 78.7437 52.5236 78.7437C52.5236 83.4615 51.5515 82.4894 56.2693 82.4894H63.7609C63.7609 87.2073 62.7887 86.2352 67.5066 86.2352H74.9981V101.218C74.9981 105.936 74.026 104.964 78.7439 104.964C78.7439 109.682 77.7718 108.71 82.4897 108.71V101.218C87.2076 101.218 86.2354 102.19 86.2354 97.4725H93.727C93.727 102.19 92.7549 101.218 97.4727 101.218V93.7267C97.4727 89.0088 96.5006 89.981 101.218 89.981C101.218 85.2631 102.191 86.2352 97.4727 86.2352V78.7437C92.7549 78.7437 93.727 79.7158 93.727 74.9979H86.2354C86.2354 70.28 87.2076 71.2521 82.4897 71.2521C77.7718 71.2521 78.7439 72.2243 78.7439 67.5064C74.026 67.5064 74.9981 68.4785 74.9981 63.7606C79.716 63.7606 78.7439 64.7327 78.7439 60.0149V52.5233H86.2354C86.2354 47.8054 85.2633 48.7776 89.9812 48.7776C94.6991 48.7776 93.727 49.7497 93.727 45.0318C98.4448 45.0318 97.4727 46.0039 97.4727 41.286C97.4727 36.5682 96.5006 37.5403 101.218 37.5403V30.0487C101.218 25.3309 100.246 26.303 104.964 26.303H119.947V33.7945C124.665 33.7945 123.693 32.8224 123.693 37.5403C128.411 37.5403 127.439 36.5682 127.439 41.286V56.2691C127.439 60.987 126.467 60.0149 131.185 60.0149V74.9979C135.902 74.9979 134.93 74.0258 134.93 78.7437V86.2352C134.93 90.9531 133.958 89.981 138.676 89.981V97.4725C133.958 97.4725 134.93 96.5004 134.93 101.218V108.71C130.212 108.71 131.185 107.738 131.185 112.456C131.185 117.173 130.212 116.201 134.93 116.201C134.93 111.483 133.958 112.456 138.676 112.456V104.964C143.394 104.964 142.422 105.936 142.422 101.218V93.7267C147.14 93.7267 146.168 94.6988 146.168 89.981V60.0149C146.168 55.297 147.14 56.2691 142.422 56.2691ZM93.727 26.303C93.727 31.0209 94.6991 30.0487 89.9812 30.0487C89.9812 34.7666 90.9533 33.7945 86.2354 33.7945H78.7439C78.7439 38.5124 79.716 37.5403 74.9981 37.5403V30.0487C70.2803 30.0487 71.2524 31.0209 71.2524 26.303C66.5345 26.303 67.5066 27.2751 67.5066 22.5572C67.5066 17.8393 66.5345 18.8115 71.2524 18.8115H93.727V26.303ZM33.7948 78.7437C29.0769 78.7437 30.049 77.7716 30.049 82.4894C25.3311 82.4894 26.3032 81.5173 26.3032 86.2352H18.8117C18.8117 90.9531 19.7838 89.981 15.0659 89.981V82.4894C10.3481 82.4894 11.3202 83.4615 11.3202 78.7437V71.2521C11.3202 66.5343 10.3481 67.5064 15.0659 67.5064H30.049V74.9979C34.7669 74.9979 33.7948 74.0258 33.7948 78.7437Z" fill="#EEEEEE"/>
<path d="M60.0151 149.913H89.9812C94.6991 149.913 93.7269 150.885 93.7269 146.167H56.2693C56.2693 150.885 55.2972 149.913 60.0151 149.913Z" fill="#4C4766"/>
<path d="M101.218 146.167C105.936 146.167 104.964 147.14 104.964 142.422H97.4726C92.7547 142.422 93.7268 141.45 93.7268 146.167H101.218Z" fill="#4C4766"/>
<path d="M48.7778 146.167H56.2693C56.2693 141.45 57.2414 142.422 52.5235 142.422H45.032C45.032 147.14 44.0599 146.167 48.7778 146.167Z" fill="#4C4766"/>
<path d="M112.456 142.422C112.456 137.704 113.428 138.676 108.71 138.676C103.992 138.676 104.964 137.704 104.964 142.422H112.456Z" fill="#4C4766"/>
<path d="M41.2863 142.422C46.0042 142.422 45.0321 143.394 45.0321 138.676H37.5406C37.5406 143.394 36.5684 142.422 41.2863 142.422Z" fill="#4C4766"/>
<path d="M119.947 138.676V131.184C115.229 131.184 116.202 130.212 116.202 134.93C111.484 134.93 112.456 133.958 112.456 138.676H119.947Z" fill="#4C4766"/>
<path d="M37.5405 138.676C37.5405 133.958 38.5126 134.93 33.7947 134.93C33.7947 139.648 32.8226 138.676 37.5405 138.676Z" fill="#4C4766"/>
<path d="M123.693 131.185C128.411 131.185 127.439 132.157 127.439 127.439C122.721 127.439 123.693 126.467 123.693 131.185Z" fill="#4C4766"/>
<path d="M26.3032 131.185C26.3032 135.903 25.331 134.93 30.0489 134.93C34.7668 134.93 33.7947 135.903 33.7947 131.185C29.0768 131.185 30.0489 132.157 30.0489 127.439H22.5574C22.5574 132.157 21.5853 131.185 26.3032 131.185Z" fill="#4C4766"/>
<path d="M127.439 127.439C132.157 127.439 131.185 128.411 131.185 123.693C126.467 123.693 127.439 122.721 127.439 127.439Z" fill="#4C4766"/>
<path d="M131.185 123.693C135.902 123.693 134.93 124.665 134.93 119.947C130.212 119.947 131.185 118.975 131.185 123.693Z" fill="#4C4766"/>
<path d="M11.3201 119.947C16.0379 119.947 15.0658 118.975 15.0658 123.693C19.7837 123.693 18.8116 122.721 18.8116 127.439C23.5295 127.439 22.5574 128.411 22.5574 123.693C22.5574 118.975 23.5295 119.947 18.8116 119.947C18.8116 115.229 19.7837 116.202 15.0658 116.202C15.0658 111.484 16.0379 112.456 11.3201 112.456V119.947Z" fill="#4C4766"/>
<path d="M134.93 116.202C134.93 120.919 133.958 119.947 138.676 119.947V112.456C133.958 112.456 134.93 111.484 134.93 116.202Z" fill="#4C4766"/>
<path d="M7.57446 112.456C12.2923 112.456 11.3202 113.428 11.3202 108.71C11.3202 103.992 12.2923 104.964 7.57446 104.964V112.456Z" fill="#4C4766"/>
<path d="M138.676 108.71C138.676 113.428 137.704 112.456 142.422 112.456V104.964C137.704 104.964 138.676 103.992 138.676 108.71Z" fill="#4C4766"/>
<path d="M3.82864 101.218C3.82864 105.936 2.85653 104.964 7.57441 104.964V97.4726C7.57441 92.7547 8.54652 93.7268 3.82864 93.7268V101.218Z" fill="#4C4766"/>
<path d="M142.422 97.4726C142.422 102.19 141.45 101.218 146.168 101.218V93.7268C141.45 93.7268 142.422 92.7547 142.422 97.4726Z" fill="#4C4766"/>
<path d="M146.168 56.2693V93.7269C150.886 93.7269 149.913 94.6991 149.913 89.9812V60.0151C149.913 55.2972 150.886 56.2693 146.168 56.2693Z" fill="#4C4766"/>
<path d="M0.0827922 60.0151V89.9812C0.0827922 94.6991 -0.889323 93.7269 3.82856 93.7269V56.2693C-0.889323 56.2693 0.0827922 55.2972 0.0827922 60.0151Z" fill="#4C4766"/>
<path d="M146.168 48.7776C141.45 48.7776 142.422 47.8055 142.422 52.5234C142.422 57.2413 141.45 56.2691 146.168 56.2691V48.7776Z" fill="#4C4766"/>
<path d="M3.82864 48.7778V56.2693C8.54652 56.2693 7.57441 57.2414 7.57441 52.5235V45.032C2.85653 45.032 3.82864 44.0599 3.82864 48.7778Z" fill="#4C4766"/>
<path d="M138.676 45.0318C143.394 45.0318 142.422 46.004 142.422 41.2861C142.422 36.5682 143.394 37.5403 138.676 37.5403V45.0318Z" fill="#4C4766"/>
<path d="M7.57425 41.2861C7.57425 46.004 6.60213 45.0318 11.32 45.0318V37.5403C6.60213 37.5403 7.57425 36.5682 7.57425 41.2861Z" fill="#4C4766"/>
<path d="M11.3201 37.5405C16.038 37.5405 15.0659 38.5126 15.0659 33.7947C10.348 33.7947 11.3201 32.8226 11.3201 37.5405Z" fill="#4C4766"/>
<path d="M134.93 33.7946C134.93 38.5125 133.958 37.5404 138.676 37.5404V30.0488H131.185C131.185 34.7667 130.212 33.7946 134.93 33.7946Z" fill="#4C4766"/>
<path d="M127.439 30.0489C132.157 30.0489 131.184 31.021 131.184 26.3032C131.184 21.5853 132.157 22.5574 127.439 22.5574V30.0489Z" fill="#4C4766"/>
<path d="M18.8117 26.3032C14.0938 26.3032 15.0659 25.331 15.0659 30.0489C15.0659 34.7668 14.0938 33.7947 18.8117 33.7947C18.8117 29.0768 17.8396 30.0489 22.5575 30.0489V22.5574C17.8396 22.5574 18.8117 21.5853 18.8117 26.3032Z" fill="#4C4766"/>
<path d="M123.693 22.5573C128.411 22.5573 127.439 23.5294 127.439 18.8115H119.947C119.947 23.5294 118.975 22.5573 123.693 22.5573Z" fill="#4C4766"/>
<path d="M119.947 11.3203H112.456C112.456 16.0382 111.484 15.0661 116.202 15.0661C116.202 19.784 115.229 18.8118 119.947 18.8118V11.3203Z" fill="#4C4766"/>
<path d="M108.71 7.57449C103.992 7.57449 104.964 6.60238 104.964 11.3203H112.456C112.456 6.60238 113.428 7.57449 108.71 7.57449Z" fill="#4C4766"/>
<path d="M37.5405 7.57449C32.8226 7.57449 33.7947 6.60238 33.7947 11.3203C29.0768 11.3203 30.0489 10.3481 30.0489 15.066C25.331 15.066 26.3032 14.0939 26.3032 18.8118C21.5853 18.8118 22.5574 17.8397 22.5574 22.5575H30.0489C30.0489 17.8397 29.0768 18.8118 33.7947 18.8118C33.7947 14.0939 32.8226 15.066 37.5405 15.066C37.5405 10.3481 36.5683 11.3203 41.2862 11.3203C46.0041 11.3203 45.032 12.2924 45.032 7.57449H37.5405Z" fill="#4C4766"/>
<path d="M101.218 3.8284H93.7268C93.7268 8.54628 92.7547 7.57416 97.4726 7.57416H104.964C104.964 2.85628 105.936 3.8284 101.218 3.8284Z" fill="#4C4766"/>
<path d="M89.9812 0.0827922H52.5235C52.5235 4.80067 53.4957 3.82856 48.7778 3.82856C44.0599 3.82856 45.032 2.85644 45.032 7.57432H52.5235C57.2414 7.57432 56.2693 8.54643 56.2693 3.82856H93.7269C93.7269 -0.889323 94.6991 0.0827922 89.9812 0.0827922Z" fill="#4C4766"/>
</svg>
