<svg width="19" height="17" viewBox="0 0 19 17" fill="none" xmlns="http://www.w3.org/2000/svg">
<path fill-rule="evenodd" clip-rule="evenodd" d="M17.0319 0.820028C17.2655 0.721705 17.5212 0.687794 17.7724 0.721824C18.0236 0.755854 18.261 0.856582 18.46 1.01352C18.659 1.17046 18.8124 1.37788 18.904 1.61418C18.9957 1.85049 19.0223 2.10704 18.9812 2.35714L16.8372 15.3621C16.6292 16.6165 15.2528 17.3359 14.1023 16.711C13.14 16.1883 11.7107 15.3829 10.425 14.5425C9.78218 14.1218 7.81306 12.7747 8.05506 11.8161C8.26303 10.9965 11.5717 7.91663 13.4624 6.08552C14.2044 5.36612 13.866 4.95112 12.9897 5.61286C10.8135 7.25584 7.31959 9.75435 6.1644 10.4577C5.14533 11.0778 4.61405 11.1837 3.97879 11.0778C2.81982 10.885 1.74498 10.5862 0.867708 10.2223C-0.317737 9.73072 -0.260072 8.10097 0.866763 7.62641L17.0319 0.820028Z" fill="#473D61"/>
</svg>
